<?xml version="1.0" standalone="no"?>
<!DOCTYPE svg PUBLIC "-//W3C//DTD SVG 20010904//EN"
 "http://www.w3.org/TR/2001/REC-SVG-20010904/DTD/svg10.dtd">
<svg version="1.0" xmlns="http://www.w3.org/2000/svg"
 width="700.000000pt" height="700.000000pt" viewBox="0 0 700.000000 700.000000"
 preserveAspectRatio="xMidYMid meet">
<metadata>
Created by potrace 1.11, written by Peter Selinger 2001-2013
</metadata>
<g transform="translate(0.000000,700.000000) scale(0.100000,-0.100000)"
fill="#000000" stroke="none">
<path d="M150 6990 c0 -6 -3 -10 -7 -9 -17 2 -53 -14 -53 -24 0 -6 -3 -8 -6
-4 -13 13 -71 -66 -65 -92 1 -7 -2 -10 -8 -6 -17 10 -15 -6676 2 -6694 10 -11
9 -12 -3 -6 -13 8 -13 7 -1 -8 7 -9 11 -17 7 -17 -10 0 25 -52 60 -87 17 -18
34 -30 37 -26 4 3 13 1 20 -6 19 -15 6744 -11 6755 4 4 6 19 16 34 24 15 8 25
18 23 22 -3 4 4 11 16 14 11 4 18 9 16 12 -3 2 1 16 9 31 12 23 14 529 14
3377 -1 3143 -2 3352 -18 3386 -18 38 -65 89 -82 89 -5 0 -10 5 -10 12 0 6 -3
8 -7 5 -3 -4 -13 -1 -21 6 -13 10 -14 9 -7 -3 7 -12 6 -13 -7 -2 -20 16 -6698
18 -6698 2z m2755 -700 c-3 -5 -2 -10 4 -10 5 0 13 4 16 10 4 6 202 10 542 10
495 0 538 -2 557 -18 14 -13 17 -13 12 -2 -5 8 6 1 23 -17 17 -18 31 -37 31
-42 0 -6 4 -11 9 -11 8 0 24 -55 18 -64 -1 -1 4 -10 12 -19 7 -10 10 -17 6
-17 -4 0 -2 -7 5 -15 6 -8 8 -20 4 -27 -4 -7 -3 -10 1 -5 5 4 19 -23 31 -60
13 -38 28 -76 35 -87 8 -14 8 -16 -2 -10 -7 4 -5 -3 4 -17 9 -13 17 -31 17
-41 0 -10 4 -18 10 -18 5 0 9 -3 8 -7 0 -5 1 -15 4 -23 3 -8 13 -41 23 -72 10
-32 22 -58 27 -58 5 0 6 -5 3 -10 -4 -6 -1 -17 5 -25 7 -8 9 -15 4 -15 -5 0
-4 -4 2 -8 11 -7 35 -81 37 -114 1 -9 3 -15 6 -12 6 6 51 -114 51 -137 0 -11
4 -19 9 -19 8 0 25 -56 22 -72 0 -5 4 -8 10 -8 6 0 9 -7 5 -15 -3 -8 -2 -15 3
-15 5 0 11 -12 14 -27 3 -16 11 -41 18 -58 7 -16 13 -36 15 -43 1 -7 10 -25
19 -39 9 -14 12 -23 6 -19 -5 4 -4 -6 4 -21 8 -15 15 -36 15 -45 0 -10 4 -18
9 -18 6 0 8 -9 6 -20 -2 -11 0 -20 6 -20 5 0 9 -9 9 -21 0 -13 4 -18 12 -13 7
4 8 3 4 -4 -4 -6 -2 -19 3 -29 11 -22 35 -105 33 -115 -1 -5 2 -8 7 -8 5 0 12
-12 17 -27 10 -36 9 -33 22 -66 7 -16 12 -37 12 -48 0 -11 5 -17 10 -14 6 4
10 3 8 -2 -4 -15 13 -73 22 -73 4 0 6 -10 2 -22 -3 -13 -1 -19 5 -15 6 4 13
-9 17 -31 3 -20 13 -50 21 -66 8 -15 15 -37 15 -47 0 -11 4 -19 8 -19 5 0 15
-25 22 -55 7 -30 17 -55 22 -55 4 0 7 -3 6 -7 -3 -11 23 -86 33 -97 5 -6 9
-18 9 -27 0 -10 5 -30 12 -46 6 -15 12 -31 12 -35 1 -3 4 -10 9 -14 4 -4 7
-16 7 -26 0 -10 5 -18 11 -18 5 0 7 -4 4 -10 -3 -5 0 -10 7 -10 9 0 9 -3 -2
-10 -10 -6 -11 -10 -3 -10 7 0 16 -18 19 -40 4 -22 10 -40 15 -40 5 0 9 -8 9
-17 0 -10 7 -31 15 -47 8 -15 12 -32 9 -37 -3 -5 -1 -9 5 -9 6 0 13 -16 17
-35 3 -19 10 -38 15 -41 5 -3 6 -10 3 -16 -4 -6 -1 -14 5 -18 7 -4 13 -17 14
-28 1 -12 5 -22 10 -22 4 0 6 -4 2 -9 -3 -5 -1 -12 4 -15 5 -4 12 -24 16 -46
4 -22 11 -40 16 -40 5 0 8 -3 7 -7 -2 -14 26 -103 33 -103 3 0 9 -14 13 -31 3
-17 12 -45 20 -62 22 -52 29 -71 27 -81 -1 -4 4 -14 10 -22 6 -8 13 -29 15
-46 2 -18 8 -34 12 -37 4 -3 14 -25 20 -48 7 -24 18 -43 24 -43 6 0 9 -3 5 -6
-7 -7 21 -105 34 -119 5 -5 9 -19 9 -31 0 -12 3 -24 8 -26 4 -1 20 -41 35 -88
16 -47 31 -92 34 -100 3 -8 5 -18 5 -22 -1 -5 2 -8 7 -8 5 0 12 -18 16 -39 3
-22 13 -47 20 -58 8 -10 15 -26 15 -35 0 -10 4 -18 10 -18 5 0 7 -7 4 -15 -4
-8 -1 -15 5 -15 6 0 11 -5 11 -11 0 -5 -6 -7 -12 -3 -8 5 -7 1 2 -10 8 -10 16
-27 17 -39 2 -12 8 -24 14 -28 6 -3 10 -10 9 -15 -2 -15 24 -94 31 -94 4 0 9
-18 13 -40 3 -22 10 -40 14 -40 5 0 9 -6 9 -12 0 -7 10 -34 22 -61 12 -26 24
-60 27 -77 4 -16 10 -28 13 -25 4 2 13 -12 20 -31 7 -18 16 -34 21 -34 5 0 11
-8 15 -19 8 -26 40 -61 55 -61 7 0 18 -7 24 -15 6 -9 21 -17 34 -18 12 0 22
-5 22 -10 0 -5 10 -7 23 -6 12 1 29 -1 37 -4 8 -3 76 -7 150 -9 120 -3 140 -6
170 -26 19 -12 31 -22 26 -22 -5 0 -2 -7 5 -16 21 -25 20 -571 -1 -584 -8 -5
-11 -10 -7 -10 4 0 -2 -10 -13 -23 l-21 -22 -1066 0 c-852 0 -1067 3 -1071 13
-2 7 -9 18 -15 25 -21 22 -22 37 -23 277 -1 159 2 240 10 249 9 12 8 13 -2 7
-10 -6 -10 -1 2 21 18 35 62 67 78 57 6 -4 8 -3 5 2 -3 5 10 14 28 20 19 6 32
7 29 2 -3 -4 0 -8 5 -8 6 0 11 4 11 9 0 4 17 8 38 7 61 -1 193 26 199 41 3 7
13 13 22 13 16 0 45 26 48 43 1 4 8 18 15 30 14 22 18 112 6 132 -3 6 -9 31
-12 57 -4 26 -11 50 -17 53 -5 4 -6 11 -3 17 4 6 2 13 -3 17 -5 3 -22 45 -38
93 -15 49 -31 88 -35 88 -4 0 -8 6 -7 13 1 31 -4 48 -12 43 -5 -4 -8 2 -6 11
1 10 -1 23 -5 28 -4 6 -13 31 -20 58 -7 26 -17 50 -21 53 -5 3 -9 16 -9 30 0
13 -4 24 -8 24 -8 0 -38 98 -34 113 2 7 -47 12 -77 7 -8 -1 -18 4 -22 12 -6 9
-9 10 -9 1 0 -8 -16 -12 -45 -11 -28 0 -42 4 -38 11 4 6 1 7 -8 1 -21 -13 -72
-13 -88 0 -11 8 -13 8 -8 0 5 -8 -4 -12 -28 -12 -22 0 -33 4 -28 11 4 6 1 7
-8 1 -23 -14 -52 -15 -61 -2 -5 8 -8 9 -8 2 0 -8 -50 -11 -165 -11 -107 0
-162 4 -158 10 4 6 1 7 -8 1 -8 -5 -25 -10 -37 -12 -17 -2 -22 1 -16 10 6 10
5 10 -7 2 -19 -15 -581 -16 -572 -1 4 6 1 7 -8 1 -8 -5 -25 -10 -37 -12 -17
-2 -22 1 -16 10 6 10 5 10 -7 2 -18 -15 -341 -16 -332 -1 4 6 1 7 -8 1 -23
-14 -59 -16 -59 -2 0 9 -2 10 -8 1 -4 -6 -21 -13 -37 -15 -17 -2 -29 -8 -28
-16 2 -6 -1 -12 -6 -12 -6 0 -13 -20 -17 -45 -3 -25 -10 -45 -15 -45 -5 0 -8
-3 -7 -8 2 -9 -23 -94 -33 -107 -3 -5 -10 -26 -14 -45 -4 -19 -12 -41 -17 -48
-6 -6 -8 -12 -4 -12 4 0 0 -13 -8 -29 -9 -16 -12 -31 -9 -35 4 -3 1 -6 -5 -6
-6 0 -9 -9 -7 -20 2 -11 0 -20 -5 -20 -4 0 -11 -18 -15 -40 -4 -22 -10 -40
-15 -40 -5 0 -7 -11 -6 -25 2 -13 0 -22 -5 -20 -4 3 -10 -13 -14 -35 -4 -22
-10 -40 -14 -40 -9 0 -9 -2 -11 -104 -1 -63 2 -81 14 -88 9 -5 16 -16 16 -23
0 -8 5 -15 10 -15 10 0 21 -8 54 -37 8 -7 16 -9 20 -6 3 3 11 1 18 -5 12 -9
189 -34 246 -34 12 0 22 -4 22 -9 0 -5 8 -9 18 -9 28 0 71 -47 78 -87 9 -48 9
-447 0 -495 -3 -19 -16 -46 -27 -59 l-21 -24 -927 0 c-811 0 -929 2 -942 15
-20 20 -32 48 -35 85 -2 17 -6 43 -9 58 -2 16 0 38 6 49 6 11 7 18 2 15 -5 -3
-9 9 -9 28 0 21 4 31 11 28 5 -3 4 0 -2 7 -9 10 -10 17 -2 27 7 7 8 13 3 13
-5 0 -9 18 -9 39 -1 22 3 37 8 34 5 -3 4 4 -2 15 -14 27 -14 35 2 26 9 -5 9
-4 0 6 -9 10 -10 17 -2 27 7 7 8 13 3 13 -9 0 -11 50 -2 66 3 5 4 21 3 37 -1
15 4 32 12 38 7 6 13 17 13 23 0 15 48 43 86 51 16 3 62 5 102 6 48 0 72 4 72
12 0 8 3 8 8 2 9 -13 62 -16 62 -4 0 5 7 6 15 3 17 -7 105 17 105 28 0 4 12
14 28 22 15 8 23 15 19 16 -8 0 1 13 36 51 9 10 17 28 17 39 0 11 4 20 10 20
5 0 15 20 21 45 6 25 15 42 20 39 5 -3 6 2 3 10 -3 9 -1 16 5 16 6 0 11 11 11
24 0 14 5 28 10 31 6 4 8 11 5 16 -4 5 -2 9 3 9 5 0 12 19 16 42 4 22 10 46
14 52 4 6 7 13 8 16 1 7 13 39 26 70 19 48 36 109 30 114 -3 4 0 6 6 6 6 0 14
16 18 35 3 19 10 38 15 41 5 3 7 10 4 15 -4 5 -2 9 3 9 5 0 13 20 17 45 3 25
10 43 15 40 4 -3 7 2 6 12 -2 9 5 32 15 52 9 20 15 39 12 43 -2 5 0 8 6 8 5 0
13 20 17 45 3 25 11 45 17 45 6 0 8 3 4 6 -3 3 3 25 13 49 10 24 16 46 13 49
-4 3 -1 6 5 6 7 0 12 9 12 19 0 11 5 32 11 48 6 15 10 29 10 30 0 2 8 23 19
48 11 25 16 45 12 45 -4 0 -2 4 3 8 9 6 16 26 36 102 2 8 6 17 9 20 8 8 50
133 50 149 0 8 8 23 18 34 9 11 12 17 5 14 -7 -5 -5 6 5 25 9 18 17 38 18 43
1 6 17 51 34 100 18 50 33 98 33 107 1 9 4 15 8 13 3 -3 11 20 18 50 7 30 17
57 22 60 5 4 9 17 9 31 0 13 5 24 11 24 5 0 7 5 4 10 -3 6 -2 10 3 10 5 0 9 6
10 13 0 11 8 44 16 72 2 6 6 17 9 25 11 25 24 64 27 75 1 6 5 15 10 20 4 6 11
26 15 45 4 19 15 46 24 59 11 18 12 23 2 17 -9 -6 -7 0 4 17 9 14 18 32 19 39
9 43 40 138 46 138 3 0 7 10 7 22 1 13 7 24 12 26 5 2 7 10 4 18 -3 8 1 14 8
14 7 0 10 2 7 6 -8 7 44 168 62 189 4 5 11 27 14 48 3 21 14 50 24 64 10 17
12 24 4 19 -11 -7 -11 -4 0 15 7 13 18 27 23 31 6 4 7 8 2 8 -4 0 0 16 8 36 8
20 15 45 15 55 0 11 5 19 12 19 6 0 9 3 5 6 -3 3 2 25 12 47 10 23 16 48 13
56 -2 8 0 11 6 7 6 -3 13 13 16 39 4 25 12 45 17 45 6 0 7 9 4 21 -5 15 -4 19
4 15 9 -6 16 17 9 27 -2 2 3 11 11 20 7 10 10 17 6 17 -4 0 -3 6 3 13 6 6 13
29 17 49 4 23 11 35 18 31 5 -3 7 -1 4 5 -4 5 2 31 13 56 11 26 19 47 19 49 0
1 4 15 10 30 6 16 11 37 11 48 0 10 5 19 12 19 6 0 9 3 6 6 -4 3 0 21 8 40 8
19 11 34 7 34 -5 0 -3 4 3 8 11 7 49 120 46 135 -1 4 2 7 8 7 5 0 10 9 10 20
0 11 6 20 13 21 9 0 9 2 -1 6 -11 4 -10 8 2 22 8 9 15 21 15 26 2 17 12 47 39
120 14 39 27 72 27 75 7 32 29 98 36 106 6 7 12 21 14 33 2 11 18 36 36 56 31
34 47 45 34 25z"/>
<path d="M3339 5355 c-2 -19 -3 -24 -17 -58 -7 -16 -12 -33 -12 -38 0 -5 -4
-9 -8 -9 -4 0 -8 -8 -9 -18 -2 -19 -33 -115 -54 -167 -14 -35 -13 -30 -23 -75
-5 -19 -12 -39 -16 -45 -4 -5 -11 -25 -15 -42 -3 -18 -11 -33 -16 -33 -6 0 -7
-5 -4 -10 4 -6 2 -16 -3 -23 -5 -7 -12 -29 -16 -50 -4 -21 -11 -35 -15 -33 -4
3 -7 -8 -6 -24 1 -17 -2 -30 -7 -30 -4 0 -8 -9 -8 -19 0 -11 -4 -21 -8 -23 -8
-3 -43 -110 -45 -135 0 -7 -4 -13 -9 -13 -4 0 -8 -12 -8 -26 0 -14 -4 -22 -10
-19 -6 3 -7 -1 -4 -10 4 -8 2 -21 -4 -28 -6 -6 -13 -29 -17 -49 -4 -21 -11
-38 -16 -38 -5 0 -6 -7 -3 -15 4 -8 2 -15 -3 -15 -5 0 -10 -6 -11 -12 -1 -19
-7 -39 -21 -73 -7 -16 -15 -41 -17 -54 -3 -13 -9 -32 -14 -41 -5 -10 -6 -20
-3 -24 3 -3 2 -6 -4 -6 -9 0 -24 -43 -27 -75 -1 -5 -3 -12 -6 -15 -8 -7 -35
-93 -33 -107 0 -7 -3 -13 -8 -13 -5 0 -9 -9 -9 -20 0 -11 -4 -20 -10 -20 -5 0
-9 -3 -8 -7 1 -5 -4 -28 -12 -53 -7 -25 -13 -51 -13 -57 0 -7 -4 -13 -9 -13
-4 0 -7 -3 -6 -7 1 -9 -9 -40 -23 -66 -5 -10 -7 -22 -4 -27 4 -6 2 -10 -3 -10
-8 0 -31 -73 -34 -107 -1 -7 -5 -13 -10 -13 -4 0 -8 -8 -8 -18 0 -11 -7 -32
-14 -48 -8 -16 -17 -43 -21 -61 l-5 -32 708 0 709 1 -10 49 c-5 27 -14 49 -18
49 -5 0 -9 6 -9 14 0 8 -5 27 -12 43 -6 15 -12 30 -13 33 -1 3 -9 32 -19 65
-10 33 -22 64 -27 69 -5 6 -9 20 -9 33 0 13 -5 23 -11 23 -6 0 -9 6 -6 13 3 7
-1 21 -9 32 -8 10 -14 28 -14 40 0 12 -3 25 -7 29 -5 4 -8 11 -9 14 -1 7 -6
21 -29 82 -16 41 -29 92 -27 103 1 4 -3 7 -9 7 -5 0 -8 4 -4 9 3 5 1 12 -5 16
-5 3 -10 16 -10 29 0 12 -4 26 -9 31 -5 6 -14 28 -21 50 -7 22 -18 46 -24 54
-8 11 -8 13 1 8 6 -4 3 11 -8 32 -10 22 -19 47 -19 55 0 8 -4 17 -9 20 -5 4
-12 24 -16 46 -4 22 -10 40 -15 40 -5 0 -7 8 -6 18 2 9 -1 20 -6 23 -5 3 -10
16 -11 27 -1 12 -4 22 -8 22 -4 0 -10 7 -13 16 -4 9 -2 13 5 8 6 -3 3 5 -6 19
-9 14 -16 28 -16 31 4 25 -1 46 -8 42 -5 -3 -12 11 -16 32 -4 20 -11 42 -17
49 -5 7 -6 18 -2 24 5 8 3 9 -5 5 -8 -5 -11 -3 -10 5 3 18 -11 71 -23 86 -6 7
-8 20 -4 28 3 9 2 13 -4 10 -6 -3 -10 3 -10 14 0 11 -4 22 -9 26 -5 3 -15 30
-22 60 -7 30 -16 55 -21 55 -4 0 -7 3 -6 8 2 10 -25 96 -33 102 -7 5 -31 99
-29 114 1 5 -3 12 -10 16 -6 4 -12 17 -13 28 -1 12 -4 22 -8 22 -4 0 -10 7
-13 16 -3 9 -2 12 5 8 6 -3 5 3 -3 15 -15 25 -27 27 -29 6z"/>
</g>
</svg>
