<svg id="Layer_1" data-name="Layer 1" xmlns="http://www.w3.org/2000/svg" xmlns:xlink="http://www.w3.org/1999/xlink" viewBox="0 0 1500 1500"><defs><style>.cls-1{fill:none;}.cls-2{fill:#fffef6;stroke:#000;stroke-miterlimit:10;}.cls-3{clip-path:url(#clip-path);}.cls-4{fill:#000511;}</style><clipPath id="clip-path"><rect class="cls-1" x="35.59" y="-64.78" width="1428.83" height="1629.57"/></clipPath></defs><title>ss-design-</title><rect class="cls-2" x="-2.5" y="-2.5" width="1505" height="1505"/><g class="cls-3"><path class="cls-4" d="M1448.41,842.54h16v-23.3h-16V795.32h-28.27v23.92H1411v23.3h9.17v56.39h28.27V842.54Zm-192-1.4c11.49,0,18.18,8.23,18.18,18,0,10.1-6.68,17.86-18.18,17.86s-18.17-7.77-18.17-17.86c0-9.79,6.68-18,18.17-18m0-24.54c-25.63,0-48,15.38-48,42.56s22.52,42.41,48,42.41c25.63,0,48-15.38,48-42.41,0-27.18-22.37-42.56-48-42.56M1011.69,770V898.93H1040V858.08c0-9.32,3.57-19,14.76-19,11.34,0,12.74,9.63,12.74,19v40.85h28.27V850.15c0-20.19-9.79-33.55-30-33.55-11,0-19,4-25.47,12.74H1040V770h-28.27ZM895,821.73c-8.23-3.73-17.24-5.13-26.25-5.13-17.4,0-35.11,8.7-35.11,28.27,0,14.29,8.85,18.64,17.71,21S869,868.48,869,874.7c0,4.35-5.28,6.06-8.85,6.06-7,0-16.62-4-22.37-8.08l-10.25,19.73a61.79,61.79,0,0,0,32.15,9.16c18.49,0,37.59-8.7,37.59-29.67,0-14.76-9.94-21-23.14-23.61-3.88-.78-12.74-1.55-12.74-7,0-4,5.59-5.44,8.85-5.44a35.12,35.12,0,0,1,15.22,3.88ZM673.3,841.14c11.49,0,18.17,8.23,18.17,18,0,10.1-6.68,17.86-18.17,17.86s-18.18-7.77-18.18-17.86c0-9.79,6.68-18,18.18-18m-17.24-21.9H627.79V938.7h28.27V891.32c6.06,7,15.53,10.25,24.7,10.25,23.61,0,39.92-19.26,39.92-42.25,0-22.84-16.46-42.72-40.23-42.72-9.32,0-19,3.73-24.08,11.65h-0.31v-9Zm-146.34,0H481.45V827c-5.9-7-15.53-10.41-24.7-10.41-23.61,0-39.92,19.57-39.92,42.41s16.62,42.56,40.23,42.56c9.32,0,19.11-3.57,24.08-11.49h0.31v8.85h28.27V819.24Zm-45.51,21.9c11.49,0,18.17,8.23,18.17,18,0,10.1-6.68,17.86-18.17,17.86S446,869.26,446,859.16c0-9.79,6.68-18,18.17-18M248,819.24H219.72v79.69H248V857.61c0-9.94,3.26-18.49,14.76-18.49,14,0,12.74,13.36,12.74,21v38.83h28.27V849.69c0-19.57-8.54-33.09-30-33.09-11,0-19,3.26-25.47,12.89H248V819.24Zm-145,2.48c-8.23-3.73-17.24-5.13-26.25-5.13-17.4,0-35.11,8.7-35.11,28.27,0,14.29,8.85,18.64,17.71,21s17.71,2.64,17.71,8.85c0,4.35-5.28,6.06-8.85,6.06-7,0-16.62-4-22.37-8.08L35.59,892.41a61.79,61.79,0,0,0,32.15,9.16c18.49,0,37.59-8.7,37.59-29.67,0-14.76-9.94-21-23.14-23.61-3.88-.78-12.74-1.55-12.74-7,0-4,5.59-5.44,8.85-5.44a35.11,35.11,0,0,1,15.22,3.88Z"/><path class="cls-4" d="M1448.41,7.76h16v-23.3h-16V-39.46h-28.27v23.92H1411V7.76h9.17V64.15h28.27V7.76Zm-192-1.4c11.49,0,18.18,8.23,18.18,18,0,10.1-6.68,17.86-18.18,17.86s-18.17-7.77-18.17-17.86c0-9.79,6.68-18,18.17-18m0-24.54c-25.63,0-48,15.38-48,42.56s22.52,42.41,48,42.41c25.63,0,48-15.38,48-42.41,0-27.18-22.37-42.56-48-42.56m-244.72-46.6V64.15H1040V23.29c0-9.32,3.57-19,14.76-19,11.34,0,12.74,9.63,12.74,19V64.15h28.27V15.37c0-20.19-9.79-33.55-30-33.55-11,0-19,4-25.47,12.74H1040V-64.78h-28.27ZM895-13.06c-8.23-3.73-17.24-5.13-26.25-5.13-17.4,0-35.11,8.7-35.11,28.27,0,14.29,8.85,18.64,17.71,21S869,33.7,869,39.91c0,4.35-5.28,6.06-8.85,6.06-7,0-16.62-4-22.37-8.08L827.55,57.62a61.79,61.79,0,0,0,32.15,9.16c18.49,0,37.59-8.7,37.59-29.67,0-14.76-9.94-21-23.14-23.61-3.88-.78-12.74-1.55-12.74-7,0-4,5.59-5.44,8.85-5.44A35.12,35.12,0,0,1,885.49,5ZM673.3,6.36c11.49,0,18.17,8.23,18.17,18,0,10.1-6.68,17.86-18.17,17.86s-18.18-7.77-18.18-17.86c0-9.79,6.68-18,18.18-18m-17.24-21.9H627.79V103.91h28.27V56.53c6.06,7,15.53,10.25,24.7,10.25,23.61,0,39.92-19.26,39.92-42.25,0-22.83-16.46-42.72-40.23-42.72-9.32,0-19,3.73-24.08,11.65h-0.31v-9Zm-146.34,0H481.45v7.77c-5.9-7-15.53-10.41-24.7-10.41-23.61,0-39.92,19.57-39.92,42.41s16.62,42.56,40.23,42.56c9.32,0,19.11-3.57,24.08-11.49h0.31v8.85h28.27V-15.54ZM464.21,6.36c11.49,0,18.17,8.23,18.17,18,0,10.1-6.68,17.86-18.17,17.86S446,34.48,446,24.38c0-9.79,6.68-18,18.17-18M248-15.54H219.72V64.15H248V22.83c0-9.94,3.26-18.48,14.76-18.48,14,0,12.74,13.36,12.74,21V64.15h28.27V14.9c0-19.57-8.54-33.09-30-33.09-11,0-19,3.26-25.47,12.89H248V-15.54ZM103-13.06c-8.23-3.73-17.24-5.13-26.25-5.13-17.4,0-35.11,8.7-35.11,28.27,0,14.29,8.85,18.64,17.71,21s17.71,2.64,17.71,8.85c0,4.35-5.28,6.06-8.85,6.06-7,0-16.62-4-22.37-8.08L35.59,57.62a61.79,61.79,0,0,0,32.15,9.16c18.49,0,37.59-8.7,37.59-29.67,0-14.76-9.94-21-23.14-23.61-3.88-.78-12.74-1.55-12.74-7,0-4,5.59-5.44,8.85-5.44A35.11,35.11,0,0,1,93.53,5Z"/><path class="cls-4" d="M1448.41,1051.24h16v-23.3h-16V1004h-28.27v23.92H1411v23.3h9.17v56.39h28.27v-56.39Zm-192-1.4c11.49,0,18.18,8.23,18.18,18,0,10.1-6.68,17.86-18.18,17.86s-18.17-7.77-18.17-17.86c0-9.79,6.68-18,18.17-18m0-24.54c-25.63,0-48,15.38-48,42.56s22.52,42.41,48,42.41c25.63,0,48-15.38,48-42.41,0-27.18-22.37-42.56-48-42.56m-244.72-46.6v128.93H1040v-40.85c0-9.32,3.57-19,14.76-19,11.34,0,12.74,9.63,12.74,19v40.85h28.27v-48.78c0-20.19-9.79-33.55-30-33.55-11,0-19,4-25.47,12.74H1040V978.7h-28.27ZM895,1030.42c-8.23-3.73-17.24-5.13-26.25-5.13-17.4,0-35.11,8.7-35.11,28.27,0,14.29,8.85,18.64,17.71,21s17.71,2.64,17.71,8.85c0,4.35-5.28,6.06-8.85,6.06-7,0-16.62-4-22.37-8.08l-10.25,19.73a61.79,61.79,0,0,0,32.15,9.17c18.49,0,37.59-8.7,37.59-29.67,0-14.76-9.94-21-23.14-23.61-3.88-.78-12.74-1.55-12.74-7,0-4,5.59-5.44,8.85-5.44a35.12,35.12,0,0,1,15.22,3.88ZM673.3,1049.84c11.49,0,18.17,8.23,18.17,18,0,10.1-6.68,17.86-18.17,17.86s-18.18-7.77-18.18-17.86c0-9.79,6.68-18,18.18-18m-17.24-21.9H627.79v119.45h28.27V1100c6.06,7,15.53,10.25,24.7,10.25,23.61,0,39.92-19.26,39.92-42.25,0-22.83-16.46-42.72-40.23-42.72-9.32,0-19,3.73-24.08,11.65h-0.31v-9Zm-146.34,0H481.45v7.77c-5.9-7-15.53-10.41-24.7-10.41-23.61,0-39.92,19.57-39.92,42.41s16.62,42.56,40.23,42.56c9.32,0,19.11-3.57,24.08-11.49h0.31v8.85h28.27v-79.69Zm-45.51,21.9c11.49,0,18.17,8.23,18.17,18,0,10.1-6.68,17.86-18.17,17.86S446,1078,446,1067.86c0-9.79,6.68-18,18.17-18M248,1027.94H219.72v79.69H248v-41.32c0-9.94,3.26-18.49,14.76-18.49,14,0,12.74,13.36,12.74,21v38.83h28.27v-49.24c0-19.57-8.54-33.09-30-33.09-11,0-19,3.26-25.47,12.89H248v-10.25Zm-145,2.48c-8.23-3.73-17.24-5.13-26.25-5.13-17.4,0-35.11,8.7-35.11,28.27,0,14.29,8.85,18.64,17.71,21s17.71,2.64,17.71,8.85c0,4.35-5.28,6.06-8.85,6.06-7,0-16.62-4-22.37-8.08L35.59,1101.1a61.79,61.79,0,0,0,32.15,9.17c18.49,0,37.59-8.7,37.59-29.67,0-14.76-9.94-21-23.14-23.61-3.88-.78-12.74-1.55-12.74-7,0-4,5.59-5.44,8.85-5.44a35.11,35.11,0,0,1,15.22,3.88Z"/><path class="cls-4" d="M1448.41,216.45h16v-23.3h-16V169.23h-28.27v23.92H1411v23.3h9.17v56.39h28.27V216.45Zm-192-1.4c11.49,0,18.18,8.23,18.18,18,0,10.1-6.68,17.86-18.18,17.86s-18.17-7.77-18.17-17.86c0-9.79,6.68-18,18.17-18m0-24.54c-25.63,0-48,15.38-48,42.56s22.52,42.41,48,42.41c25.63,0,48-15.38,48-42.41,0-27.18-22.37-42.56-48-42.56m-244.72-46.6V272.84H1040V232c0-9.32,3.57-19,14.76-19,11.34,0,12.74,9.63,12.74,19v40.85h28.27V224.07c0-20.19-9.79-33.55-30-33.55-11,0-19,4-25.47,12.74H1040V143.91h-28.27ZM895,195.64c-8.23-3.73-17.24-5.13-26.25-5.13-17.4,0-35.11,8.7-35.11,28.27,0,14.29,8.85,18.64,17.71,21S869,242.4,869,248.61c0,4.35-5.28,6.06-8.85,6.06-7,0-16.62-4-22.37-8.08l-10.25,19.73a61.79,61.79,0,0,0,32.15,9.16c18.49,0,37.59-8.7,37.59-29.67,0-14.76-9.94-21-23.14-23.61-3.88-.78-12.74-1.55-12.74-7,0-4,5.59-5.44,8.85-5.44a35.12,35.12,0,0,1,15.22,3.88ZM673.3,215.06c11.49,0,18.17,8.23,18.17,18,0,10.1-6.68,17.86-18.17,17.86s-18.18-7.77-18.18-17.86c0-9.79,6.68-18,18.18-18m-17.24-21.9H627.79V312.61h28.27V265.23c6.06,7,15.53,10.25,24.7,10.25,23.61,0,39.92-19.26,39.92-42.25,0-22.83-16.46-42.72-40.23-42.72-9.32,0-19,3.73-24.08,11.65h-0.31v-9Zm-146.34,0H481.45v7.77c-5.9-7-15.53-10.41-24.7-10.41-23.61,0-39.92,19.57-39.92,42.41s16.62,42.56,40.23,42.56c9.32,0,19.11-3.57,24.08-11.49h0.31v8.85h28.27V193.15Zm-45.51,21.9c11.49,0,18.17,8.23,18.17,18,0,10.1-6.68,17.86-18.17,17.86S446,243.17,446,233.08c0-9.79,6.68-18,18.17-18M248,193.15H219.72v79.69H248V231.52c0-9.94,3.26-18.48,14.76-18.48,14,0,12.74,13.36,12.74,21v38.83h28.27V223.6c0-19.57-8.54-33.09-30-33.09-11,0-19,3.26-25.47,12.89H248V193.15Zm-145,2.48c-8.23-3.73-17.24-5.13-26.25-5.13-17.4,0-35.11,8.7-35.11,28.27,0,14.29,8.85,18.64,17.71,21s17.71,2.64,17.71,8.85c0,4.35-5.28,6.06-8.85,6.06-7,0-16.62-4-22.37-8.08L35.59,266.32a61.79,61.79,0,0,0,32.15,9.16c18.49,0,37.59-8.7,37.59-29.67,0-14.76-9.94-21-23.14-23.61-3.88-.78-12.74-1.55-12.74-7,0-4,5.59-5.44,8.85-5.44a35.11,35.11,0,0,1,15.22,3.88Z"/><path class="cls-4" d="M1448.41,1259.93h16v-23.3h-16v-23.92h-28.27v23.92H1411v23.3h9.17v56.39h28.27v-56.39Zm-192-1.4c11.49,0,18.18,8.23,18.18,18,0,10.1-6.68,17.86-18.18,17.86s-18.17-7.77-18.17-17.86c0-9.79,6.68-18,18.17-18m0-24.54c-25.63,0-48,15.38-48,42.56s22.52,42.41,48,42.41c25.63,0,48-15.38,48-42.41,0-27.18-22.37-42.56-48-42.56m-244.72-46.6v128.93H1040v-40.85c0-9.32,3.57-19,14.76-19,11.34,0,12.74,9.63,12.74,19v40.85h28.27v-48.78c0-20.19-9.79-33.55-30-33.55-11,0-19,4-25.47,12.74H1040v-59.34h-28.27ZM895,1239.12c-8.23-3.73-17.24-5.13-26.25-5.13-17.4,0-35.11,8.7-35.11,28.27,0,14.29,8.85,18.64,17.71,21s17.71,2.64,17.71,8.85c0,4.35-5.28,6.06-8.85,6.06-7,0-16.62-4-22.37-8.08l-10.25,19.73a61.79,61.79,0,0,0,32.15,9.16c18.49,0,37.59-8.7,37.59-29.67,0-14.76-9.94-21-23.14-23.61-3.88-.78-12.74-1.55-12.74-7,0-4,5.59-5.44,8.85-5.44a35.12,35.12,0,0,1,15.22,3.88ZM673.3,1258.54c11.49,0,18.17,8.23,18.17,18,0,10.1-6.68,17.86-18.17,17.86s-18.18-7.77-18.18-17.86c0-9.79,6.68-18,18.18-18m-17.24-21.9H627.79v119.45h28.27v-47.38c6.06,7,15.53,10.25,24.7,10.25,23.61,0,39.92-19.26,39.92-42.25,0-22.83-16.46-42.72-40.23-42.72-9.32,0-19,3.73-24.08,11.65h-0.31v-9Zm-146.34,0H481.45v7.77c-5.9-7-15.53-10.41-24.7-10.41-23.61,0-39.92,19.57-39.92,42.41S433.45,1319,457.06,1319c9.32,0,19.11-3.57,24.08-11.49h0.31v8.85h28.27v-79.69Zm-45.51,21.9c11.49,0,18.17,8.23,18.17,18,0,10.1-6.68,17.86-18.17,17.86S446,1286.65,446,1276.56c0-9.79,6.68-18,18.17-18M248,1236.63H219.72v79.69H248V1275c0-9.94,3.26-18.49,14.76-18.49,14,0,12.74,13.36,12.74,21v38.83h28.27v-49.24c0-19.57-8.54-33.09-30-33.09-11,0-19,3.26-25.47,12.89H248v-10.25Zm-145,2.48c-8.23-3.73-17.24-5.13-26.25-5.13-17.4,0-35.11,8.7-35.11,28.27,0,14.29,8.85,18.64,17.71,21s17.71,2.64,17.71,8.85c0,4.35-5.28,6.06-8.85,6.06-7,0-16.62-4-22.37-8.08L35.59,1309.8A61.79,61.79,0,0,0,67.74,1319c18.49,0,37.59-8.7,37.59-29.67,0-14.76-9.94-21-23.14-23.61-3.88-.78-12.74-1.55-12.74-7,0-4,5.59-5.44,8.85-5.44a35.11,35.11,0,0,1,15.22,3.88Z"/><path class="cls-4" d="M1448.41,425.15h16v-23.3h-16V377.93h-28.27v23.92H1411v23.3h9.17v56.39h28.27V425.15Zm-192-1.4c11.49,0,18.18,8.23,18.18,18,0,10.1-6.68,17.86-18.18,17.86s-18.17-7.77-18.17-17.86c0-9.79,6.68-18,18.17-18m0-24.54c-25.63,0-48,15.38-48,42.56s22.52,42.41,48,42.41c25.63,0,48-15.38,48-42.41,0-27.18-22.37-42.56-48-42.56m-244.72-46.6V481.54H1040V440.68c0-9.32,3.57-19,14.76-19,11.34,0,12.74,9.63,12.74,19v40.85h28.27V432.76c0-20.19-9.79-33.55-30-33.55-11,0-19,4-25.47,12.74H1040V352.61h-28.27ZM895,404.34c-8.23-3.73-17.24-5.13-26.25-5.13-17.4,0-35.11,8.7-35.11,28.27,0,14.29,8.85,18.64,17.71,21S869,451.09,869,457.31c0,4.35-5.28,6.06-8.85,6.06-7,0-16.62-4-22.37-8.08L827.55,475a61.79,61.79,0,0,0,32.15,9.16c18.49,0,37.59-8.7,37.59-29.67,0-14.76-9.94-21-23.14-23.61-3.88-.78-12.74-1.55-12.74-7,0-4,5.59-5.44,8.85-5.44a35.12,35.12,0,0,1,15.22,3.88ZM673.3,423.75c11.49,0,18.17,8.23,18.17,18,0,10.1-6.68,17.86-18.17,17.86s-18.18-7.77-18.18-17.86c0-9.79,6.68-18,18.18-18m-17.24-21.9H627.79V521.3h28.27V473.93c6.06,7,15.53,10.25,24.7,10.25,23.61,0,39.92-19.26,39.92-42.25,0-22.83-16.46-42.72-40.23-42.72-9.32,0-19,3.73-24.08,11.65h-0.31v-9Zm-146.34,0H481.45v7.77c-5.9-7-15.53-10.41-24.7-10.41-23.61,0-39.92,19.57-39.92,42.41s16.62,42.56,40.23,42.56c9.32,0,19.11-3.57,24.08-11.49h0.31v8.85h28.27V401.85Zm-45.51,21.9c11.49,0,18.17,8.23,18.17,18,0,10.1-6.68,17.86-18.17,17.86S446,451.87,446,441.77c0-9.79,6.68-18,18.17-18M248,401.85H219.72v79.69H248V440.22c0-9.94,3.26-18.48,14.76-18.48,14,0,12.74,13.36,12.74,21v38.83h28.27V432.3c0-19.57-8.54-33.09-30-33.09-11,0-19,3.26-25.47,12.89H248V401.85Zm-145,2.48c-8.23-3.73-17.24-5.13-26.25-5.13-17.4,0-35.11,8.7-35.11,28.27,0,14.29,8.85,18.64,17.71,21s17.71,2.64,17.71,8.85c0,4.35-5.28,6.06-8.85,6.06-7,0-16.62-4-22.37-8.08L35.59,475a61.79,61.79,0,0,0,32.15,9.16c18.49,0,37.59-8.7,37.59-29.67,0-14.76-9.94-21-23.14-23.61-3.88-.78-12.74-1.55-12.74-7,0-4,5.59-5.44,8.85-5.44a35.11,35.11,0,0,1,15.22,3.88Z"/><path class="cls-4" d="M1448.41,1468.63h16v-23.3h-16v-23.92h-28.27v23.92H1411v23.3h9.17V1525h28.27v-56.39Zm-192-1.4c11.49,0,18.18,8.23,18.18,18,0,10.1-6.68,17.86-18.18,17.86s-18.17-7.77-18.17-17.86c0-9.79,6.68-18,18.17-18m0-24.54c-25.63,0-48,15.38-48,42.56s22.52,42.41,48,42.41c25.63,0,48-15.38,48-42.41,0-27.18-22.37-42.56-48-42.56m-244.72-46.6V1525H1040v-40.85c0-9.32,3.57-19,14.76-19,11.34,0,12.74,9.63,12.74,19V1525h28.27v-48.78c0-20.19-9.79-33.55-30-33.55-11,0-19,4-25.47,12.74H1040v-59.34h-28.27ZM895,1447.82c-8.23-3.73-17.24-5.13-26.25-5.13-17.4,0-35.11,8.7-35.11,28.27,0,14.29,8.85,18.64,17.71,21s17.71,2.64,17.71,8.85c0,4.35-5.28,6.06-8.85,6.06-7,0-16.62-4-22.37-8.08l-10.25,19.73a61.79,61.79,0,0,0,32.15,9.17c18.49,0,37.59-8.7,37.59-29.67,0-14.76-9.94-21-23.14-23.61-3.88-.78-12.74-1.55-12.74-7,0-4,5.59-5.44,8.85-5.44a35.12,35.12,0,0,1,15.22,3.88ZM673.3,1467.23c11.49,0,18.17,8.23,18.17,18,0,10.1-6.68,17.86-18.17,17.86s-18.18-7.77-18.18-17.86c0-9.79,6.68-18,18.18-18m-17.24-21.9H627.79v119.45h28.27v-47.38c6.06,7,15.53,10.25,24.7,10.25,23.61,0,39.92-19.26,39.92-42.25,0-22.83-16.46-42.72-40.23-42.72-9.32,0-19,3.73-24.08,11.65h-0.31v-9Zm-146.34,0H481.45v7.77c-5.9-7-15.53-10.41-24.7-10.41-23.61,0-39.92,19.57-39.92,42.41s16.62,42.56,40.23,42.56c9.32,0,19.11-3.57,24.08-11.5h0.31V1525h28.27v-79.69Zm-45.51,21.9c11.49,0,18.17,8.23,18.17,18,0,10.1-6.68,17.86-18.17,17.86S446,1495.35,446,1485.25c0-9.79,6.68-18,18.17-18M248,1445.33H219.72V1525H248V1483.7c0-9.94,3.26-18.49,14.76-18.49,14,0,12.74,13.36,12.74,21V1525h28.27v-49.24c0-19.57-8.54-33.09-30-33.09-11,0-19,3.26-25.47,12.89H248v-10.25Zm-145,2.48c-8.23-3.73-17.24-5.13-26.25-5.13-17.4,0-35.11,8.7-35.11,28.27,0,14.29,8.85,18.64,17.71,21s17.71,2.64,17.71,8.85c0,4.35-5.28,6.06-8.85,6.06-7,0-16.62-4-22.37-8.08l-10.25,19.73a61.79,61.79,0,0,0,32.15,9.17c18.49,0,37.59-8.7,37.59-29.67,0-14.76-9.94-21-23.14-23.61-3.88-.78-12.74-1.55-12.74-7,0-4,5.59-5.44,8.85-5.44a35.11,35.11,0,0,1,15.22,3.88Z"/><path class="cls-4" d="M1448.41,633.85h16v-23.3h-16V586.62h-28.27v23.92H1411v23.3h9.17v56.39h28.27V633.85Zm-192-1.4c11.49,0,18.18,8.23,18.18,18,0,10.1-6.68,17.86-18.18,17.86s-18.17-7.77-18.17-17.86c0-9.79,6.68-18,18.17-18m0-24.54c-25.63,0-48,15.38-48,42.56s22.52,42.41,48,42.41c25.63,0,48-15.38,48-42.41,0-27.18-22.37-42.56-48-42.56m-244.72-46.6V690.23H1040V649.38c0-9.32,3.57-19,14.76-19,11.34,0,12.74,9.63,12.74,19v40.85h28.27V641.46c0-20.19-9.79-33.55-30-33.55-11,0-19,4-25.47,12.74H1040V561.3h-28.27ZM895,613c-8.23-3.73-17.24-5.13-26.25-5.13-17.4,0-35.11,8.7-35.11,28.27,0,14.29,8.85,18.64,17.71,21S869,659.79,869,666c0,4.35-5.28,6.06-8.85,6.06-7,0-16.62-4-22.37-8.08l-10.25,19.73a61.79,61.79,0,0,0,32.15,9.16c18.49,0,37.59-8.7,37.59-29.67,0-14.76-9.94-21-23.14-23.61-3.88-.78-12.74-1.55-12.74-7,0-4,5.59-5.44,8.85-5.44a35.12,35.12,0,0,1,15.22,3.88ZM673.3,632.45c11.49,0,18.17,8.23,18.17,18,0,10.1-6.68,17.86-18.17,17.86s-18.18-7.77-18.18-17.86c0-9.79,6.68-18,18.18-18m-17.24-21.9H627.79V730h28.27V682.62c6.06,7,15.53,10.25,24.7,10.25,23.61,0,39.92-19.26,39.92-42.25,0-22.84-16.46-42.72-40.23-42.72-9.32,0-19,3.73-24.08,11.65h-0.31v-9Zm-146.34,0H481.45v7.77c-5.9-7-15.53-10.41-24.7-10.41-23.61,0-39.92,19.57-39.92,42.41s16.62,42.56,40.23,42.56c9.32,0,19.11-3.57,24.08-11.49h0.31v8.85h28.27V610.55Zm-45.51,21.9c11.49,0,18.17,8.23,18.17,18,0,10.1-6.68,17.86-18.17,17.86S446,660.56,446,650.47c0-9.79,6.68-18,18.17-18M248,610.55H219.72v79.69H248V648.91c0-9.94,3.26-18.49,14.76-18.49,14,0,12.74,13.36,12.74,21v38.83h28.27V641c0-19.57-8.54-33.09-30-33.09-11,0-19,3.26-25.47,12.89H248V610.55ZM103,613c-8.23-3.73-17.24-5.13-26.25-5.13-17.4,0-35.11,8.7-35.11,28.27,0,14.29,8.85,18.64,17.71,21s17.71,2.64,17.71,8.85c0,4.35-5.28,6.06-8.85,6.06-7,0-16.62-4-22.37-8.08L35.59,683.71a61.79,61.79,0,0,0,32.15,9.16c18.49,0,37.59-8.7,37.59-29.67,0-14.76-9.94-21-23.14-23.61-3.88-.78-12.74-1.55-12.74-7,0-4,5.59-5.44,8.85-5.44a35.11,35.11,0,0,1,15.22,3.88Z"/></g></svg>