<svg id="Blue_Solid" data-name="Blue Solid" xmlns="http://www.w3.org/2000/svg" viewBox="0 0 3000 3000"><defs><style>.cls-1{fill:#fffff7;}.cls-2{fill:#000e14;}</style></defs><title>ss-design-12</title><rect class="cls-1" width="3000" height="3000"/><path class="cls-2" d="M2370.42,2624.67h8.84l36.7-95.39h-8.73Zm-12.38,0h8.84l-36.81-95.39h-8.73Zm-63.89-92.51c5.53,2.76,7.74,5.64,7.74,8.73,0,3.65-3.09,7.52-7.52,11.83l3,3.54c7.18-5.64,13.37-12.82,13.37-20.89,0-4.42-1.88-9.06-6.3-13.82l-10.28,5.53v5.08Zm-21,0c5.53,2.76,7.74,5.64,7.74,8.73,0,3.65-3.09,7.52-7.52,11.83l3,3.54c7.18-5.64,13.37-12.82,13.37-20.89,0-4.42-1.88-9.06-6.3-13.82l-10.28,5.53v5.08Zm-34.26,0c5.53,2.76,7.74,5.64,7.74,8.73,0,3.65-3.09,7.52-7.52,11.83l3,3.54c7.18-5.64,13.37-12.82,13.37-20.89,0-4.42-1.88-9.06-6.3-13.82l-10.28,5.53v5.08Zm-21,0c5.53,2.76,7.74,5.64,7.74,8.73,0,3.65-3.09,7.52-7.52,11.83l3,3.54c7.18-5.64,13.37-12.82,13.37-20.89,0-4.42-1.88-9.06-6.3-13.82l-10.28,5.53v5.08Zm-34.26,0c5.53,2.76,7.74,5.64,7.74,8.73,0,3.65-3.09,7.52-7.52,11.83l3,3.54c7.18-5.64,13.37-12.82,13.37-20.89,0-4.42-1.88-9.06-6.3-13.82l-10.28,5.53v5.08Zm-34.26,0c5.53,2.76,7.74,5.64,7.74,8.73,0,3.65-3.09,7.52-7.52,11.83l3,3.54c7.18-5.64,13.37-12.82,13.37-20.89,0-4.42-1.88-9.06-6.3-13.82l-10.28,5.53v5.08Zm-69.08,46.53h21.33V2603h8.29v-24.32h21v-7.85h-21V2548h-8.29v22.88h-21.33v7.85Zm-67.42,10.17h48.41v-7.74h-48.41v7.74Zm0-19.34h48.41v-7.74h-48.41v7.74Zm-71.07,44.1H1997v-6.52h-55.27v6.52Zm-46.64-34.38h29.4v-8.84h-29.4v8.84Zm-46.53,42,4.31,2.32s21.55-19.45,21.55-50.4a69.59,69.59,0,0,0-18.79-47.09l-4.42,2.43s12,18.24,12,44.65c0,29-14.7,48.08-14.7,48.08m-40.45-48.08c0,30.95,22.11,50.4,22.11,50.4l4.31-2.32s-15.26-19.12-15.26-48.08a88.23,88.23,0,0,1,12.6-45.21l-4.42-1.88s-19.34,18-19.34,47.09m-38.91-24.65a9.15,9.15,0,0,0,3.32,0l13.6-2.21c2.65-.44,1.22-5.19-0.11-7.52s-4.75-5.86-6.41-3.87l-8.73,10.72a7.87,7.87,0,0,0-1.66,2.87m-17.69,17.8,8.73-10.72a9.12,9.12,0,0,0,1.66-2.87,8.91,8.91,0,0,0-3.32,0l-13.6,2.21c-2.65.44-1.22,5.19,0.11,7.52s4.75,5.86,6.41,3.87m28.07,0c1.66,2,5.08-1.55,6.41-3.87s2.76-7.07.22-7.52l-13.71-2.21a8.91,8.91,0,0,0-3.32,0,9.12,9.12,0,0,0,1.66,2.87Zm-34.71-20,13.71,2.21a9.15,9.15,0,0,0,3.32,0,7.87,7.87,0,0,0-1.66-2.87l-8.73-10.72c-1.66-2-5.08,1.55-6.41,3.87s-2.76,7.07-.22,7.52m20.67,28c2.65,0,7.52-1.22,6.63-3.65l-5-12.93a8.19,8.19,0,0,0-1.66-2.87,9.84,9.84,0,0,0-1.66,2.87l-5,12.93c-0.88,2.43,4,3.65,6.63,3.65m-6.63-43.66,5,12.93a9.84,9.84,0,0,0,1.66,2.87,8.19,8.19,0,0,0,1.66-2.87l5-12.93c0.88-2.43-4-3.65-6.63-3.65s-7.52,1.22-6.63,3.65m-80.58,11.16c0-4.31,1.66-9,5.86-9,4.75,0,7,5.08,7,9.73,0,7.63-2.21,12.27-7.3,16.47-3.43-6.3-5.53-12.27-5.53-17.24m6.3,55.82c-9,0-16.69-4.42-16.69-15.92a13.7,13.7,0,0,1,5.31-11.27,98.91,98.91,0,0,0,21.89,24.32,21.68,21.68,0,0,1-10.5,2.87m-30.18-11.72c0,13.37,13.37,18.46,25.31,18.46a34.11,34.11,0,0,0,20-6.08c8,5.53,16.58,9.4,24.65,10.28l1.55-2.87c-3.43-1.66-10.39-7.52-18-15.36,6-7.52,9.62-16.8,12.16-25.09,1.33-4.2,2.21-8.18,3.87-10.83l-0.55-1.66h-16.91V2556c4.86,0.55,7.18,2.54,7.18,7.3,0,6.19-3.32,15.81-9.28,23.21a165.15,165.15,0,0,1-18.13-23.32c7.52-5.08,17.24-12.82,17.24-21.22,0-9.51-8.18-14-18.79-14-13.93,0-20.34,9-20.34,17.13,0,6.3,2.32,13.48,6.19,20.67-10.28,6.41-16.14,12.6-16.14,20.12m-73.06-10.5h8.73l18.68-37.58,18.68,37.58h9L1612.85,2528h-7.74Zm-45.54,11.5c0-5.31,4.2-10.17,9.06-10.17s9.06,4.86,9.06,10.17-4.2,10.17-9.06,10.17-9.06-4.86-9.06-10.17m-9.06,0c0,9.62,8.18,17.46,18.13,17.46s18.13-7.85,18.13-17.46-8.18-17.35-18.13-17.35-18.13,7.74-18.13,17.35M1495.46,2603h7.07l49.85-71.73-4.86-3.21Zm-0.44-56.37c0-5.31,4.2-10.17,9.06-10.17s9.06,4.86,9.06,10.17-4.2,10.17-9.06,10.17-9.06-4.86-9.06-10.17m-9.06,0c0,9.62,8.18,17.46,18.13,17.46s18.13-7.85,18.13-17.46-8.18-17.35-18.13-17.35S1486,2537,1486,2546.63m-48.19,7c0-4,2.87-6.85,7.63-7.63l-0.66,16.36c-4.09-2.21-7-4.75-7-8.73m19,37.14c0,4.64-3.87,7.18-8.51,7.85l0.77-17.13c4.42,2.43,7.74,5.08,7.74,9.28m-31.61,3.32c0,6.41,9.62,9.28,17.91,9.62l-0.33,9.17h5l0.33-9.17c11.72-.88,20.45-7.18,20.45-18.57,0-12.16-10.17-16.47-18.79-20.45l0.66-18.9c4.75,0.44,10.06,3,9.73,13.15H1464l3.21-16.47a135.83,135.83,0,0,0-16.58-1.88l0.44-9h-5l-0.44,9.17c-13.15,1.22-19.56,9-19.56,18.24,0,11.27,9.62,15.92,18,20l-0.77,19.56c-5.53-.88-11.27-4.75-11.27-15.92h-3.87c-2.54,7.85-3,9.95-3,11.38m-58.69-26.2h16.8l-3.09,15h-16.8Zm7.52,45h7.07l4.75-23.32h16.25l1.11-6.63h-16l3.09-15h16.14l1.11-6.63h-15.92l4.53-22.11h-7l-4.53,22.11h-16.8l4.53-22.11h-7l-4.53,22.11H1346l-1.11,6.63h14.59l-3.09,15h-14.7l-1.11,6.63H1355l-4.75,23.32h7.07l4.75-23.32h16.69Zm-138.83-30.4c0,21.55,16.36,38.58,38.47,39.46l1.11-5c-18.68-2.1-28.3-19.12-28.3-36.92,0-19.23,11.27-37.69,34.15-37.69,20.12,0,30.84,14.37,30.84,34.82,0,16.14-6.52,20.67-10.28,20.67-2.32,0-3.65-1.66-3.65-5.19V2563a44.84,44.84,0,0,1,1.21-9.28,78.24,78.24,0,0,0-12.38-1.33c-17.91,0-31.5,13.48-31.5,32.28,0,15.47,9.17,19.67,15.26,19.67,5.86,0,10.5-4.2,13.71-9.95V2598a26.6,26.6,0,0,1-.88,6l0.22,0.44,16.69-1.66c16.69-1.66,22.55-17.46,22.55-29.73,0-20.89-17.13-36.36-39.57-36.36-26.09,0-47.64,21.22-47.64,45.76m34.71-.77c0-22.22,13.48-24.1,13.48-24.1v33.82q-4.31,3.32-7.3,3.32c-3.53,0-6.19-3.21-6.19-13m-86.66-54.16,17.35,19.45,4.42-2.32-8.4-18.9-13.37-1.22v3Zm-86.88,56.92h8c0-4.09,1.22-11.05,7.52-11.05,8.51,0,9.28,11.5,22,11.5,9,0,15.14-5.64,15.14-18.68h-8c0,4.09-1.22,11.05-7.52,11.05-8.51,0-9.28-11.5-22-11.5-9,0-15.14,5.64-15.14,18.68m-42.88,11.38a8.57,8.57,0,1,0,8.51-8.62,8.59,8.59,0,0,0-8.51,8.62m6.63-15.47h4.09l5.64-40.79c1.11-9,2.76-13,2.76-13l-0.66-.88s-9.06,2.65-18.9,4.53Zm-83.12-3c0,13.48,8.62,27,25.75,27,18,0,27.19-15,27.19-28.85,0-13.37-8.62-26.31-25.75-26.31-18,0-27.19,14.48-27.19,28.19m26.42,19.9c-9.06,0-12.27-9.95-12.27-20.23s3.09-20.78,12.38-20.78c9.06,0,12.27,10.28,12.27,20.67s-3.09,20.34-12.38,20.34m-90.08,23.32L914,2625c28.52,0,42.33-22.55,42.33-44.21,0-16.8-8.4-31.61-25.2-31.61-16,0-24.32,13.6-24.32,26.09,0,12.82,8.84,21.66,19.45,21.66a18.57,18.57,0,0,0,7.74-1.55l-0.88-4.53c-9.95,1.44-12-14.26-12-21.11,0-8.29,2.76-15.7,8.18-15.7,7.52,0,11.94,13.48,11.94,27.52,0,18.46-7.74,35.92-27.85,39m-59.57-79.8a7.6,7.6,0,0,1,8-8c5,0,8.62,3.76,8.62,11.27,0,5.08-1.66,10.28-5.08,13.71-6.19-5.53-11.5-10.83-11.5-17M850,2584.1c0-8.18,3.54-11.83,7.41-15,7.41,6.3,14.37,12.38,14.37,19.79A10.55,10.55,0,0,1,861,2599.47c-6.19,0-11.05-5.86-11.05-15.36m-12.27,2.65c0,12.27,12.16,17.57,23.21,17.57,13.82,0,24.54-8.18,24.54-19.34,0-9.51-8.07-16.8-16-23.65,9.17-6.41,13.37-12.27,13.37-18.57,0-8.62-7.74-14.81-20.56-14.81-13.37,0-22,6.85-22,16.58,0,8.4,6.3,15,13.26,21.11-6.52,4.09-15.81,10.39-15.81,21.11m-53.5,25c-3,4.09-4.64,5.42-4.64,8.29a4.65,4.65,0,0,0,4.75,5c4.09,0,5.08-3.76,7.63-9.4L814.6,2565c1.44-3.21,6.19-11.72,6.19-11.72l-0.44-3.21a49.89,49.89,0,0,1-6.85.44H774.36l-3.87,20.78h4.86c2.54-6.63,3.76-7.41,11.16-7.41h15.7c2.21,0,5.19-.22,7.3-0.44L802.88,2578c-9.28,20.34-15.92,30-18.68,33.71m-54.6-7.41c16.36,0,24.76-13.48,24.76-26.2,0-13-9-22.11-20.12-22.11a21.32,21.32,0,0,0-7.63,1.55l0.88,4.53c9.84-1.11,12.71,14.37,12.71,21.33,0,8.62-2.87,16-8.73,16-7.74,0-12-13.48-12-27.41,0-18.79,7.74-36.59,27.85-39.68l-0.66-4.42c-28.52,0-42.33,22.88-42.33,44.65,0,16.91,8.29,31.72,25.31,31.72m-83.34,15.92,0.66,4.64s1.44,0.11,3.21.11c17.91,0,34.38-10.83,34.38-26.75,0-21.22-31.5-25.75-31.5-25.75l0.66-11.38h26.75l1.55-11.27a45.31,45.31,0,0,1-7.74.66H648.47l-1.88,34.71s23.76,2.1,23.76,16.58c0,10.28-10.17,17.46-24.1,18.46M585,2590.85l18-27.3c-0.22,2.1-.44,5.08-0.44,7.3v20H585Zm-9.28,9H602.6v18.35a33.82,33.82,0,0,1-.55,6.52l0.44,0.33,13.48-1.33a23.1,23.1,0,0,0,.55-6.08v-17.8h10.61l1.55-9H616.53v-29.51a64.86,64.86,0,0,1,.88-12l-0.55-.22-12.27,2.76-29.73,44.1Zm-56.92,20.45,0.66,4.64s1.55,0.11,3.09.11c13.37,0,35.48-8.4,35.48-25.2,0-9.95-8.18-16.58-20.89-17.8,7.18-3,18.35-8.84,18.35-18.79,0-8.29-7.52-14-16.8-14-12.16,0-19.56,10.17-19.56,10.17l2,2.76s5.53-4.53,11.61-4.53c5.31,0,7.85,3.32,7.85,7.74,0,6.85-5.86,15.7-15.7,16.58V2588a21.56,21.56,0,0,1,3.21-.22c6.85,0,14.7,2.65,14.7,13.37,0,14-13.93,18-24,19.12M458.14,2603h41l3.54-20.23h-4.86c-1.66,4.75-2.76,9.4-11.16,9.4H472.28c14.26-11.61,23.1-19.79,23.1-28.63,0-8.07-7.3-14.37-17.13-14.37-12.38,0-20.78,9.84-20.78,9.84l2.43,3.09a24.28,24.28,0,0,1,12-3.54c4.86,0,9,2.43,9,9,0,12.82-15.58,24.1-23.87,31.28Zm-54.82.55,33.38-.55,0.44-3.87L425.75,2598a30.58,30.58,0,0,0,.55-5.86v-36.36l9.84-1.22,0.44-4.09H402.76v4.31c7.85,0,9.84,1.44,9.84,6.52v30.84c0,5.08-2.21,7.07-9.28,7.07v4.31Z"/><path class="cls-2" d="M2546.95,2434.63a49.44,49.44,0,0,1,7.07-.44h49l4.64-21h-4.31c-5.64,12.16-9.06,15.25-17.46,15.25h-21.11a48.58,48.58,0,0,0,4.09-5.64l31.17-51a47,47,0,0,1,5.53-7.85l-0.44-4a49.45,49.45,0,0,1-7.07.44h-46.09l-2.87,19.12h4.31c4.31-11.38,9-13.37,16.91-13.37h17.35c-1.22,1.66-2.76,3.87-3.76,5.42l-31.5,51.18c-3.76,6.08-6.08,7.85-6.08,7.85Zm-62.67-.11,30.62-.66,0.44-3.65-9.4-1a32.57,32.57,0,0,0,.55-6v-23l19.67-31.39c3.21-5.08,6.63-6.3,6.63-6.3l-0.55-2.1h-18.79v3.32c5.64,0.88,6.19,4,4.42,6.85L2503,2395.17c-0.88-2-2.1-4.42-3.09-6.19l-12.16-20.56c-2.21-3.65-.22-8-0.22-8L2487,2360s-5.86.44-15.7,0.44h-5.86v3.32s3.21,0.55,5.86,4.86l20.34,32.94v21.66c0,4-2.76,6.63-7.41,7.18v4.09Zm-101.58-.33h23.65l0.44-4-10.06-1.33,18.46-24.54,14.15,21.77c1.88,2.76,1.22,3.87-2.87,4.42v4s16.36-.33,21.77-0.33h4.64l0.44-3.65-4.75-1-23.87-35.81,18.24-24c4.42-5.75,8.29-7.18,8.29-7.18l-0.55-2.1h-20.34v3.32c3.76,0.11,6.85,3.09,4.31,6.63l-13.48,18-12.93-20a8.93,8.93,0,0,1-.77-8L2407,2360s-9.84.44-16.47,0.44h-6.3v3.32a11.6,11.6,0,0,1,7.07,4.86l20.23,30.29-19.67,26.2a12.7,12.7,0,0,1-9.17,5.31v3.76Zm-47.42-.33,6.52,1.33,19.34-61.34c2.87-9.17,7.41-11.27,7.41-11.27l-0.55-2.1h-18.13v3.32c6.08,1.66,6.63,4.64,5.08,9.62l-13.37,41.78c-0.44-2.1-1.11-4.75-1.77-6.85l-12.93-37.69a14.51,14.51,0,0,1,.66-10.17l-0.44-.44s-9.28.44-15.81,0.44h-6.19v3.32a9.94,9.94,0,0,1,6.08,6.08l2.1,5.86L2300.9,2415a52.72,52.72,0,0,0-2-6.85l-14.15-37.47a14,14,0,0,1,.66-10.17L2285,2360s-9.28.44-15.81,0.44H2263v3.32a10.21,10.21,0,0,1,6.08,6.08l25.42,64,6.41,1.33,15.92-50.18Zm-120.92,0,5.53,1.33,25.31-61.34c3.65-9,7.41-11.27,7.41-11.27l-0.55-2.1H2233.7v3.32c6.08,1.66,7.07,4.75,5.08,9.62l-17.35,42.33c-0.55-2-1.33-4.86-2.1-6.85L2205,2370.64a13.93,13.93,0,0,1,.66-10.17l-0.44-.44s-7.52.44-16.14,0.44h-6.19v3.32a9.94,9.94,0,0,1,6.08,6.08Zm-115.17-25.53c0,20.12,16.69,27.19,31.61,27.19,17.13,0,30.62-9.28,30.62-27.63v-33.49a12.47,12.47,0,0,1,8.18-11.83l-0.55-2.1h-22.88v3.65c8.29,0.88,8.4,3.43,8.4,8.29v35.81c0,13.71-9.95,20.89-20.12,20.89s-20.45-6.63-20.45-21.66v-33c0-9.51,3.65-13.93,3.65-13.93l-0.55-.44s-3.54.44-17.46,0.44h-8.07v3.32c7.63,1.66,7.63,2.76,7.63,8.07v36.48Zm-73.39,26.2,32.28-.66,0.44-3.65-11.05-1a32.57,32.57,0,0,0,.55-6v-55.71l1.33-1.33h8.73c8.29,0,11.94,2.21,11.94,13.37h4.31l3.43-19.79a46.43,46.43,0,0,1-8,.66H2015.4a36.25,36.25,0,0,1-7.41-.66l-3.43,19.79h4.31c4.42-11.16,7.74-13.37,14.81-13.37h9.51v57c0,4-2.76,6.63-7.41,7.18v4.09Zm-86.55-10.28c0.33,8.18,13.15,11.27,23.1,11.27,14.15,0,25.64-7,25.64-21.22,0-24.54-34.15-22.55-34.15-40,0-5.86,4.64-9.62,12-9.62,9.73,0,12.93,6.52,12.71,14.92h4.31l3.65-18.35c-6-.88-13.26-2.1-19.79-2.1-17.24,0-26,9.06-26,20.89,0,23.54,34.15,23,34.15,40.23,0,6.74-6.08,9.73-12,9.73-6.85,0-16-3.54-16-18h-4.31c-3,8.62-3.32,11.05-3.32,12.27m-62.34-27.19v-29.51l1.33-1.33H1881c10.28,0,14.59,6.63,14.59,15.47,0,10.28-5.75,15.36-10.61,15.36h-8.07Zm-22.22,37.47,31.17-.66,0.44-3.65-9.95-1a28.18,28.18,0,0,0,.55-5.64v-19.45l1.33-1.33H1883l12.49,18.9c4.86,7.3,6.3,12,6.3,12l0.44,0.44h21.22l0.44-4.09-1.22-.11c-2-.22-4.09-0.33-8.4-6.74l-16-24.1v-1.88c5.75-3.54,13.6-9.95,13.6-19s-7.52-17.8-27-17.8h-31.28v3.32c8,1.66,8.51,2.76,8.51,8.07v51.73c0,3.76-2.87,6.3-7.41,6.85v4.09Zm-85.77-39.24c0-15.36,7.74-30.29,23.43-30.29,16.58,0,24.65,16.47,24.65,32.83,0,15.81-7.74,31.83-23,31.83-16.14,0-25.09-17.69-25.09-34.38m11.61,39c5.08,1.22,9.4,1.44,15,7.74,5.31,6,12.82,18.24,27.19,18.24a27,27,0,0,0,14.26-4.09v-4a20.08,20.08,0,0,1-3.54.33c-13.82,0-22.33-15.81-27.85-19.23a40.68,40.68,0,0,0,27.85-38.58c0-17.91-12.16-35.59-38.69-35.59-28,0-42.11,19.9-42.11,39.46,0,15.81,9.28,31.28,27.85,35.7m-103.9.22,31.72-.66,0.44-3.65-10.5-1a28.18,28.18,0,0,0,.55-5.64v-56l1.33-1.33h2.54c8.51,0,15.7,6.19,15.7,17.57,0,8.73-3.87,15-12.49,15.81v4.2c14.26,1.44,28.74-8.62,28.74-23.76s-14.92-19.56-28.07-19.56h-31.06v3.32c8,1.66,8.51,2.76,8.51,8.07v51.73c0,3.76-2.87,6.3-7.41,6.85v4.09Zm-101.91-36c0,18.68,12.93,37,38.58,37,27.41,0,42.22-21.11,42.22-40.79,0-17.91-12.16-35.59-38.69-35.59-28,0-42.11,19.9-42.11,39.35m16.25-3.21c0-15.7,7.74-30.62,23.43-30.62,16.58,0,24.65,16.8,24.65,33s-7.74,32.28-23,32.28c-16.14,0-25.09-18-25.09-34.71m-114,39.24,23.21-.66,0.44-3.65-9.95-.66a32.57,32.57,0,0,0,.55-6v-44.65a51.17,51.17,0,0,0,4.53,5.42l47.09,50.4h4.64v-61c0-9.17,7.63-11.16,7.63-11.16l-0.55-2.1h-22.33v3.65c8.84,0.88,9,3.54,9,8.4v39.35c-1.33-1.66-3.09-3.76-4.53-5.31L1498,2365.77a26.14,26.14,0,0,1-4.31-5.75s-9.06.44-14.48,0.44H1476v3.32c7.3,2.43,9,5.19,9,12.27v47.53c0,4-3,6.3-8,6.85v4.09Zm-114.62,0,23.43-.66,0.44-3.65-10.17-.66a35.78,35.78,0,0,0,.77-6l1.88-47c0.11-2.1.22-4.42,0.22-4.42l23.21,60.68,4.42,1.33,25-61.57,1.88,51.29c0.11,3.76-2.76,6-7.41,6.52v4.09l30.51-.66,0.44-3.65-9.17-.66a27.19,27.19,0,0,0,.33-5.64l-2.1-49.52c-0.33-9.28,3.43-13.93,3.43-13.93l-0.55-.44s-5.53.44-14.48,0.44H1429s-1.44,5.53-2.43,8L1409,2412a62.1,62.1,0,0,0-2.1-6.41l-13.37-34.93c-2.1-6.19-3.21-10.17-3.21-10.17l-0.44-.44s-6.63.44-17.57,0.44H1364v3.32c8,1.77,8.73,2.65,8.51,8.07l-2.21,51.73c-0.22,4-3.32,6.3-8,6.85v4.09Zm-74.83,0s11.5-.33,18.9-0.33h35.26l4.64-21h-4.31c-5.53,11.05-8,15.25-16.91,15.25h-15.92a36.79,36.79,0,0,0,.55-6.19v-47.86c0-9.17,3.65-13.93,3.65-13.93l-0.55-.44s-4.09.44-17.46,0.44h-8.07v3.32c7.63,1.66,7.63,2.76,7.63,8.07v51.73c0,4-2.76,6.3-7.41,6.85v4.09Zm-88.2,0,30.62-.66,0.44-3.65-9.4-1a28.18,28.18,0,0,0,.55-5.64v-24.43h2.21l17.8,23c6.41,8.18,7.18,11.61,7.18,11.61l0.44,0.44h21.22l0.44-4.09-1.22-.11c-2.76-.22-3.87-0.66-8.18-6.3l-24.87-32.16v-1.88l18.9-19.67a32.08,32.08,0,0,1,11.83-7.41l-0.66-2.1h-22.11v3.32c5.86,0.77,5.53,3.32,3.54,5.42l-19.23,19.9a31.64,31.64,0,0,1-5.31,4.2h-2v-19.45c0-9.17,3.65-13.37,3.65-13.37l-0.55-.44s-3.54.44-17.46,0.44h-8.07v3.32c7.63,1.66,7.63,2.76,7.63,8.07v51.73c0,3.76-2.87,6.3-7.41,6.85v4.09Zm-42.33-8.07c0,12.27-5.75,21.66-11.94,22.55l1.33,3.21c16,0,25.42-13.15,25.42-34.26v-44.1c0-9.17,3.65-13.37,3.65-13.37l-0.55-.44s-3.54.44-17.46,0.44h-8.07v3.32c7.63,1.66,7.63,2.76,7.63,8.07v54.6Zm-57.81,8.07,30.62-.66,0.44-3.65-9.4-1a32.57,32.57,0,0,0,.55-6v-48.85c0-9.17,3.65-13.93,3.65-13.93l-0.55-.44s-3.65.44-17.46,0.44H1099v3.32c7.63,1.66,7.63,2.76,7.63,8.07v51.4c0,4-2.76,6.63-7.41,7.18v4.09Zm-103,0,30.62-.66,0.44-3.65-9.4-1a32.57,32.57,0,0,0,.55-6V2401l1.33-1.33h35v23.87c0,3.76-2.87,6.3-7.41,6.85v4.09l30.62-.66,0.44-3.65-9.4-1a32.57,32.57,0,0,0,.55-6v-48.85c0-9.17,3.65-13.93,3.65-13.93l-0.55-.44s-3.65.44-17.46,0.44h-8.07v3.32c7.63,1.66,7.63,2.76,7.63,8.07v20.45l-1.33,1.33h-35v-19.23c0-9.17,3.65-13.93,3.65-13.93l-0.55-.44s-3.65.44-17.46,0.44H996v3.32c7.63,1.66,7.63,2.76,7.63,8.07v51.4c0,4-2.76,6.63-7.41,7.18v4.09Zm-93.4-35.59c0,23.65,19.12,36.59,41.56,36.59,9.51,0,19.23-2.32,26.75-2.87v-17.46c0-8.51,4.31-10.5,4.31-10.5l-0.55-2.1h-28v3.32c9.73,1.44,10.17,2.76,10.17,8.07v14.26a39.66,39.66,0,0,1-9.06,1.11c-17.8,0-29.18-14.15-29.18-33,0-16.8,8.73-31.61,26.75-31.61,8.29,0,18.46,2.76,18.57,14.92h4.31l3.32-17.91c-5.86-.55-16.36-2.54-25.86-2.54-29.73,0-43.11,19.9-43.11,39.79m-72.4,35.59,33.38-.66,0.44-3.65-12.16-1a32.57,32.57,0,0,0,.55-6v-22l1.33-1.33h16.91v8.18h5.75v-21l-4.64.66-0.88,6.41H852.62v-26.64l1.33-1.33h12.27c8.84,0,12.49,2,11.94,13.37h4.31l3.43-19.56s-4,.44-8.51.44H829.3v3.32c8,1.66,8.51,2.76,8.51,8.07v51.4c0,4-2.76,6.63-7.41,7.18v4.09Zm-78.92,0s11.5-.33,18.9-0.33H805.1l4.09-18.79h-4.31c-5.53,11.61-6.85,13-16.36,13H773.15a36.79,36.79,0,0,0,.55-6.19v-21.44l1.33-1.33h16.91v8.29h5.75v-21.11l-4.64.66-0.88,6.41H773.71v-26.2l1.33-1.33H787.3c8.84,0,12.49,2,11.94,13.37h4.31L807,2360s-4,.44-8.51.44H750.38v3.32c8,1.66,8.51,2.76,8.51,8.07v51.73c0,4-2.76,6.3-7.41,6.85v4.09Zm-73.62-6.08a36.79,36.79,0,0,0,.55-6.19v-54.71l1.33-1.33H688c17,0,26.09,12.82,26.09,31.39,0,19.79-10.17,30.84-29.51,30.84h-6.74Zm-21.66,6.08s11.5-.33,18.9-0.33h9.51c25,0,45.87-14.37,45.87-39.79,0-23.87-19.9-33.93-42.55-33.93H655.1v3.32c8,1.66,8.51,2.76,8.51,8.07v51.73c0,4-2.76,6.3-7.41,6.85v4.09Zm-90.08-36.14c0,19.12,14.59,37.14,39,37.14,20.89,0,30-14.48,30-14.48l-1.88-2.87a34.29,34.29,0,0,1-21.22,7.63c-16.36,0-30.95-11.27-30.95-31.83,0-15.25,7.63-29.29,25.31-29.29,10.28,0,19.23,3.87,19.67,14.92h4.31l3.32-17.35c-6-.55-16.47-3.09-26.09-3.09-27.52,0-41.45,20.56-41.45,39.24m-58-5v-25.86l1.33-1.33h3.21c9.73,0,12.71,6.08,12.71,13,0,9.17-5.53,13.93-8.29,14.15h-9Zm-0.55,35a34.64,34.64,0,0,0,.55-6.08v-21.89l1.33-1.33h1.77c12.27,0,18.46,7.74,18.46,15.92,0,7.3-5.53,13.37-16,13.37h-6.08Zm-21.66,6.08s11.5-.33,18.9-0.33H515c19.67,0,30.95-9.17,30.95-20.78,0-12.6-12.93-16.91-19.79-18.35,3.54-1.66,15.14-8,15.14-18.46,0-8.73-7.85-16.14-28.08-16.14H484.78v3.32c8,1.66,8.51,2.76,8.51,8.07v51.73c0,4-2.76,6.3-7.41,6.85v4.09Zm-53.61-48.41,7,19.45H418.79l10.72-28c0.66,2.21,1.88,6.19,2.76,8.51m-35.37,48.08h21.66l0.66-3.76-9.51-1.22,6.19-16.25,1.88-1.33h23.54l5.19,14.26c1.22,3.32-1.44,4.31-4.42,4.42v4.31s16.36-.44,21.55-0.44h4.53l0.44-3.54c-4.2-.55-5.86-3.21-7.74-8.18l-24.21-62.89L430,2361l-25.64,64.22c-1,2.43-3.09,4.75-7.41,5.19v3.76Z"/><path class="cls-2" d="M2043,2265.82a52.66,52.66,0,0,1,7.52-.44h33.38l3-15.36H2082s-2.32,10.39-13,10.39h-9.62a59.14,59.14,0,0,0,4.09-5.53l19.12-31.5a30.21,30.21,0,0,1,3.76-5.31l-0.88-3.43a49.45,49.45,0,0,1-7.07.44h-33l-2,14.15h4.75c0.88-2.87,3.76-9.28,10.5-9.28h11.05a56.35,56.35,0,0,0-4,5.42l-19.56,31.72a23.59,23.59,0,0,1-4,5.31Zm-57.7,14.48c-5.53,0-7.3,3-7.3,5.64,0,3.09,2.1,5.64,6.08,5.64,12.82,0,20.34-20.56,24.43-29.84l16.69-39c1.88-4.31,3.54-5.86,3.54-5.86l-0.55-1.77H2012v3.32c4.09,1.11,7.74,3.65,6.08,8l-10.72,25.09a64.1,64.1,0,0,0-2.1-6.52l-8.07-19.67a14,14,0,0,1,.22-10.17l-0.44-.44s-6.3.44-16.14,0.44h-5.2v3.32s4,0.88,6.41,6.41l14.92,34.15c1.44,3.43,2.76,6.74,3.43,8.73l-1,2.43c-3,7-7.18,10.17-14,10.17m-45.87-14.59,25.64-.66,0.44-3.21-4.53-.44-16.91-24.32,11.72-14.7a15.39,15.39,0,0,1,7.52-5.53l-0.55-1.77h-18.9v3.32c3,0.55,7.18,1.66,4.86,4.53l-7.63,9.62-6.3-9.51a9.55,9.55,0,0,1-1.44-8l-0.44-.44s-7.41.44-14.7,0.44h-6.63v3.32s4.2,0.11,7.41,5.31l12.6,18.13-13,16.25a11,11,0,0,1-7.52,3.87v3.76l19.34-.66,0.44-3.32-7.74-1,11.5-14.48,7.52,11.27c2,3,.44,4.2-2.65,4.2v4Zm-100.58-.44,6.74,1.44,12.93-29.07,11.05,27.63,6.63,1.44,19.56-44c2.32-5.19,3.54-5.86,3.54-5.86l-0.55-1.77h-16v3.32c4.53,1.11,8,3.21,5.86,8l-11.05,25c-0.55-2.1-1.33-4.86-2-6.85l-7.18-19.23a13.57,13.57,0,0,1,.22-10.17l-0.44-.44s-6,.44-15.81.44h-4.64v3.32s3.54,0.88,5.86,6.41l1,2.43a9.09,9.09,0,0,1,0,6.85l-7.74,17.46c-0.55-2.1-1.33-4.86-2-6.85l-7.18-19.45a13.57,13.57,0,0,1,.22-10.17l-0.44-.44s-6,.44-15.81.44h-5.19v3.32s4.2,0.77,6.41,6.41Zm-62.56,0,7.29,1.44,19.45-44c2.21-5.08,3.54-5.86,3.54-5.86l-0.55-1.77H1789.7v3.32c5.42,1.22,8,3.65,6.08,8l-10.94,24.87a66.16,66.16,0,0,0-2.1-6.63l-7.52-19.34a13.79,13.79,0,0,1,.22-10.17l-0.44-.44s-6.3.44-16.14,0.44h-5.2v3.32s4.2,0.88,6.41,6.41Zm-88.2-13.48c0,10.61,6,14.92,13.93,14.92,10.94,0,18.35-11.27,18.35-11.27v4.64a31.93,31.93,0,0,1-.77,6.08l0.22,0.22s7.52-1,22.33-2.21l0.33-3.54H1740c-3.65,0-6.19,0-6.19-6.3v-29.18c0-8.51,1-11.61,1-11.61l-0.33-.33s-2.76,1.11-20.89,4.31v3.76h2.76c3.21,0,3.32,2.76,3.32,7.52v23.65s-5.53,5.08-11.05,5.08c-3.65,0-6.3-2-6.3-9.95v-22.44c0-8.51,1-11.61,1-11.61l-0.33-.33s-2.54,1.11-21.44,4.42v3.65h3.32c3.21,0,3.32,2.76,3.32,7.52v23Zm-51.51.44c0,10.28,5.53,14.48,13.49,14.48,11.38,0,18.79-8.51,18.79-8.51l-1.77-2.87a21.91,21.91,0,0,1-9.39,2.54c-5.75,0-7-3.76-7-10.17v-24.54l1.33-1.33h13.48l0.77-6.74h-15.7V2213c0-8.4,1-10.83,1-10.83l-0.33-.33-9.5-.33-4.2,12.49c-2.65,2.43-7.74,3.43-7.74,3.43v4.75h7.07s-0.33,4-.33,7.18v22.88ZM1577,2259c0,5.64,10.61,7.74,17.24,7.74,10.83,0,19.56-5.19,19.56-16.14,0-17.57-23.32-15-23.32-26.2,0-3.65,2.54-6,6.52-6,3.21,0,8.4,1.44,9,9.95h3.76l2.54-12.49s-8.73-2.1-15.25-2.1c-10.83,0-18.79,5.75-18.79,15.7,0,17.13,23.43,15.58,23.43,26.53,0,3.87-2.87,6.08-7,6.08-4.86,0-11.27-2.87-12-12.27H1579s-2,6.52-2,9.17m-56.48,6.74,29.4-.66,0.44-3.32-9.95-1a32.57,32.57,0,0,0,.55-6v-26s4.31-3.54,7.85-3.54c2.76,0,3.32,2.21,6.85,2.21a6.91,6.91,0,0,0,7.07-7.07,6.43,6.43,0,0,0-6.85-6.63c-8.73,0-15.7,12.27-15.7,12.27,0.55-11.05,1.55-13.48,1.55-13.48l-0.33-.33a125.07,125.07,0,0,1-22.33,5.64v3.54h4.42c3.21,0,3.32,2.76,3.32,7.3v26.09c0,4-1.77,6.63-6.3,7.18v3.76Zm-56.15-26.42c0-10.83,5.31-20,14.81-20a11.19,11.19,0,0,1,5.31,1.11v35.92a19.08,19.08,0,0,1-7.18,1.66c-9.28,0-12.93-9.73-12.93-18.68m-14.7,3.76c0,11.61,7,23.65,20.78,23.65,6.85,0,11.38-2.87,14.48-7.07,0,1.33-.44,4.42-0.44,10.06v8.62c0,5.08-1.77,7.85-6.3,10.61v3.76s13.93-3,27.19-4.75l0.44-3.21h-7.74a38.52,38.52,0,0,0,.55-6.19v-52.06a53.84,53.84,0,0,1,1-11.05l-0.33-.33c-4.31,0-12.38-1.33-18.57-1.33-20.78,0-31.06,14.92-31.06,29.29m-46,18c-2.54,0-5.64-.66-5.64-5.64V2225c3.09-1.44,5.53-2.21,7.85-2.21,8.73,0,12,10.06,12,18.79,0,10.39-4.64,19.45-14.26,19.45m-25,31.5c9.73-2.65,29.4-5.08,29.4-5.08l0.44-3.21h-11.05a39,39,0,0,0,.55-6.3v-11.72a38,38,0,0,0,5.86.44c18.79,0,28.74-15,28.74-29.4,0-13.15-8.29-23.54-20-23.54-5.19,0-10.17,2-15,8.4a46.09,46.09,0,0,1,1.22-9.62l-0.33-.33a133.69,133.69,0,0,1-21.77,5.53v3.54h3.87c3.21,0,3.32,2.76,3.32,7.3v49.52c0,5.08-.66,8-5.2,10.72v3.76Zm-56.7-54.16c0-10.28,3.43-19.79,11.27-19.79,8.84,0,12.38,11.83,12.49,21.77,0.22,7.85-1.66,21.44-10.94,21.44-9.06,0-12.82-12.71-12.82-23.43m-15.25,2.87c0,14.81,10.28,25.42,26.31,25.42,18.79,0,28.08-14.48,28.08-28.41,0-14.37-10.06-24.54-26.64-24.54-19.67,0-27.74,14.48-27.74,27.52m-75.6,24.43,26.42-.66,0.44-3.32-7-1.11a30.58,30.58,0,0,0,.55-5.86v-27.19a19.86,19.86,0,0,1,11.72-4.09c4.31,0,6.19,1.77,6.19,9.51v21.77c0,4-1.22,6.63-5,7.18v3.76l27-.66,0.44-3.32-8.84-1.11a30.58,30.58,0,0,0,.55-5.86v-26.09c0-10.72-5.53-14.92-13.15-14.92-9.06,0-15.81,6-19.67,11.05,0.55-9.84,1.55-12.27,1.55-12.27l-0.33-.33a131.64,131.64,0,0,1-22.33,5.53v3.54h4.42c3.21,0,3.32,2.76,3.32,7.3v26.2c0,4-1.77,6.63-6.3,7.18v3.76Zm-107,0,26.42-.66,0.55-3.65-7.07-.77a30.58,30.58,0,0,0,.55-5.86v-27.19a18.17,18.17,0,0,1,11.27-4.09c4.09,0,6.08,1.77,6.08,9.51v21.77c0,4-1.33,6.63-4.75,7.18v3.76l24.87-.66,0.55-3.65-7.07-.77a30.58,30.58,0,0,0,.55-5.86V2230c0-4.53,7.07-6.52,11.27-6.52,4,0,6.08,1.77,6.08,9.51v21.77c0,4-1.33,6.63-4.75,7.18v3.76l26.75-.66,0.44-3.32-8.84-1.11a30.58,30.58,0,0,0,.55-5.86v-26.09c0-10.72-5.64-14.92-13.37-14.92-8.51,0-14.26,5.08-18.57,10.5-1.22-7.41-6.63-10.5-13-10.5-8.84,0-15,6-18.79,11.05,0.55-9.84,1.55-12.27,1.55-12.27l-0.33-.33a131.64,131.64,0,0,1-22.33,5.53v3.54h4.42c3.21,0,3.32,2.76,3.32,7.3v26.2c0,4-1.77,6.63-6.3,7.18v3.76Zm-44.43,0,28.3-.66,0.44-3.32-8.84-1a32.57,32.57,0,0,0,.55-6v-59.24c0-8.51,1.11-12.49,1.11-12.49l-0.33-.33s-4.64,2.1-22.33,5.64v3.54h4.09c3.21,0,3.32,2.76,3.32,7.3v55.6c0,4-1.77,6.63-6.3,7.18v3.76Zm-72.51,0,27.19-.66,0.44-3.32-7.74-1a32.57,32.57,0,0,0,.55-6v-14.48h1.88l13,17.8a25.39,25.39,0,0,1,3.76,7.63l20.12-.33,0.44-3.87-1.22-.11c-2.54-.22-4.09-0.66-8.29-6l-15.14-19.67a21.46,21.46,0,0,1-1.44-2v-1.55l10.39-9.28c3.87-3.54,11.61-6.08,11.61-6.08l-0.55-1.77H1041v3.32c2.43,0.55,3.43,1.33,3.43,2.43,0,1.55-1.66,3-4,5.08l-10.83,9.51h-1.88v-39.9c0-8.51,1.11-12.49,1.11-12.49l-0.33-.33s-4.64,2.1-22.33,5.64v3.54h4.09c3.21,0,3.32,2.76,3.32,7.3v55.6c0,4-1.77,6.63-6.3,7.18v3.76Zm-28.85-61.57c4.75,0,8.18-3.21,8.18-7.74s-3.43-7.85-8.18-7.85-8.18,3.21-8.18,7.85,3.43,7.74,8.18,7.74m-6.08,63.33c0,11.27-5.75,20-11.94,20.89l1.33,3.21c15.47,0,24.76-10.39,24.76-31.5v-34.93c0-9,1-12.6,1-12.6l-0.33-.33a138.44,138.44,0,0,1-22.55,5.53v3.54H969c3.21,0,3.32,2.76,3.32,7.3v38.91Zm-37.47-63.33c4.75,0,8.18-3.21,8.18-7.74s-3.43-7.85-8.18-7.85-8.18,3.21-8.18,7.85,3.43,7.74,8.18,7.74m-12.38,61.57,28.3-.66,0.44-3.32-8.84-1a32.57,32.57,0,0,0,.55-6v-29.62c0-9,1-12.6,1-12.6l-0.33-.33a138.44,138.44,0,0,1-22.55,5.53v3.54h4.42c3.21,0,3.32,2.76,3.32,7.3v26.2c0,4-1.77,6.63-6.3,7.18v3.76Zm-76,0,26.42-.66,0.44-3.32-7-1a32.57,32.57,0,0,0,.55-6v-27.19a19.86,19.86,0,0,1,11.72-4.09c4.31,0,6.19,1.77,6.19,9.51v21.77c0,4-1.22,6.63-5,7.18v3.76l27-.66,0.44-3.32-8.84-1.11a30.58,30.58,0,0,0,.55-5.86v-26.09c0-10.72-5.53-14.92-13.15-14.92-9.06,0-15.47,6-19.34,11.05,0-1.33.44-4.42,0.44-10.06v-19.23c0-8.51,1.11-12.49,1.11-12.49l-0.33-.33s-4.64,2.1-22.33,5.64v3.54h4.09c3.21,0,3.32,2.76,3.32,7.3v55.6c0,4-1.77,6.63-6.3,7.18v3.76Zm-42.55-22.11c-6.52,0-8.84-5.86-8.84-12.49s2.21-12.49,8.4-12.49c6.52,0,9.17,7,9.17,13.37,0,6.19-2.32,11.61-8.73,11.61m-0.33,25.09c9.17,2,15.36,3.32,15.36,8.51,0,5.86-8.29,9.17-14.59,9.17-6.63,0-12.6-3.65-12.6-9.95,0-4.31,2.54-7.52,4.53-9.4,2.32,0.66,4.86,1.11,7.3,1.66m-20.12-10.83c0,4.42,4.2,6.85,9.84,8.4-6,2.21-13.6,5.53-13.6,12.27,0,8.62,12.82,13,22.55,13,13.37,0,28.85-8.4,28.85-20.12,0-9.95-11.38-12.71-21.33-14.59-6.52-1.22-13-2.21-13-5a6.92,6.92,0,0,1,1.66-3.76,41.43,41.43,0,0,0,5.31.33c11.94,0,22.77-6,22.77-16.58,0-6.3-3.76-9.06-3.76-9.06a19,19,0,0,0,3.87.33h4.53l1.22-8.62A23.82,23.82,0,0,1,825,2216h-5.31c-6.19,0-9-2.21-16-2.21-11.61,0-22.44,6.19-22.44,17.69,0,9,6.52,14.26,14.7,16.14-4,1.55-12.49,4.31-12.49,10.28m-51.84,7.85,31.06-.66,0.44-3.32-11.61-1a32.57,32.57,0,0,0,.55-6v-31.61l1.33-1.33H765.3l1.11-6.74H752v-6c0-13.82,1.77-19.45,6.52-19.45,3.54,0,7.63,7.85,12.93,7.85a5.76,5.76,0,0,0,5.86-5.86c0-5.42-8.18-7.74-14.48-7.74-13.6,0-25,11.5-25,27.63V2215l-6.74,2.43v4.75h6.74v32.61c0,4-1.77,6.63-6.3,7.18v3.76Zm-39.79-46.64c8,0,8.29,12.6,8.29,12.6L682,2234c0.44-8.07,4-14.92,9.84-14.92m-22.88,22.11c0,13.15,8.73,25.53,25,25.53a23.13,23.13,0,0,0,19.9-11.16l-1.33-3.21a21.77,21.77,0,0,1-13.15,4.42c-11.27,0-15.92-7.74-17.13-16.36l1-1.33,23.43-3.54a62.5,62.5,0,0,0,7.3-2.1c-0.44-13.82-9.73-19.67-19.79-19.67-14.37,0-25.2,12.27-25.2,27.41m-45.76,16.47c-8.62,0-12.16-10.17-12.16-18.57,0-10.06,5-19.67,14.81-19.67,2.21,0,5.42.44,5.42,5.64v30.4a17.69,17.69,0,0,1-8.07,2.21m-26.86-14.37c0,13.15,8.84,23.43,20.23,23.43a18.45,18.45,0,0,0,15.14-8.4v1.77a31.93,31.93,0,0,1-.77,6.08l0.22,0.22s7.85-1,22.66-2.21l0.33-3.54h-2.54c-3.65,0-6.19,0-6.19-6.3v-58.8c0-8.51,1.11-12.49,1.11-12.49l-0.33-.33s-4.64,2.1-22.33,5.64v3.54h4.09c3.21,0,3.32,2.76,3.32,7.3v15a39.21,39.21,0,0,0-5.75-.44c-18.46,0-29.18,14.92-29.18,29.51m-60.57-1.66c0,12.93,8.62,25.09,24,25.09,14.37,0,20.34-10.61,20.34-10.61l-1.33-3.21a24.39,24.39,0,0,1-13,3.87c-11.38,0-16.8-8.73-16.8-19.9,0-9.73,4.09-18.24,11.61-18.24,7.85,0,7.63,9.4,13.93,9.4a5.35,5.35,0,0,0,5.42-5.42c0-6.63-11.16-8.84-17.8-8.84-17.13,0-26.31,14.7-26.31,27.85M468.86,2265l0.33,0.33c4.31,0,12.38,1.33,18.79,1.33,21,0,30.73-15.14,30.73-29.07,0-11.94-6.85-23.87-20.56-23.87a17.16,17.16,0,0,0-14.48,7.07c0-1.33.44-4.42,0.44-10.06v-15.25c0-8.51,1.11-12.49,1.11-12.49l-0.33-.33s-4.64,2.1-22.33,5.64v3.54h4.09c3.21,0,3.32,2.76,3.32,7.3V2254a44.35,44.35,0,0,1-1.11,11.05m15.25-5v-35.92a18.58,18.58,0,0,1,7.07-1.66c9.17,0,12.82,9.51,12.82,18.79,0,10.72-4.86,19.9-14.59,19.9a11.19,11.19,0,0,1-5.31-1.11m-64.44-2.1c-3.76,0-5.31-3-5.31-6.41,0-6.3,4.86-9.4,10.61-10.39l3-.55v13.82c-2.21,1.88-5.31,3.54-8.29,3.54M400,2254.33c0,8.29,6.41,12.38,12.93,12.38,9.73,0,15.47-9.17,15.47-9.17v1.77c0,4.75,3.65,7.41,9.28,7.41,8.29,0,13.71-6,13.71-6l-1.77-3s-2.54,1.88-4.86,1.88c-2.1,0-2.65-1.88-2.65-5.19v-24.87c0-11.38-2.87-15.81-14.48-15.81-14.48,0-23.43,7.07-23.43,7.07l2.43,9.73h5.08s4.31-11.83,10.61-11.83c2.87,0,4.53,2.1,5.19,5.31,0.55,2.65.55,8,.55,11.61l-3.87.55c-11.27,1.66-24.21,7-24.21,18.13"/><path class="cls-2" d="M1050,2088.83c-8.62,0-12.16-10.17-12.16-18.57,0-10.06,5-19.67,14.81-19.67,2.21,0,5.42.44,5.42,5.64v30.4a17.69,17.69,0,0,1-8.07,2.21m-26.86-14.37c0,13.15,8.84,23.43,20.23,23.43a18.45,18.45,0,0,0,15.14-8.4v1.77a31.93,31.93,0,0,1-.77,6.08l0.22,0.22s7.85-1,22.66-2.21l0.33-3.54h-2.54c-3.65,0-6.19,0-6.19-6.3v-58.8c0-8.51,1.11-12.49,1.11-12.49l-0.33-.33s-4.64,2.1-22.33,5.64v3.54h4.09c3.21,0,3.32,2.76,3.32,7.3v15a39.21,39.21,0,0,0-5.75-.44c-18.46,0-29.18,14.92-29.18,29.51M984.7,2096.9l28.3-.66,0.44-3.32-8.84-1a32.57,32.57,0,0,0,.55-6v-59.24c0-8.51,1.11-12.49,1.11-12.49l-0.33-.33s-4.64,2.1-22.33,5.64v3.54h4.09c3.21,0,3.32,2.76,3.32,7.3V2086c0,4-1.77,6.63-6.3,7.18v3.76Zm-49.85-27.3c0-10.28,3.43-19.79,11.27-19.79,8.84,0,12.38,11.83,12.49,21.77,0.22,7.85-1.66,21.44-10.94,21.44-9.06,0-12.82-12.71-12.82-23.43m-15.25,2.87c0,14.81,10.28,25.42,26.31,25.42,18.79,0,28.08-14.48,28.08-28.41,0-14.37-10.06-24.54-26.64-24.54-19.67,0-27.74,14.48-27.74,27.52m-50.07-16.69v-25.86l1.33-1.33h3.21c9.73,0,12.71,6.08,12.71,13,0,9.17-5.53,13.93-8.29,14.15h-9Zm-0.55,35a34.64,34.64,0,0,0,.55-6.08v-21.89l1.33-1.33h1.77c12.27,0,18.46,7.74,18.46,15.92,0,7.3-5.53,13.37-16,13.37H869Zm-21.66,6.08s11.5-.33,18.9-0.33h10.17c19.67,0,30.95-9.17,30.95-20.78,0-12.6-12.93-16.91-19.79-18.35,3.54-1.66,15.14-8,15.14-18.46,0-8.73-7.85-16.14-28.08-16.14H846.21v3.32c8,1.66,8.51,2.76,8.51,8.07V2086c0,4-2.76,6.3-7.41,6.85v4.09Zm-72.06-7.74c-3.76,0-5.31-3-5.31-6.41,0-6.3,4.86-9.4,10.61-10.39l3-.55v13.82c-2.21,1.88-5.31,3.54-8.29,3.54m-19.67-3.65c0,8.29,6.41,12.38,12.93,12.38,9.73,0,15.47-9.17,15.47-9.17v1.77c0,4.75,3.65,7.41,9.28,7.41,8.29,0,13.71-6,13.71-6l-1.77-3s-2.54,1.88-4.86,1.88c-2.1,0-2.65-1.88-2.65-5.2v-24.87c0-11.38-2.87-15.81-14.48-15.81-14.48,0-23.43,7.07-23.43,7.07l2.43,9.73h5.08s4.31-11.83,10.61-11.83c2.87,0,4.53,2.1,5.19,5.31,0.55,2.65.55,8,.55,11.61l-3.87.55c-11.27,1.66-24.21,7-24.21,18.13m-69.08,11.38,26.42-.66,0.44-3.32-7-1.11a30.58,30.58,0,0,0,.55-5.86v-27.19a19.86,19.86,0,0,1,11.72-4.09c4.31,0,6.19,1.77,6.19,9.51V2086c0,4-1.22,6.63-5,7.18v3.76l27-.66,0.44-3.32-8.84-1.11A30.58,30.58,0,0,0,739,2086v-26.09c0-10.72-5.53-14.92-13.15-14.92-9.06,0-15.81,6-19.67,11.05,0.55-9.84,1.55-12.27,1.55-12.27l-0.33-.33a131.64,131.64,0,0,1-22.33,5.53v3.54h4.42c3.21,0,3.32,2.76,3.32,7.3V2086c0,4-1.77,6.63-6.3,7.18v3.76ZM622.17,2083c0,10.61,6,14.92,13.93,14.92,10.94,0,18.35-11.27,18.35-11.27v4.64a31.93,31.93,0,0,1-.77,6.08l0.22,0.22s7.52-1,22.33-2.21l0.33-3.54H674c-3.65,0-6.19,0-6.19-6.3v-29.18c0-8.51,1-11.61,1-11.61l-0.33-.33s-2.76,1.11-20.89,4.31v3.76h2.76c3.21,0,3.32,2.76,3.32,7.52v23.65s-5.53,5.08-11.05,5.08c-3.65,0-6.3-2-6.3-9.95v-22.44c0-8.51,1-11.61,1-11.61l-0.33-.33s-2.54,1.11-21.44,4.42v3.65h3.32c3.21,0,3.32,2.76,3.32,7.52v23Zm-43.11,13.93,28.3-.66,0.44-3.32-8.84-1a32.57,32.57,0,0,0,.55-6v-59.24c0-8.51,1.11-12.49,1.11-12.49l-0.33-.33s-4.64,2.1-22.33,5.64v3.54H582c3.21,0,3.32,2.76,3.32,7.3V2086c0,4-1.77,6.63-6.3,7.18v3.76Zm-38.13,0,28.3-.66,0.44-3.32-8.84-1a32.57,32.57,0,0,0,.55-6v-59.24c0-8.51,1.11-12.49,1.11-12.49l-0.33-.33s-4.64,2.1-22.33,5.64v3.54h4.09c3.21,0,3.32,2.76,3.32,7.3V2086c0,4-1.77,6.63-6.3,7.18v3.76Zm-39.9-7.74c-3.76,0-5.31-3-5.31-6.41,0-6.3,4.86-9.4,10.61-10.39l3-.55v13.82c-2.21,1.88-5.31,3.54-8.29,3.54m-19.67-3.65c0,8.29,6.41,12.38,12.93,12.38,9.73,0,15.47-9.17,15.47-9.17v1.77c0,4.75,3.65,7.41,9.28,7.41,8.29,0,13.71-6,13.71-6l-1.77-3s-2.54,1.88-4.86,1.88c-2.1,0-2.65-1.88-2.65-5.2v-24.87c0-11.38-2.87-15.81-14.48-15.81-14.48,0-23.43,7.07-23.43,7.07l2.43,9.73h5.08s4.31-11.83,10.61-11.83c2.87,0,4.53,2.1,5.19,5.31,0.55,2.65.55,8,.55,11.61l-3.87.55c-11.27,1.66-24.21,7-24.21,18.13m-79.58-24.76c0,19.12,14.59,37.14,39,37.14,20.89,0,30-14.48,30-14.48l-1.88-2.87a34.29,34.29,0,0,1-21.22,7.63c-16.36,0-30.95-11.27-30.95-31.83,0-15.25,7.63-29.29,25.31-29.29,10.28,0,19.23,3.87,19.67,14.92H466l3.32-17.35c-6-.55-16.47-3.09-26.09-3.09-27.52,0-41.45,20.56-41.45,39.24"/><path class="cls-2" d="M2295.93,1804.72l41.67-95.39h-7.07l-41.67,95.39h7.07Zm-17.24,0h7.18L2254,1709.34H2247Zm-60.46-77.37,1.88,3c9.84-5.64,14.7-13.15,14.7-19.9a13.37,13.37,0,0,0-2.76-8.29l-9.17,4.53-0.88,3.87c3.43,2.1,5.2,4.09,5.2,6.41,0,2.87-3,6.19-9,10.39m-17.35,0,1.88,3c9.84-5.64,14.7-13.15,14.7-19.9a13.37,13.37,0,0,0-2.76-8.29l-9.17,4.53-0.89,3.87c3.43,2.1,5.2,4.09,5.2,6.41,0,2.87-3,6.19-9,10.39m-32.72,0,1.88,3c9.84-5.64,14.7-13.15,14.7-19.9a13.37,13.37,0,0,0-2.76-8.29l-9.17,4.53-0.88,3.87c3.43,2.1,5.19,4.09,5.19,6.41,0,2.87-3,6.19-9,10.39m-17.35,0,1.88,3c9.84-5.64,14.7-13.15,14.7-19.9a13.37,13.37,0,0,0-2.76-8.29l-9.17,4.53-0.88,3.87c3.43,2.1,5.2,4.09,5.2,6.41,0,2.87-3,6.19-9,10.39m-32.72,0,1.88,3c9.84-5.64,14.7-13.15,14.7-19.9a13.37,13.37,0,0,0-2.76-8.29l-9.17,4.53-0.88,3.87c3.43,2.1,5.2,4.09,5.2,6.41,0,2.87-3,6.19-9,10.39m-32.72,0,1.88,3c9.84-5.64,14.7-13.15,14.7-19.9a13.37,13.37,0,0,0-2.76-8.29l-9.17,4.53-0.88,3.87c3.43,2.1,5.19,4.09,5.19,6.41,0,2.87-3,6.19-9,10.39M2011,1758.41h21.66v24.65h6.52v-24.65h21.33v-6.08h-21.33v-23.21h-6.52v23.21H2011v6.08Zm-68.64,10.5h49.52v-6.08h-49.52v6.08Zm0-21h49.52v-6.08h-49.52v6.08Zm-78.59,44.43H1919v-5.19h-55.27v5.19ZM1825,1759.08H1851v-7.3H1825v7.3Zm-50,41.67,3.32,1.66s24.87-20.67,24.87-55.27c0-25.31-13.82-39.9-13.82-39.9l-3.87,1.33s9.51,15,9.51,37.58c0,32.94-20,54.6-20,54.6m-37.36-41.34c0,27.19,16.36,43,16.36,43l3.65-1.66s-11.72-15.58-11.72-40.45c0-30.18,17.24-51.73,17.24-51.73l-3.65-1.33c0.11,0-21.89,19.34-21.89,52.17m-43-10.39c-0.55,2.1,2.65,3.09,4.42,3.09s5-1,4.42-3.09l-3.32-12.93a1.42,1.42,0,1,0-2.21,0Zm-10.17-6,9.51-9.28a5.14,5.14,0,0,0,1.44-2.1,5.67,5.67,0,0,0-2.54.22l-12.93,3.54c-2,.55-1.33,3.87-0.44,5.42s3.32,3.76,5,2.21m29.18,0.11c1.55,1.55,4.09-.77,5-2.32s1.55-4.86-.55-5.42l-12.82-3.54a5.67,5.67,0,0,0-2.54-.22,5.14,5.14,0,0,0,1.44,2.1Zm-10.94-15.7a5.67,5.67,0,0,0,2.54-.22l12.93-3.54c2-.55,1.33-3.87.44-5.42s-3.32-3.76-5-2.21l-9.51,9.28a5.14,5.14,0,0,0-1.44,2.1m-22.66-3.76,12.82,3.54a5.67,5.67,0,0,0,2.54.22,5.14,5.14,0,0,0-1.44-2.1l-9.51-9.4c-1.55-1.55-4.09.77-5,2.32s-1.55,4.75.55,5.42m19,1.66a5.78,5.78,0,0,0,1.11-2.32l3.32-12.93c0.55-2.1-2.65-3.09-4.42-3.09s-5,1-4.42,3.09L1698,1723a5.79,5.79,0,0,0,1.11,2.32m-84.55,1.77c0-7.85,4.53-14.92,11.05-14.92,4.31,0,5.64,3.21,5.64,7.3,0,9.4-6.19,15.7-13.82,21a37.42,37.42,0,0,1-2.87-13.37m-3.54,52.06c-7.3,0-12.6-3.76-12.6-11.83s5.19-13.71,12.16-18.68a90.71,90.71,0,0,0,16.25,25c-5.42,3.43-11.05,5.53-15.81,5.53m-21.44-11.05c0,10.94,9.4,16.25,18.57,16.25,7,0,14.59-3.09,21.55-7.85,5.64,5.31,11.72,9.4,18,11.16l1.66-2.54c-2.76-1-8-6.19-13.6-13.37,10.28-9.17,17.91-21.55,17.91-31.39,0-5.86-2.87-7.07-6.63-7.07a24.17,24.17,0,0,0-6.63,1.22v2.76c4.42,0.44,6.85,3.54,6.85,7.85,0,8-6.08,16.91-13.82,23.65a130.18,130.18,0,0,1-14.48-24.54c10.5-7,21.22-13.6,21.22-24.76,0-7.63-5.53-11.5-13.93-11.5-14.48,0-20.45,11.27-20.45,21.22a44.54,44.54,0,0,0,3.21,15.47c-10.06,6.19-19.45,12.49-19.45,23.43m-68.31-12.71h7.07l19.23-38.69,19.23,38.69h7.3L1550.4,1708h-5.53Zm-48.08,14.92c0-7.3,6.3-14,12.71-14,4.86,0,8.07,4,8.07,9.17,0,7.3-6.3,14-12.71,14-4.86,0-8.07-4-8.07-9.17m-5.75.55c0,8,5.19,13.48,13.37,13.48,9.51,0,19-9.17,19-19.34,0-8.07-5.31-13.71-13.48-13.71-10.28,0-18.9,9.95-18.9,19.56m-15.25-32.28c-4.86,0-8.07-4-8.07-9.17,0-7.3,6.3-14,12.71-14,4.86,0,8.07,4,8.07,9.17,0,7.3-6.3,14-12.71,14m-0.44,4.86c9.51,0,19-9.17,19-19.34,0-8.07-5.31-13.71-13.48-13.71-10.28,0-18.9,9.95-18.9,19.56,0,8,5.2,13.48,13.37,13.48M1435,1783.06h6.52l61.34-71.07-4-3.21Zm-46.53-47.86c0-6.08,5.64-9.62,11.83-10.17l-4.64,20.67c-4.09-2.87-7.18-6-7.18-10.5m16,34.26c0,6.41-6,9.84-11.94,10.5l4.64-21.22c4.09,3,7.3,6.08,7.3,10.72m-31.83,5.31c0,5.53,7.41,8.4,14.59,9l-2,9.17h4.42l2-9.17c11.05-.55,21.33-6.63,21.33-17.69,0-9-7-13.6-13.48-17.8l5.19-23.1c6.85,1.22,7.07,7.3,6.41,13.37h3.43l4-15.47a130.34,130.34,0,0,0-12.93-1.77l2.1-9.62h-4.42l-2.21,9.62c-13.15.66-20.89,9-20.89,17.8,0,8.51,6.74,12.93,13.15,17.13l-5.2,23.76c-6.3-.88-9-5.31-9-10.28a37.54,37.54,0,0,1,.44-4.86h-3.43s-3.54,6.08-3.54,9.95m-51.84-27.85h17.91l-4.64,16.8h-17.8Zm-19.56,0h14.26l-4.64,16.8h-14l-1.22,5h13.93l-6.63,24.21h5.42l6.52-24.21h17.91l-6.63,24.21h5.42l6.52-24.21h15.7l1.22-5h-15.47l4.53-16.8h15.36l1.22-5h-15.14l6.19-22.77h-5.31l-6.3,22.77h-17.8l6.19-22.77h-5.31l-6.3,22.77h-14.37ZM1224.45,1768c0-13.37,10.61-30.73,23.65-30.73l-6.74,34.15s-6.85,5.86-11.38,5.86c-3.32,0-5.53-3.32-5.53-9.28m-27.63-2.1c0,19.67,13.48,34.6,32.94,35.48l1.11-4.42c-14-.77-26.09-12.16-26.09-32.05,0-23,16.25-42.55,39-42.55,18.46,0,28,12.93,28,30.73,0,20.12-12,26-18.9,26-2.43,0-3.43-.77-3.43-3.43,0-2.32.88-5.75,1.44-8.4l4.64-23.65c1-5.08,3-9.73,2.76-9.73a44.52,44.52,0,0,0-8.29-1c-18.57,0-35.15,19.67-35.15,37.36,0,9.28,4.64,14.15,10.06,14.15s11.83-4.75,16.36-10.39l-0.77,4.09a60.56,60.56,0,0,1-1.55,6l0.55,0.44c11.16-1.77,14-.44,21.44-3.54,10.61-4.42,18.68-15.7,18.68-30.51,0-19.67-14-33.16-33.6-33.16-25.53,0-49.19,22.66-49.19,48.63m-30.62-38.58,3.43-1.77-6.3-19.12-9.28-1v3Zm-104.67,36.36H1068c0-4.09,1.22-11.05,7.85-11.05,8.51,0,9.28,11.5,22,11.5,8.29,0,14-5,14-17.13h-6.52c0,4.09-1.22,11.05-7.85,11.05-8.51,0-9.28-11.5-22-11.5-8.29,0-14,5-14,17.13m-44.1,15.92c0,2.54,1.33,4.75,4.75,4.75,5.31,0,7.74-4.86,7.74-8.62,0-2.54-1.44-4.64-4.86-4.64-5.2,0-7.63,4.64-7.63,8.51m7.85-16H1028l12.82-44.77a74,74,0,0,1,4.09-11.94l-0.22-.33s-3.87,1.33-13.6,4Zm-67.76,0C957.18,1750.68,965,1735,976.3,1735c7.63,0,11.38,7.07,11.5,15.36,0.33,13.71-8.18,28.85-18.9,28.85-7.63,0-11.27-7.07-11.38-15.58m-9-.88c0.22,12.38,6.74,21.66,20.23,21.66,17.13,0,28.19-18,28-33.49-0.22-11.61-6.85-21.11-20.34-21.11-17.24,0-28.08,17.24-27.85,32.94m-70.74,37.91v3.87c31.72,0,48.3-30.51,48.3-51.95,0-13-5.75-22.77-18.57-22.77-15.92,0-26,17.8-26,30.73,0,9.62,4.42,17,14.92,17a16.07,16.07,0,0,0,8.62-2.76v-3.54a18.87,18.87,0,0,1-5.42,1.11c-6.08,0-8.73-6.08-8.73-13.26,0-9.95,6.19-25.53,16-25.53,6.52,0,9.51,7.18,9.51,16.91,0,19.56-12,48.52-38.69,50.18m-44.54-76.27c0-6.74,5.08-12.6,11.83-12.6,5.86,0,9.17,4.42,9.17,10.72,0,8.51-5.86,13-12.49,17.24-4.64-4.75-8.51-9.51-8.51-15.36m-10.94,43.88c0-9.95,7.41-16.91,14.37-21.33,5.64,5.75,11.27,11.27,11.27,18.13,0,8.84-8.18,15.58-15.58,15.58-7,0-10.06-5.86-10.06-12.38m-8.62.22c0,10.83,9.28,15.92,18.46,15.92,12.71,0,24.43-9.73,24.43-21.22,0-8.51-6-14.59-11.83-20.45,9-5.42,18.24-10.61,18.24-20.45,0-8.62-7.07-14.26-17-14.26-11.72,0-21.33,7.85-21.33,18.24,0,7,4.2,12.49,9.06,17.57-10.28,6.3-20,13.37-20,24.65m-60.24,24.76c-3.43,4.31-4.64,5-5.19,7.18a3.28,3.28,0,0,0,3.32,4.09c3.21,0,5.08-3.21,9-9.4l33.49-52.5a76.47,76.47,0,0,1,7.18-9v-3a45.28,45.28,0,0,1-6.74.44H759.78L754.47,1747h3.21c4.09-6.63,5.19-7.41,11.61-7.41h15.14c2,0,4.53-.22,6.63-0.44l-11.61,18.13c-14.81,23-21.89,31.17-26,35.92m-64.66-31.61c0,13,5.75,22.77,18.46,22.77,16.36,0,26.42-17.8,26.42-30.73,0-9.95-4.42-17.57-15.36-17.57a16.55,16.55,0,0,0-8.62,2.76v3.54a18.87,18.87,0,0,1,5.42-1.11c6.63,0,9.28,6.3,9.28,13.82,0,9.95-6.19,25.53-16.58,25.53-6.52,0-9.51-7.18-9.51-16.91,0-19.79,12-50.18,38.69-51.84V1708c-31.61,0-48.19,31.94-48.19,53.61m-65.21,38.91v3.87s1.88,0.11,3,.11c18,0,36.36-11.72,36.36-28.63,0-17.13-23.87-21-23.87-21l4.2-15.92h23.87l2.76-8.51a42.09,42.09,0,0,1-7.41.66H640.84l-8.4,31.39s21.22,2.32,21.22,15.36c0,12.71-14.59,22.66-30.06,22.66m-53.94-27.74,26.64-29a72,72,0,0,0-2,7l-4.86,22H569.66Zm-8.84,6.52H588l-2.21,9.84c-1.22,5.53-2.32,10.39-2.43,15.47l8.84-.77a93.35,93.35,0,0,1,2.65-17.13l1.66-7.41H609l2.54-6.52H598l6.74-30.84a82.86,82.86,0,0,1,3.32-12l-0.11-.33-6,1.77L560.71,1776Zm-59.13,21.22v3.87s1.22,0.11,2,.11c17.24,0,37.14-11.5,37.14-27.74,0-7.85-5.86-12.82-15.14-14,7.63-3.21,20.23-10.83,20.23-20.67,0-7.41-5.53-12.27-13.82-12.27-9.51,0-17.91,9-17.91,9l1.66,2.76s6.63-5.19,12.27-5.19c3.87,0,8.18,2,8.18,8.07,0,8.07-12.71,17.35-21.22,18.24v5.08a24,24,0,0,1,2.65-.11c6.3,0,13.37,2.1,13.37,9.62,0,15-16.47,22.88-29.4,23.32m-53.5-17.46h35.37l7.07-17.24h-3.21c-3.09,4.75-6,9.73-13.26,9.73H460c15.7-11.5,29.07-22.88,29.07-33,0-9.17-6.63-12.71-14.48-12.71-10.5,0-18,9-18,9l1.77,2.76c2.87-2.21,7.85-5.19,12.71-5.19s8.29,2.43,8.4,7.85c0.22,7.41-4.53,13.15-10.94,19-6.85,6.19-20.45,16.47-20.45,16.47Zm-49.52.55,27.19-.55,0.33-3.32-10.61-1.11a32.11,32.11,0,0,0,1.77-5.86l8.07-36.92,9.62-1.22,0.44-3.54H407.85v3.76c7.41,0,9.06,1.44,8,6.52L409,1772.78c-1.11,5.08-3.54,7.07-10.28,7.07v3.76Z"/><path class="cls-2" d="M2419.17,1614.69a37.91,37.91,0,0,1,6.41-.44H2472l8.18-20.23h-3.76c-7.74,11.94-11.27,16.14-20.23,16.14h-25.42c1.44-1.44,3.21-3.21,4.42-4.64l45.43-53.61c4.86-5.75,7.52-8.4,7.52-8.4l-1.22-3.43a36.32,36.32,0,0,1-6.41.44h-44.65l-4.53,18h3.76c5.2-10.83,8.4-13.93,16.58-13.93h24.21c-1.44,1.44-3.09,3.32-4.31,4.75l-45.65,53.5a78.84,78.84,0,0,1-7.3,7.85Zm-59.69-.11,25.31-.66,0.33-3.09-9.28-1a44.24,44.24,0,0,0,1.66-6l4.42-22.55,26-32.5c4.53-5.64,8.51-6.74,8.51-6.74l-0.44-1.55h-17.91v2.76c5,0.88,5.19,4,2.87,7l-21.11,26.42c-0.55-2-1.33-4.53-2-6.41l-8.51-21.77c-1.44-3.65.22-8,.22-8l-0.33-.44s-4,.44-9.51.44H2354v2.76a7.63,7.63,0,0,1,5.19,4.86l13.48,33.27-4.53,22.77c-0.77,3.76-3.87,6.3-8.62,6.85v3.54Zm-95.72-.33h21.89l0.33-3.32-9.28-1.11,23-27.52,10.5,24.43c1.22,2.87-.88,3.87-4.64,4.42v3.54s11.94-.44,16.36-0.44h4.86l0.33-3.09-5.31-.88L2306.43,1576l22.77-27.08c5-5.75,9.17-6.63,9.17-6.63l-0.55-1.77h-18.24v2.76c5.08,0.88,5.08,3.87,2.76,6.63l-17.91,21.33-9.73-22.77c-1.55-3.54,0-8,0-8l-0.33-.44a84.38,84.38,0,0,1-9.95.44h-6.74v2.76s5,0.88,6.74,4.86l13.26,29.51-24.43,29c-1.77,1.88-5,3.65-9.51,4.09v3.54Zm-46-.33,4.2,1.33L2251.6,1554c4.86-10.06,9.28-11.94,9.28-11.94l-0.44-1.55h-16.58v2.76c5.75,2.1,5.42,5,3.21,9.62l-22.88,47.2c-0.11-1.66-.33-3.54-0.55-5.08l-7.41-44.32c-0.55-3.21.88-7.52,2.54-10.17l-0.33-.44s-4.31.44-10.83,0.44h-6.74v2.76a8.22,8.22,0,0,1,5.53,6.08l0.66,4-22.55,46.42c-0.11-1.66-.33-3.54-0.55-5.08l-7.41-44c-0.55-3.21.88-7.52,2.54-10.17l-0.33-.44s-4.31.44-10.83,0.44h-6.74v2.76a8.22,8.22,0,0,1,5.53,6.08l11.38,64.55,4.09,1.33,26.2-54.38Zm-116.72,0,3.54,1.33,35.92-61.35c5.53-9.51,9.17-11.83,9.17-11.83l-0.44-1.55h-16.69v2.76c5.75,1.88,6.08,4.86,3.09,9.95l-28,47.75-0.66-5.53-7.52-44.77c-0.66-3.65.88-7.74,2.21-10.17l-0.33-.44a79.93,79.93,0,0,1-9.73.44h-7.52v2.76a8,8,0,0,1,5.53,6.08ZM1996.28,1594c0,15.58,11.83,21.44,25.09,21.55s28.19-8.84,31.72-26.75l7.07-35.48c1.66-8.51,9.51-11.27,9.51-11.27l-0.22-1.55h-21v3.09c7,0.44,8,2.54,6.85,8.29l-7.19,36.25c-3.09,14.92-15.47,22.44-25.86,22.44-9,0-16.8-5.2-16.8-16.91a34,34,0,0,1,.66-6.3l6.63-33.49c1.88-9.17,6.08-13.37,6.19-13.37l-0.33-.44s-2.43.44-12,.44h-8.84v2.76c6.85,1.66,7.4,2.21,6.3,8.07l-6.85,34.49a44.93,44.93,0,0,0-.88,8.18m-73.72,20.56,26.31-.66,0.33-3.09-10.28-1a43,43,0,0,0,1.66-6l11.5-58.14,1.33-1.11h11.27c8.18,0,9.73,3.65,8.51,13.93h3.76l4.64-18.68a43.15,43.15,0,0,1-7.63.66h-49.41a31.57,31.57,0,0,1-7-.66l-4.64,18.68h3.76c4.31-11.38,8.84-13.93,16-13.93H1943l-11.72,59.24c-0.77,4-3.87,6.63-8.73,7.18v3.54Zm-79.58-9.17c0,7,10.72,10.17,20.34,10.17,11.61,0,23.76-6.63,23.76-20.45,0-20.12-26.31-23.1-26.31-39.13,0-8.73,7.07-12.82,14.15-12.82,11.61,0,11.94,7.74,11.05,15.36h3.76l4.53-17.24c-3.09-.44-11.61-2.1-18.35-2.1-15.36,0-24.32,9.4-24.32,20.45,0,18.35,26.09,21.77,26.09,38.69,0,9.4-7.18,13.26-13.93,13.26-11.83,0-14-8.51-14-17.24H1846s-3,6.85-3,11.05m-56.26-28.19,6.3-31.5,1.33-1.11h3.76c11.38,0,14.81,6.3,14.81,13.6,0,12.16-10.5,18.68-17.35,19h-8.84Zm-23.21,37.36,25.31-.66,0.33-3.09-9.28-1a45,45,0,0,0,1.55-5.64l4.31-21.66,1.33-1.11h6.19l10.5,20.34a68.55,68.55,0,0,1,5.08,12.16l0.44,0.33h14.48l0.44-3.54-1.11-.11c-2.76-.22-4.53-0.44-8.07-7.3L1803.4,1581v-1.44c4.75-1.44,19.67-8.07,19.67-22.77,0-8.4-6.63-16.25-23.54-16.25h-23.87v2.76c7.74,1.44,8.18,2.21,7,8.07l-10.5,52.83c-0.77,3.87-4.09,6.3-8.62,6.85v3.54Zm-78.92-31.5c0-18.35,12.27-39.68,30.95-39.68,15.47,0,21.66,14.37,21.66,27.85,0,20.23-14,40.12-31.06,40.12-14.15,0-21.55-13.82-21.55-28.3m-2.32,39.9v2.65c19,8.84,28.63,12.27,40.12,12.27s21.11-3.54,28.41-11.61l-0.77-2.87c-4.64,4.31-14.59,7.07-24.1,7.07-13.26,0-26.08-5.2-29.73-6.85,28.52-8.4,51.4-24.76,51.4-52.28,0-19.79-12-32.16-31.5-32.16-26.31,0-41.78,22.77-41.78,43.77,0,18.68,12,32.61,31.06,32.61h0.77c-4.86,3.09-18.9,6.63-23.87,7.41m-85.66-8.4,25.86-.66,0.33-3.09-9.84-1a49.36,49.36,0,0,0,1.66-6l11.5-58.14,1.22-1.11h1.55c10.28,0,17.91,4.53,17.91,15.58,0,9.73-6.52,19.23-20.67,20v3.09c15.58,1.11,30.95-9.62,30.95-25.31,0-12.6-11.27-17.46-23.32-17.46h-25v2.76c7.74,1.44,8.18,2.21,7,8.07l-10.5,52.83c-0.77,3.76-4,6.3-8.62,6.85v3.54Zm-79-31.72c0-18.24,11.94-39.46,31.72-39.46,14.59,0,20.89,14.59,20.89,28.3,0,20-13.93,39.68-31.61,39.68-13.48,0-21-13.82-21-28.52m-10.28.55c0,18,12,32.16,31.06,32.16,25,0,42.23-21.44,42.23-45.54,0-17.57-12-30.84-31.06-30.84-26.86,0-42.22,22.33-42.22,44.21m-99.92,31.17,20.23-.66,0.33-3.09-8.62-.66a43,43,0,0,0,1.66-6l10.28-52.28a31.18,31.18,0,0,0,2.87,6.08l33.38,56.81h2.87l12.27-61.46a14.34,14.34,0,0,1,9.51-11.27l-0.22-1.55h-20.67v3.09c8.29,0.88,7.85,3.43,6.85,8.29l-9.4,47.53c-0.77-1.66-1.77-3.54-2.65-5.08l-28.63-48.52a29.85,29.85,0,0,1-2.65-5.75s-6.08.44-11.16,0.44h-4v2.76c7.85,1.11,8,3.54,6.41,11.16l-9.84,49.74c-0.88,4-4.09,6.3-8.84,6.85v3.54Zm-109,0,20.23-.66,0.33-3.09-8.73-.66a54.63,54.63,0,0,0,1.77-6l11.72-49.74,1.22-4.09,11.72,62.56,3.43,1.33,37.58-64.33-8.51,54.6c-0.55,3.76-4.09,6-8.84,6.52v3.54l25.42-.66,0.33-3.09-9-.66a47,47,0,0,0,1.33-5.64l7.74-50.07c1.44-9.17,5.64-13.93,5.64-13.93l-0.44-.44s-2.32.44-11.16,0.44h-2.65s-2.21,4.53-4.09,7.74l-30.73,52.39c-0.11-1.88-.44-4-0.66-5.64l-8-44.32a88.23,88.23,0,0,1-1.11-10.17l-0.22-.44s-2.54.44-10.94,0.44h-9.06v2.76c8.07,1.66,8.07,2.76,6.85,8.07l-12.38,52.83c-1,4.09-4.09,6.3-8.84,6.85v3.54Zm-70.63,0s9.51-.33,14.7-0.33h33.82l7.3-20.23h-3.76c-8.07,12.49-10.17,16.14-18.57,16.14H1244s1-3,1.77-6.3l9.95-50c1.77-9.17,6.08-13.37,6.08-13.37l-0.44-.44s-2.32.44-11.72,0.44h-8.84v2.76c7.41,1.66,7.3,2.76,6.08,8.07l-10.5,52.83c-0.88,4-3.87,6.3-8.62,6.85v3.54Zm-80.24,0,25.2-.66,0.33-3.09-9.28-1a58.78,58.78,0,0,0,1.88-6.74l4.86-25h2.1l15.92,24.1c5.64,8.4,5.86,11.72,5.86,11.72l0.22,0.33h14.59l0.33-3.54-1.22-.11c-3.21-.33-3.65-0.77-7.3-6.3l-19.9-30.18v-1.33l24.54-21.11c9.84-8.4,15.14-9.62,15.14-9.62l-0.44-1.55h-19.9v2.76c5,0.66,4.2,3.43,1.77,5.53l-25.2,21.77c-1.55,1.33-3,2.43-3.65,2.87h-1.88l3.87-19.56c1.77-9.17,6.08-13.37,6.08-13.37l-0.44-.44s-2,.44-11.72.44h-8.73v2.76c7.41,1.66,7.18,2.76,6.08,8.07l-10.5,52.94c-0.77,3.87-4,6.08-8.62,6.74v3.54Zm-38.47-5.86c-2.54,12.93-9.17,20-14.81,20.89l0.66,2.65c11.5,0,20.67-9.17,24.65-29.29l9.73-49.08c1.88-9.17,6.08-13.37,6.08-13.37l-0.33-.44s-2.43.44-11.94,0.44h-8.73v2.76c7.41,1.66,7.18,2.76,6.19,8.07Zm-54.38,5.86,25.2-.66,0.33-3.09-9.28-1a58.78,58.78,0,0,0,1.88-6.74l9.73-49.19c1.77-9.17,6.08-13.37,6.08-13.37l-0.44-.44s-2.43.44-11.72,0.44h-8.73v2.76c7.41,1.66,7.3,2.76,6.08,8.07l-10.5,52.94c-0.88,3.87-4,6.08-8.62,6.74v3.54Zm-97.27,0,25.31-.66,0.33-3.09-9.28-1a60.75,60.75,0,0,0,1.77-6.52l4.64-23.32,1.11-1h39.13l-5,25.31c-0.77,3.87-4,6.08-8.62,6.74v3.54l25.31-.66,0.33-3.09-9.28-1a60.73,60.73,0,0,0,1.77-6.52l9.84-49.41c1.77-9.17,6.08-13.37,6.08-13.37l-0.44-.44s-2.54.44-11.83,0.44h-8.73v2.76c7.41,1.66,7.18,2.76,6.08,8.29l-4.42,22-1.22,1h-39l4.09-20.67c1.77-9.17,6.08-13.37,6.08-13.37l-0.44-.44s-2.54.44-11.83,0.44h-8.73v2.76c7.41,1.66,7.18,2.76,6.08,8.29L966,1604.3c-0.77,3.87-4,6.08-8.62,6.74v3.54ZM875.06,1584c0,20.67,14.48,31.61,33,31.61,7,0,17.46-2.43,22.77-2.87l3.65-18c1.77-8.51,6.19-10.5,6.19-10.5l-0.33-1.55H917.94v2.76c6.19,0.77,8.73,2.1,7.52,8.07l-3.09,15.92a45.78,45.78,0,0,1-11.05,1.55c-16.36,0-26-11.72-26-29.07,0-18.68,12.82-38.69,34.6-38.69,10.83,0,15,5,15,12.27a25.08,25.08,0,0,1-.22,3.09h3.76l4.2-16.91c-5.75-.55-13.37-2.43-21.66-2.43-30.62,0-46,23.43-46,44.77m-74.17,30.62,27.52-.66,0.33-3.09-11.5-1a43,43,0,0,0,1.66-6l4.64-23.32,1.33-1.11h17.35l-1.66,8.29h4.86l3.87-19.45-4,.11-2.1,7H824.65l5.75-29.62,1.33-1.11h12.93c8.4,0,10.94,3.65,8.73,13.93h3.54l5.19-18.46a81.24,81.24,0,0,1-8.18.44H813v2.76c7.74,1.44,8.18,2.21,7,8.07l-10.39,52.28c-0.88,4.53-4,6.85-8.73,7.41v3.54Zm-73.94,0s9.51-.33,14.81-0.33h32.72l6.41-18h-3.76c-6.85,11.05-9.06,13.93-17.69,13.93H743.19a52.06,52.06,0,0,0,1.77-6.41l4.75-23.76,1.33-1.11h18l-1.66,8.29h5l3.87-19.45h-4.09l-2,7.07H750.71l5.75-29.07,1.33-1.11h13.71c8.4,0,10.72,3.65,8.51,13.93h3.76l5.19-18.46a81.24,81.24,0,0,1-8.18.44H739.1v2.76c7.74,1.44,8.18,2.21,7,8.07l-10.5,52.83c-0.77,4-3.87,6.3-8.62,6.85v3.54Zm-74.06-4.42a52.06,52.06,0,0,0,1.77-6.41l11.5-58,1.11-1.11H675c18.68,0,25.75,12.49,25.75,27,0,22.11-14.81,38.58-38.69,38.58h-9.17Zm-16.25,4.42s9.06-.33,14.37-0.33h10.83c29.18,0,49.3-17.46,49.3-43.88,0-21.55-17.46-29.84-36.14-29.84H648.8v2.76c7.74,1.44,8.18,2.21,7,8.07l-10.5,52.83c-0.77,4-4,6.3-8.62,6.85v3.54Zm-77.37-31.06c0,20.89,14.59,32.05,30.51,32.05a38.35,38.35,0,0,0,25.53-9.95l-1.22-2.54s-9.73,5.42-19.9,5.42c-13.37,0-24.65-9.4-24.65-27.52,0-19.23,11.94-37.58,32.5-37.58,10.5,0,15.36,4.42,15.36,12.16a24.52,24.52,0,0,1-.22,3h3.76l4.31-16.91c-5.75-.55-13.26-2.43-21.55-2.43-26.31,0-44.43,19.79-44.43,44.32m-57.92-9.28,5.53-28.52,1.33-1.11H513c10.17,0,12.6,6.85,12.6,12.38,0,9.06-8.29,17.13-14.59,17.24h-9.62Zm-7.74,35.92a47.19,47.19,0,0,0,1.77-6.3l4.86-24.43,1.33-1.11h2.76c7.63,0,19.12,1.22,19.12,14,0,7.74-5,17.8-23.32,17.8h-6.52Zm-16.25,4.42s9.06-.33,14.26-0.33h11.16c19.23,0,31.28-10.17,31.28-23.43,0-10.94-9.95-14.7-14.26-15.92,8.84-3.76,16.14-10.61,16.14-19.79,0-8.29-6.52-14.59-23-14.59H489.64v2.76c7.74,1.44,8.18,2.21,7,8.07L486,1604.19c-0.77,4-4.09,6.3-8.62,6.85v3.54Zm-40.79-56.48,4.2,26.31H418l17.91-31.72a42.66,42.66,0,0,0,.66,5.42m-44.21,56.15h19.79l0.33-3.09-8.73-1.33,11.27-20,1.55-1h25l2.87,17.69c0.55,3.32-2.21,4.53-5.19,4.64v3.54s10.83-.44,15.47-0.44H459l0.33-3.09c-3.76-.55-4.86-1-6.19-8.51l-10.83-62.78-4.53,1-37.58,65.21a9.58,9.58,0,0,1-7.85,5v3.21Z"/><path class="cls-2" d="M1900.45,1445.44a17.38,17.38,0,0,1,6-1.22c5.19,0,13.82,2.54,19.9,2.54,9.95,0,13.93-6.63,16.47-18.9h-2.87c-3.76,8.73-8.29,10.94-14.59,10.94a94.47,94.47,0,0,1-14.59-1.88l27.52-31.83c1.77-2.1,7.3-7.41,7.3-7.41l-1-2.87a22.62,22.62,0,0,1-7.3.88H1911l-3.76,12.82,2.76,0.66c2.65-5.86,4.2-5.64,13-5.64h11.5L1907,1435.38a50.57,50.57,0,0,1-7.85,7.18Zm-70.08,21.66a4.5,4.5,0,0,0,4.86,4.53c3.43,0,6.08-2.1,9.17-5,19.23-17.8,39.35-54.16,42.44-59.8,3.65-6.63,4.64-8.62,5.86-11.83l-0.33-.66-13.6,3.09v2.76c2.21,0,3.87,1.11,3.87,2.87,0,4.2-8.51,19.67-18.79,34.38a309,309,0,0,0-3.87-44.21l-0.44-.22c-2.65,1.88-9.28,3.87-14.37,5v3h2c3.09,0,4.09,1.33,4.75,3.21,2.32,6.74,4.2,27.74,4,39.57,0,2.32-.66,5.31-2,6.85l-1.66,2c-5.64,6.3-9.62,9.84-16.47,9.84-3.65,0-5.42,2.21-5.42,4.64m-47-20.34c2,0,4-1.22,6.19-3.43,4.31-4.31,9.73-12.71,12.38-17.13,1.77,5.08,3.43,9.95,5.2,13.71,2.32,5.08,4.2,6.85,7.07,6.85,5.86,0,11.94-6.52,11.94-6.52l-0.44-3.21c-1.22,1.22-4.75,3.54-6.74,3.54-1.33,0-2.54-1.22-4-4.53-2.43-5.42-4.75-11.72-7-17.91a118.23,118.23,0,0,1,7-9.84c4.31-5.53,7.18-4.75,9.51-5.31s4.2-2,4.2-4.75c0-2.54-1.66-3.87-4.2-3.87-2.1,0-3.76.88-6.19,3.43-3.87,4-8.84,11.61-11.72,16.25-2.87-8.4-5.42-16.14-7.18-20.67l-0.33-.33a38.19,38.19,0,0,1-13,5v3h2.54c3,0,4.2.44,6,4.53,1.88,4.31,3.87,10.39,6,16.58a101.23,101.23,0,0,1-7.63,10.72c-4.86,5.64-6.74,4.75-9.51,5.31a4.84,4.84,0,0,0-4.2,4.53,4,4,0,0,0,4.2,4.09m-74.39-1,3.76,1.44s2.43-4,4.2-6.3a183.75,183.75,0,0,0,15.58-23.87c0.88,9,2.43,21.11,4.53,28.74l3.76,1.44a65.67,65.67,0,0,1,4.2-6.3c4-5.2,19.56-24.65,27.19-45.87l-0.33-.66-13.82,3.09v2.76c11.83,0-7.18,27.74-14.59,36.48-2.43-13.93-3.54-33.38-2.32-43.33l-0.33-.33c-2.65,1.77-9.95,3.76-15.58,5v3h2.21c3.43,0,3.87,1.66,4.09,4.64l0.22,3.09c0.33,4-11.83,22.55-16.36,28-2.43-13.93-3.54-33.38-2.32-43.33l-0.33-.33c-2.65,1.77-9.95,3.76-15.58,5v3h2.21c3.43,0,3.87,1.66,4.09,4.64s2.1,27.74,5.53,40.12m-58.69,0,3.76,1.44a51,51,0,0,1,4.2-6.3c4.09-5.2,19.9-24.76,27.74-45.87l-0.33-.66-13.82,3.09v2.76c12.27,0-7.41,27.74-15.14,36.48-3-13.93-4.42-33.38-2.87-43.33l-0.33-.33c-2.65,1.77-9.84,3.76-15.47,5v3h2.1c3.54,0,3.87,1.77,4.09,4.64,0.22,3.09,2.21,27.52,6.08,40.12m-78.14-9.62c0,5.86,2.43,10.61,9.4,10.61,8.62,0,16-7.52,20.45-14.37h0.22A43.33,43.33,0,0,0,1601,1441c0,3.09.88,5.75,5.42,5.75,7.3,0,12.93-6.52,12.93-6.52l-0.44-3.21s-3.76,3.54-6.63,3.54a2.24,2.24,0,0,1-2.43-2.54c0-4.42,8-33.71,8-43.22l-9,1.44c-0.66,9.28-1.77,13.15-3.43,20.78-2,9.28-10.94,23.1-19.79,23.1-3.65,0-4.64-2.43-4.64-5.86,0-5.08,7.63-32.39,7.63-40.9l-0.33-.33c-2.54,1.88-10.06,3.87-16.36,4.86V1401h3.87c2.1,0,2.65,1.33,2.65,3,0,4.53-6.3,25.53-6.3,32.16m-47.53.11c0,5.86,2.76,10.5,9.62,10.5,9.4,0,16.58-8.51,16.58-8.51l-0.44-3.21c-2.76,2.32-7.74,5.08-11.61,5.08-4.09,0-5.08-3.09-5.08-6.3a20.67,20.67,0,0,1,.44-3.87l5.64-28,1.33-1H1555l1.44-5.31h-15.58a62.86,62.86,0,0,0,1.66-13l-5.64,1.55a32,32,0,0,1-4,10.5c-2.87,2.43-7.52,3.32-7.52,3.32l-0.33,3.43h6.63s-1.11,3.87-1.77,7.18l-4.86,23.32a19,19,0,0,0-.44,4.31m-54.82,4c0,5,7.85,6.52,12.82,6.52,9.62,0,18.79-5.42,18.79-15.7,0-14-16.8-14.59-16.8-24.87,0-5.08,3.65-8.18,7.74-8.18,5.75,0,5.31,6.08,10.06,6.08a4.17,4.17,0,0,0,4.31-4.31c0-4.75-7.3-5.42-10.72-5.42-10.06,0-18.9,5.42-18.9,15.47,0,13.6,16.58,14.15,16.58,24.87a8.07,8.07,0,0,1-8.18,8.4c-6.3,0-6.19-7.3-11.38-7.3a4.27,4.27,0,0,0-4.31,4.42m-43.22,6,9-.77a107.74,107.74,0,0,1,2.65-17.46l1.22-5.64c1.33-6,8.51-18.68,13.48-18.68,1.88,0,2.65,1,4.64,1a5.14,5.14,0,1,0,0-10.28c-5.08,0-11.72,8-15.92,15.7h-0.22s3.21-10.17,3.21-16.69l-0.33-.33c-4.42,2.54-10.61,4-16.8,5v3H1432c2.1,0,2.65,1.44,2.65,3,0,4.09-8.07,32.72-8.07,42.22m-51.51-6.08c-3.54,0-6-2.1-6-9.4,0-16.25,11.72-32.5,22.11-32.5a12.47,12.47,0,0,1,7,2.32l-3,13.26c-2.87,12.71-11.27,26.31-20.12,26.31m-3.65,6.63c11.38,0,19.79-14.59,19.79-14.59h0.22s-1.55,5.86-2.65,11.16l-2.87,13.15a102.54,102.54,0,0,0-2.32,15.7l0.44,0.44c2.65-1.55,11.16-3.87,18.35-4.75l-0.22-3.32a39.6,39.6,0,0,1-5.75.77c-3.54,0-3.21-2.65-2.1-7.85l11.16-51.18c1.88-8.73,3.54-11.16,3.54-11.16l-0.33-.66a19.41,19.41,0,0,1-5.42.77c-3.43,0-6.63-.88-10.94-0.88-21.22,0-32.94,22-32.94,37.25,0,10.72,5.53,15.14,12,15.14m-66.21-10.28,3.43-14.15c1.77-7.18,10.61-21.33,18.57-21.33,3,0,5.86,2.65,5.86,11.16,0,14.81-8.51,30.84-21.77,30.84-5.31,0-7.07-2.65-6.08-6.52m-12.93,19.79a96.91,96.91,0,0,0-2.43,15.92l0.44,0.44c2.65-1.55,11.16-3.87,18.35-4.75l-0.22-3.32a32.77,32.77,0,0,1-5.08.55c-5,0-3.87-2.43-2.76-7.41l2.65-11.83a62.75,62.75,0,0,0,8.84.88c21,0,30.73-21,30.73-35.81,0-11.38-5.64-16.58-12.16-16.58-11.05,0-19.34,14.59-19.34,14.59h-0.22a50,50,0,0,0,2.54-15.58l-0.33-.33c-4.42,2.54-10.61,4-16.8,5v3H1301c1.88,0,2.65,1.11,2.65,2.87a41.92,41.92,0,0,1-1,5.75Zm-53.94-26.75c0-14,7.07-31.5,19.12-31.5,7.07,0,9.17,6,9.17,13.37,0,13.37-7.07,31.72-19.23,31.72-7.07,0-9.06-6.08-9.06-13.6m-9.73-2.1c0,10.72,5.53,19.34,18.35,19.34,19.12,0,29.4-19.45,29.4-33.71,0-10.5-5.42-18.68-18.35-18.68-19.34,0-29.4,18.57-29.4,33m-68.09,18.79,9-.77c0.22-6.19,1.33-11.16,2.65-17.46l1.22-5.64c1.66-8,10.5-20.89,20.12-20.89,4,0,4.86,2.54,4.86,5,0,6.63-6.41,29.18-6.41,34.82,0,3,1.77,5.53,5.86,5.53,6.41,0,12.71-6.52,12.71-6.52l-0.44-3.21s-4.09,3.54-6.85,3.54a2.21,2.21,0,0,1-2.21-2.43c0-4.2,6.3-26.2,6.3-34.15,0-5.08-2.54-9.62-9.28-9.62-9.73,0-18.46,9.06-22.44,15.7h-0.22s3.21-10.17,3.21-16.69l-0.33-.33c-4.42,2.54-10.61,4-16.8,5v3H1166c2.1,0,2.65,1.44,2.65,3,0,4.09-8.07,32.72-8.07,42.22m-98.81,0,9-.77a96.84,96.84,0,0,1,2.65-17.46l1.22-5.64c1.55-7.18,10.06-20.89,19.23-20.89,3.87,0,4.64,2.54,4.64,5.08,0,6.41-6.74,28.63-7,39.68l9-.77a101,101,0,0,1,2.54-17.24l1.33-6c1.66-7.63,10.28-20.78,19.12-20.78,4,0,4.86,2.54,4.86,5.08,0,6.41-6.41,29.07-6.41,34.71,0,3,1.77,5.53,5.86,5.53,6.41,0,12.71-6.52,12.71-6.52L1140,1437s-4.09,3.54-6.85,3.54a2.21,2.21,0,0,1-2.21-2.43c0-4.2,6.3-26.2,6.3-34.15,0-5.08-2.43-9.62-9.4-9.62-8.62,0-16.8,8.29-21,14.92h-0.22a33,33,0,0,0,.77-5.64c0-5.86-3.54-9.28-9.06-9.28-9.06,0-17.57,9.06-21.55,15.7h-0.22s3.21-10.17,3.21-16.69l-0.33-.33c-4.42,2.54-10.61,4-16.8,5v3h4.53c2.1,0,2.65,1.44,2.65,3,0,4.09-8.07,32.72-8.07,42.22m-39.46-5.42c0,3.43,1.66,6,5.75,6,6.63,0,12.82-6.52,12.82-6.52l-0.44-3.21c-1.33,1.22-4.64,3.54-6.85,3.54-1.33,0-2.21-.88-2.21-2.65a35.21,35.21,0,0,1,1-6l11.16-50.18a135.57,135.57,0,0,0,2.87-17.46L1046,1364c-2.76,1.77-10.83,3.87-17,4.75v3h2.76c3.43,0,4.31,1.44,4.31,3.54a28.89,28.89,0,0,1-.88,5.08l-11.38,51.07a53.72,53.72,0,0,0-1.55,9.4M958,1446.21l9-.77a96.83,96.83,0,0,1,2.65-17.46l1.88-8.4h2c6,7.41,10.72,27.19,19.34,27.19,5,0,11.5-6.52,11.5-6.52l-0.44-3.21s-4.09,3.43-6.19,3.43c-5,0-10.39-16.58-15.81-23v-1l5.19-2.1c11.61-4.53,14.48-9.84,14.48-15.92a9.38,9.38,0,0,0-.44-3.43l-0.33-.33-13.82,2.43v3h1.55c2.87,0,4.75,1,4.75,3.54,0,3.09-2.65,5.86-8.84,8.29l-10.17,4h-2l7.63-34.15a135.58,135.58,0,0,0,2.87-17.46l-0.33-.33c-2.76,1.77-10.83,3.87-17,4.75v3h2.76c3.43,0,4.31,1.44,4.31,3.54a28.89,28.89,0,0,1-.88,5.08l-11.16,50.07c-1.22,5.53-2.32,10.72-2.43,15.81m-36.8,2.21c-2.43,10.94-9.28,19.67-15.36,20.56l0.77,2.65c10.83,0,20.67-10.83,24.65-29l6.85-31.17a141.92,141.92,0,0,0,2.87-18.13l-0.33-.33c-2.76,2-10.83,4.09-17,5v3h2.76c3.43,0,4.31,1.44,4.31,3.54a24.67,24.67,0,0,1-.66,4.53Zm17-65.32c4.86,0,7-4.42,7-7.63,0-2.54-1.22-4.31-4.42-4.31-4.86,0-7,4.31-7,7.52,0,2.54,1.22,4.42,4.42,4.42m-54.82,57.7c0,3.43,1.66,6,5.75,6,6.63,0,12.82-6.52,12.82-6.52l-0.44-3.21s-4.09,3.54-6.85,3.54c-1.33,0-2.21-.77-2.21-2.65,0-4.2,8.4-35.37,8.4-44.54l-0.33-.33c-2.76,2-10.61,4.09-16.8,5v3h2.54c3.43,0,4.31,1.66,4.31,3.76,0,3.87-7.18,30.06-7.18,36m14.7-57.7c4.86,0,7-4.42,7-7.63,0-2.54-1.22-4.31-4.42-4.31-4.86,0-7,4.31-7,7.52,0,2.54,1.22,4.42,4.42,4.42m-85.22,63.11,9-.77a97.32,97.32,0,0,1,2.54-17l1.33-6.08c1.88-8.73,10.83-20.89,20.12-20.89,4,0,4.86,2.54,4.86,5,0,6.63-6.52,29.18-6.52,34.82,0,3,1.77,5.53,5.86,5.53,6.41,0,12.71-6.52,12.71-6.52l-0.44-3.21c-1.33,1.22-4.64,3.54-6.85,3.54a2.21,2.21,0,0,1-2.21-2.43c0-4.2,6.41-26.2,6.41-34.15,0-5.08-2.54-9.62-9.28-9.62-9.73,0-18.46,9.06-22.44,15.7h-0.22a82.94,82.94,0,0,0,3.21-10.94l3.87-17.35a135.57,135.57,0,0,0,2.87-17.46l-0.33-.33c-2.76,1.77-10.83,3.87-17,4.75v3H823c3.43,0,4.31,1.44,4.31,3.54a28.89,28.89,0,0,1-.88,5.08l-11.16,50.07c-1.22,5.53-2.32,10.72-2.43,15.81m-48.74-6.08c-3,0-5.19-1.88-5.19-9.28,0-16.47,10.94-32.83,21.11-32.83a12.34,12.34,0,0,1,6.85,2.32l-3.54,15.7c-2.32,10.39-11.27,24.1-19.23,24.1M753,1452.29c-4.31,4.42-6.19,6.74-6.19,10.06,0,5.31,5.08,9.28,14.7,9.28,25.53,0,26-28.3,27.08-37.69,1.33-11.27,6.3-31.72,8.73-38.24l-0.22-.33a15.79,15.79,0,0,1-3.21.33c-4.2,0-8-1.33-13-1.33-20.12,0-31.72,22-31.72,37.47,0,10.17,5,14.92,11.16,14.92,10.72,0,19.45-14.59,19.45-14.59H780c-2.21,8.51-1.55,17.69-4.09,24.54-2.1,5.75-6.41,11.16-13.82,11.16-5.53,0-7.63-4-7.63-8.29a18.07,18.07,0,0,1,1.66-7.3H753Zm-43.22-50.84h6.74c-3.09,23.87-6.52,62.12-22,67.53l0.77,2.65c23.87-2.54,26.09-42.67,29.84-69.75l1.33-.88h12.27l1.44-5.31H726.06c1.88-13.93,2.65-25.64,11.83-25.64,5.64,0,7.74,5.2,11.27,5.2a4.41,4.41,0,0,0,4.42-4.31c0-4.31-5.42-6-10.83-6-17.13,0-22.88,14.15-25.42,30.62L710,1398Zm-47.31,18.13c2.21-10.61,9.28-21.33,15.81-21.33,3.43,0,4.2,3.09,4.2,6,0,10.61-15.81,14.48-20,15.36m-10.39,8.4c0,10.06,5.42,18.79,16.14,18.79,11.5,0,18.35-8.84,18.35-8.84l-0.22-3s-6.3,4.86-12.6,4.86c-8.84,0-12.49-6.41-12-15.58l1.22-1.33c7.41-1.55,28.3-7.18,28.3-20,0-6.52-5.64-8.51-10.72-8.51-15.58,0-28.41,18.35-28.41,33.6m-51.29,12.16c-3.43,0-6.08-2.1-6.08-9.51,0-16.36,11.5-32.39,22.55-32.39,4.09,0,6.41,2.32,5.53,6.3l-2,9.28c-2.65,12.6-11.16,26.31-20,26.31m-4,6.63c11.61,0,19.9-14.59,19.9-14.59H617a41.62,41.62,0,0,0-1.33,8.73c0,3.09,1,5.86,5.53,5.86,6.52,0,12.82-6.52,12.82-6.52l-0.44-3.21c-1.88,1.66-4.75,3.54-6.85,3.54-1.22,0-2.21-.77-2.21-2.54,0-1.55.33-3.32,1.44-8.29l10.61-48a127.79,127.79,0,0,0,2.87-17.46l-0.33-.33c-2.76,1.77-10.83,3.87-17,4.75v3h2.76c3.43,0,4.31,1.44,4.31,3.54a43.61,43.61,0,0,1-1,5.64L625,1395.15a30.83,30.83,0,0,0-7.07-.77c-21.22,0-32.94,21.89-32.94,37.25,0,10.72,5.53,15.14,11.83,15.14M530.09,1427c0,10.83,5.75,19.79,17,19.79,11.5,0,18.24-8.84,18.24-8.84l-0.44-3s-5.64,4.86-12.27,4.86c-9.73,0-13.15-7.63-13.15-15.92,0-11.83,7.41-25.86,16.8-25.86,6.19,0,6.19,7.29,11.27,7.29a4.19,4.19,0,0,0,4.2-4.42c0-5-8.51-6.52-13.6-6.52-17.35,0-28.08,17.91-28.08,32.61m-55.16,13.93a54.11,54.11,0,0,1,1.22-8l2.32-9.95c1.66-7.18,10.39-22,18.68-22,3,0,5.86,2.65,5.86,11.05,0.11,14.92-8.84,30.95-20.78,30.95a13.26,13.26,0,0,1-7.3-2.1m-9.28,4.31,0.33,0.33c6.63-.66,10.5,1.22,16,1.22,21,0,30.73-20.89,30.73-35.81,0-11.38-5.64-16.58-12-16.58-10.72,0-19.34,14.59-19.34,14.59h-0.22s0.77-2.21,2.54-9.73l3.87-17.46a135.57,135.57,0,0,0,2.87-17.46l-0.33-.33c-2.76,1.77-10.83,3.87-17,4.75v3h2.76c3.43,0,4.31,1.44,4.31,3.54a28.89,28.89,0,0,1-.88,5.08l-11.16,50.07c-1.22,5.53-2.32,10.06-2.43,14.81m-50.84-5.08c-3,0-5.31-2.1-5.31-9.4,0-16.25,10.83-32.72,21-32.72a12.92,12.92,0,0,1,7,2.32l-3,13.48c-2.54,11.72-10.83,26.31-19.67,26.31m-3.76,6.63c10.72,0,19.34-14.59,19.34-14.59h0.22a38.69,38.69,0,0,0-1.44,8.73c0,3.09,1,5.86,5.31,5.86s9.06-2.65,13-6.52l-0.44-3.21c-1.88,1.66-4.86,3.54-6.74,3.54A2.22,2.22,0,0,1,438,1438c0-1,.44-3.32,1.55-8.29l5-22.66c1.88-8.62,3.43-11.38,3.43-11.38l-0.22-.33a15.78,15.78,0,0,1-3.21.33c-4.2,0-8-1.33-13-1.33-20.12,0-31.72,22-31.72,37.36,0,10.28,5.08,15,11.27,15"/><path class="cls-2" d="M1027.14,1258.17c0,10.83,5.75,19.79,17,19.79,11.5,0,18.24-8.84,18.24-8.84l-0.44-3s-5.64,4.86-12.27,4.86c-9.73,0-13.15-7.63-13.15-15.92,0-11.83,7.41-25.86,16.8-25.86,6.19,0,6.19,7.3,11.27,7.3a4.19,4.19,0,0,0,4.2-4.42c0-5-8.51-6.52-13.6-6.52-17.35,0-28.07,17.91-28.07,32.61M995.2,1272c0,3.43,1.66,6,5.75,6,6.63,0,12.82-6.52,12.82-6.52l-0.44-3.21s-4.09,3.54-6.85,3.54c-1.33,0-2.21-.77-2.21-2.65,0-4.2,8.4-35.37,8.4-44.54l-0.33-.33c-2.76,2-10.61,4.09-16.8,5v3h2.54c3.43,0,4.31,1.66,4.31,3.76,0,3.87-7.18,30.06-7.18,36m14.7-57.7c4.86,0,7-4.42,7-7.63,0-2.54-1.22-4.31-4.42-4.31-4.86,0-7,4.31-7,7.52,0,2.54,1.22,4.42,4.42,4.42M960.83,1272c0,3.43,1.66,6,5.75,6,6.63,0,12.82-6.52,12.82-6.52l-0.44-3.21c-1.33,1.22-4.64,3.54-6.85,3.54-1.33,0-2.21-.88-2.21-2.65a35.21,35.21,0,0,1,1-6L982,1213a135.57,135.57,0,0,0,2.87-17.46l-0.33-.33c-2.76,1.77-10.83,3.87-17,4.75v3h2.76c3.43,0,4.31,1.44,4.31,3.54a28.89,28.89,0,0,1-.88,5.08l-11.38,51.07a53.72,53.72,0,0,0-1.55,9.4m-46.42-.66c-3,0-5.31-2.1-5.31-9.4,0-16.25,10.83-32.72,21-32.72a12.92,12.92,0,0,1,7,2.32l-3,13.48c-2.54,11.72-10.83,26.31-19.67,26.31m-3.76,6.63c10.72,0,19.34-14.59,19.34-14.59h0.22a38.69,38.69,0,0,0-1.44,8.73c0,3.09,1,5.86,5.31,5.86s9.06-2.65,13-6.52l-0.44-3.21c-1.88,1.66-4.86,3.54-6.74,3.54a2.22,2.22,0,0,1-2.32-2.54c0-1,.44-3.32,1.55-8.29l5-22.66c1.88-8.62,3.43-11.38,3.43-11.38l-0.22-.33a15.78,15.78,0,0,1-3.21.33c-4.2,0-8-1.33-13-1.33-20.12,0-31.72,22-31.72,37.36,0,10.28,5.08,15,11.27,15m-49.85-10.5c0,5.86,2.76,10.5,9.62,10.5,9.4,0,16.58-8.51,16.58-8.51l-0.44-3.21c-2.76,2.32-7.74,5.08-11.61,5.08-4.09,0-5.08-3.09-5.08-6.3a20.67,20.67,0,0,1,.44-3.87l5.64-28,1.33-1h13.93l1.44-5.31H877a62.86,62.86,0,0,0,1.66-13l-5.64,1.55a32,32,0,0,1-4,10.5c-2.87,2.43-7.52,3.32-7.52,3.32l-0.33,3.43h6.63s-1.11,3.87-1.77,7.18l-4.86,23.32a19,19,0,0,0-.44,4.31M817.58,1277l25.2-.66,0.33-3.09-9.28-1a58.78,58.78,0,0,0,1.88-6.74l9.73-49.19c1.77-9.17,6.08-13.37,6.08-13.37l-0.44-.44s-2.43.44-11.72,0.44h-8.73v2.76c7.41,1.66,7.3,2.76,6.08,8.07l-10.5,52.94c-0.88,3.87-4,6.08-8.62,6.74V1277Zm-74.28-5.64c-3,0-5.31-2.1-5.31-9.4,0-16.25,10.83-32.72,21-32.72a12.92,12.92,0,0,1,7,2.32L763,1245c-2.54,11.72-10.83,26.31-19.67,26.31m-3.76,6.63c10.72,0,19.34-14.59,19.34-14.59h0.22a38.69,38.69,0,0,0-1.44,8.73c0,3.09,1,5.86,5.31,5.86s9.06-2.65,13-6.52l-0.44-3.21c-1.88,1.66-4.86,3.54-6.74,3.54a2.22,2.22,0,0,1-2.32-2.54c0-1,.44-3.32,1.55-8.29l5-22.66c1.88-8.62,3.43-11.38,3.43-11.38l-0.22-.33a15.78,15.78,0,0,1-3.21.33c-4.2,0-8-1.33-13-1.33-20.12,0-31.72,22-31.72,37.36,0,10.28,5.08,15,11.27,15m-73.39-.55,9-.77c0.22-6.19,1.33-11.16,2.65-17.46l1.22-5.64c1.66-8,10.5-20.89,20.12-20.89,4,0,4.86,2.54,4.86,5,0,6.63-6.41,29.18-6.41,34.82,0,3,1.77,5.53,5.86,5.53,6.41,0,12.71-6.52,12.71-6.52l-0.44-3.21s-4.09,3.54-6.85,3.54a2.21,2.21,0,0,1-2.21-2.43c0-4.2,6.3-26.2,6.3-34.15,0-5.08-2.54-9.62-9.28-9.62-9.73,0-18.46,9.06-22.44,15.7H681s3.21-10.17,3.21-16.69l-0.33-.33c-4.42,2.54-10.61,4-16.8,5v3h4.53c2.1,0,2.65,1.44,2.65,3,0,4.09-8.07,32.72-8.07,42.22m-62.45-10.06c0,5.86,2.43,10.61,9.4,10.61,8.62,0,16-7.52,20.45-14.37h0.22a43.32,43.32,0,0,0-1.22,8.62c0,3.09.88,5.75,5.42,5.75,7.3,0,12.93-6.52,12.93-6.52l-0.44-3.21s-3.76,3.54-6.63,3.54a2.24,2.24,0,0,1-2.43-2.54c0-4.42,8-33.71,8-43.22l-9,1.44c-0.66,9.28-1.77,13.15-3.43,20.78-2,9.28-10.94,23.1-19.79,23.1-3.65,0-4.64-2.43-4.64-5.86,0-5.08,7.63-32.39,7.63-40.9l-0.33-.33c-2.54,1.88-10.06,3.87-16.36,4.86v3.09h3.87c2.1,0,2.65,1.33,2.65,3,0,4.53-6.3,25.53-6.3,32.16M568.78,1272c0,3.43,1.66,6,5.75,6,6.63,0,12.82-6.52,12.82-6.52l-0.44-3.21c-1.33,1.22-4.64,3.54-6.85,3.54-1.33,0-2.21-.88-2.21-2.65a35.21,35.21,0,0,1,1-6L590,1213a135.57,135.57,0,0,0,2.87-17.46l-0.33-.33c-2.76,1.77-10.83,3.87-17,4.75v3h2.76c3.43,0,4.31,1.44,4.31,3.54a28.89,28.89,0,0,1-.88,5.08l-11.38,51.07a53.72,53.72,0,0,0-1.55,9.4M536,1272c0,3.43,1.66,6,5.75,6,6.63,0,12.82-6.52,12.82-6.52l-0.44-3.21c-1.33,1.22-4.64,3.54-6.85,3.54-1.33,0-2.21-.88-2.21-2.65a35.21,35.21,0,0,1,1-6L557.17,1213A135.57,135.57,0,0,0,560,1195.5l-0.33-.33c-2.76,1.77-10.83,3.87-17,4.75v3h2.76c3.43,0,4.31,1.44,4.31,3.54a28.89,28.89,0,0,1-.88,5.08l-11.38,51.07A53.72,53.72,0,0,0,536,1272m-46.42-.66c-3,0-5.31-2.1-5.31-9.4,0-16.25,10.83-32.72,21-32.72a12.92,12.92,0,0,1,7,2.32l-3,13.48c-2.54,11.72-10.83,26.31-19.67,26.31m-3.76,6.63c10.72,0,19.34-14.59,19.34-14.59h0.22a38.69,38.69,0,0,0-1.44,8.73c0,3.09,1,5.86,5.31,5.86s9.06-2.65,13-6.52l-0.44-3.21c-1.88,1.66-4.86,3.54-6.74,3.54a2.22,2.22,0,0,1-2.32-2.54c0-1,.44-3.32,1.55-8.29l5-22.66c1.88-8.62,3.43-11.38,3.43-11.38l-0.22-.33a15.78,15.78,0,0,1-3.21.33c-4.2,0-8-1.33-13-1.33-20.12,0-31.72,22-31.72,37.36,0,10.28,5.08,15,11.27,15M404,1245.9c0,20.89,14.59,32.05,30.51,32.05A38.35,38.35,0,0,0,460,1268l-1.22-2.54s-9.73,5.42-19.9,5.42c-13.37,0-24.65-9.4-24.65-27.52,0-19.23,11.94-37.58,32.5-37.58,10.5,0,15.36,4.42,15.36,12.16a24.52,24.52,0,0,1-.22,3h3.76L470,1204c-5.75-.55-13.26-2.43-21.55-2.43-26.31,0-44.43,19.79-44.43,44.32"/><path class="cls-2" d="M2328.19,984.78h7.18l36.7-95.39H2365Zm-12.49,0h7.18l-36.81-95.39H2279Zm-63-94.17c5,2.43,7.41,4.75,7.41,7.52s-2.54,6-7.18,9.62l2.43,2.65c7.3-4.86,10.94-11.16,10.94-17a15,15,0,0,0-5.08-11.16l-8.51,4.53v3.87Zm-17.91,0c5,2.43,7.41,4.75,7.41,7.52s-2.54,6-7.18,9.62l2.43,2.65c7.3-4.86,10.94-11.16,10.94-17a15,15,0,0,0-5.08-11.16l-8.51,4.53v3.87Zm-33.27,0c5,2.43,7.41,4.75,7.41,7.52s-2.54,6-7.18,9.62l2.43,2.65c7.3-4.86,10.94-11.16,10.94-17a15,15,0,0,0-5.08-11.16l-8.51,4.53v3.87Zm-17.91,0c5,2.43,7.41,4.75,7.41,7.52s-2.54,6-7.18,9.62l2.43,2.65c7.29-4.86,10.94-11.16,10.94-17a15,15,0,0,0-5.08-11.16l-8.51,4.53v3.87Zm-33.27,0c5,2.43,7.41,4.75,7.41,7.52s-2.54,6-7.18,9.62l2.43,2.65c7.3-4.86,10.94-11.16,10.94-17a15,15,0,0,0-5.08-11.16l-8.51,4.53v3.87Zm-33.27,0c5,2.43,7.41,4.75,7.41,7.52s-2.54,6-7.18,9.62l2.43,2.65c7.3-4.86,10.94-11.16,10.94-17a15,15,0,0,0-5.08-11.16l-8.51,4.53v3.87Zm-69.41,47.86h21.66v24.65h6.52V938.47h21.33v-6.08h-21.33V909.18h-6.52v23.21h-21.66v6.08ZM1979.14,949h49.52v-6.08h-49.52V949Zm0-21h49.52v-6.08h-49.52V928Zm-71.62,44.65h55.27v-5.42h-55.27v5.42Zm-45.32-33.49h26.09v-7.3H1862.2v7.3Zm-46.75,41.67,3.54,1.66s20.34-18.24,20.34-49.19c0-29.07-17.57-46-17.57-46l-3.76,1.33a83.06,83.06,0,0,1,13,44.65c0,29-15.58,47.53-15.58,47.53m-39.57-47.53c0,30.95,20.34,49.19,20.34,49.19l3.54-1.66s-15.58-18.57-15.58-47.53a83.06,83.06,0,0,1,13-44.65l-3.76-1.33s-17.57,16.91-17.57,46m-39.68-25.75a5.67,5.67,0,0,0,2.54-.22l12.93-3.54c2-.55,1.33-3.87.44-5.42s-3.32-3.76-5-2.21l-9.51,9.28a5.14,5.14,0,0,0-1.44,2.1M1718,923.11l9.51-9.28a5.14,5.14,0,0,0,1.44-2.1,5.67,5.67,0,0,0-2.54.22l-12.93,3.54c-2,.55-1.33,3.87-0.44,5.42s3.32,3.76,5,2.21m29.18,0.11c1.55,1.55,4.09-.77,5-2.32s1.55-4.86-.55-5.42l-12.82-3.54a5.67,5.67,0,0,0-2.54-.22,5.14,5.14,0,0,0,1.44,2.1Zm-33.6-19.45,12.82,3.54a5.67,5.67,0,0,0,2.54.22,5.14,5.14,0,0,0-1.44-2.1L1718,896c-1.55-1.55-4.09.77-5,2.32s-1.55,4.86.55,5.42m19,28.41c1.77,0,5-1,4.42-3.09l-3.32-12.93a1.42,1.42,0,1,0-2.21,0l-3.32,12.93c-0.55,2.1,2.65,3.09,4.42,3.09m-4.42-42,3.32,12.93a1.42,1.42,0,1,0,2.21,0l3.32-12.93c0.55-2.1-2.65-3.09-4.42-3.09s-5,1-4.42,3.09m-83,11.94c0-5.75,2.65-10.06,7-10.06,6.3,0,8,6.74,8,11.61,0,7-3.87,12-9.06,16.36-3.54-6.52-5.86-12.71-5.86-17.91m5.86,57c-8.73,0-15.81-5.64-15.81-16.69,0-5.75,3.87-10.06,9.28-14a116,116,0,0,0,21.22,25.53,24.54,24.54,0,0,1-14.7,5.2m-25.31-13c0,12.71,11.83,18.35,22.33,18.35a31.9,31.9,0,0,0,21.22-7.52c7.18,5.75,14.7,9.73,21.66,10.83l1.55-2.32c-4.09-2-10.61-7.41-17.57-14.59,5.86-7.63,9.28-17.24,11.72-25,1.55-4.86,2.1-7.52,3.87-10.83l-0.55-1.66h-15.81v2.76c4.75,0.55,7.18,2.65,7.18,7.07,0,8.29-3.54,17.57-9.28,24.65a148.15,148.15,0,0,1-19-24.43c8.4-6,16.58-12.38,16.58-22,0-7-5.31-13.37-15.81-13.37-12.93,0-18,8.62-18,16.69,0,5.42,2.54,12.71,6.74,20.23-8.51,5.64-16.8,11.27-16.8,21.11m-72-10.61h7.07L1580,896.8l19.23,38.69h7.29l-23.65-47.42h-5.53ZM1508.06,948c0-6.08,4.75-11.38,10.72-11.38s10.72,5.31,10.72,11.38-4.75,11.38-10.72,11.38-10.72-5.31-10.72-11.38m-6,0a16.69,16.69,0,1,0,16.69-16.58A16.65,16.65,0,0,0,1502.09,948m-31.61,15.14h6.3l49.63-71.29-4.31-3Zm-1.55-56c0-6.08,4.75-11.38,10.72-11.38s10.72,5.31,10.72,11.38-4.75,11.38-10.72,11.38-10.72-5.31-10.72-11.38m-6,0a16.69,16.69,0,1,0,16.69-16.58A16.65,16.65,0,0,0,1463,907.08m-49.74,7.41c0-5.42,4.2-8.4,9.73-9.06l-0.88,20.12c-5-2.76-8.84-5.86-8.84-11.05m22.55,36.14c0,5.86-5,8.73-10.61,9.28l0.89-21c5.41,2.87,9.72,6.19,9.72,11.72m-32.05,3.09c0,6.63,8.73,9.73,16.8,10.06l-0.33,9.17h4.42l0.33-9.17c10.83-.77,19.57-6.41,19.57-16.8,0-10.83-9.51-15.14-18-19.34l0.88-22.33c7.08,0.77,9.95,6.52,9.28,13.26h3.43l3.09-15.47a99.46,99.46,0,0,0-15.7-1.88l0.44-9.51h-4.42l-0.44,9.73c-12.27,1.11-18.46,8.29-18.46,16.58,0,10.28,8.84,14.59,17,18.68l-0.88,23.1c-6-.88-11.28-4.64-11.28-14.92H1406c-1.66,5.75-2.32,7.18-2.32,8.84M1345.58,927h17.91l-3.43,16.8h-17.91Zm8.51,46h5.42l4.86-24.21h15.7l0.88-5h-15.58l3.43-16.8h15.47l0.88-5h-15.36l4.75-22.77h-5.31L1364.49,922h-17.91l4.75-22.77H1346L1341.27,922H1327l-0.88,5h14.15l-3.43,16.8h-14l-0.88,5h13.93l-5,24.21h5.42l4.86-24.21h17.91Zm-133-30.18c0,21,15.25,37.8,35.7,38.69l1.11-4.42c-15-.88-29-14.15-29-35.81s13.93-38.8,35.26-38.8c20,0,30.95,14.92,30.95,34.49,0,17.46-8.84,21.55-13.26,21.55-2.76,0-4-1.55-4-5.2V923.66a44.47,44.47,0,0,1,1.44-9.73,50.35,50.35,0,0,0-9.84-1c-16.25,0-29.84,14-29.84,31.94,0,12.82,7.07,19.56,14.7,19.56,6.08,0,11.5-4.2,14.92-10.61v4.31a26.61,26.61,0,0,1-.88,6l0.22,0.44,11.61-1.66c16.58-2.32,22.55-17,22.55-29.62,0-20.67-16-35.92-37-35.92-24.65,0-44.65,21.22-44.65,45.43m28.19-.55c0-23.76,19.56-24.87,19.56-24.87v34.15c-3,2.87-6.74,5.86-10.83,5.86-4.31,0-8.73-3.87-8.73-15.14m-79.69-53.72,15.58,18.79,3.43-1.88-9.4-18.9-9.62-1v3Zm-87.54,55.27h6.52c0-4.09,1.22-11.05,7.85-11.05,8.51,0,9.28,11.5,22,11.5,8.29,0,14-5,14-17.13H1126c0,4.09-1.22,11.05-7.85,11.05-8.51,0-9.28-11.5-22-11.5-8.29,0-14,5-14,17.13m-40.57,14a6.63,6.63,0,1,0,6.63-6.63,6.65,6.65,0,0,0-6.63,6.63m5.42-14.15h2.76l3.65-44.77c0.66-8.4,1.88-11.94,1.88-11.94l-0.33-.33s-3,1.33-12.82,4Zm-80.8-5.75c0,13.15,8.07,26.53,24,26.53,17.13,0,25.64-14.7,25.64-28.74,0-13.15-8.07-25.86-24-25.86-17.13,0-25.64,14-25.64,28.08m24.76,21.33c-9.62,0-15.36-11.05-15.36-22.33,0-10.83,5.64-21.89,15.47-21.89,9.62,0,15.36,10.94,15.36,21.66,0,11.38-5.64,22.55-15.47,22.55m-88,21.44,0.66,3.87c26.75,0,39.46-21.89,39.46-43.11,0-16.8-7.74-31.61-23.43-31.61-14.59,0-22.44,13.26-22.44,25.53,0,11.61,5.86,22.22,18.13,22.22a19.94,19.94,0,0,0,10.28-2.76l-0.77-3.54c-12.93,5.2-18-9.06-18-19.34,0-8.84,4.09-18.35,11.27-18.35,9.17,0,14.92,14,14.92,29.07,0,17.69-8.51,36.7-30.06,38m-61.79-78.26c0-6.63,5.75-10.5,10.83-10.5,5.31,0,10.17,4.2,10.17,12.27,0,6.74-3.54,11.83-8.62,15.58-6.63-5.42-12.38-10.72-12.38-17.35m-2.76,42.22c0-8.29,3.87-13.71,9.4-17.91,8.29,6.63,16.69,12.82,16.69,21.33,0,8-7.18,12.49-13.26,12.49-6.85,0-12.82-5.75-12.82-15.92m-9,1.33c0,13,11.16,18.46,21.22,18.46,13,0,22.88-9.17,22.88-19.34,0-9.4-8.73-16.25-17-22.88,6.85-4.31,14.59-9.17,14.59-18.79,0-9.17-7.3-15.36-18.35-15.36-12.27,0-20.67,7.3-20.67,16.8,0,7.85,6,13.93,12.71,19.56-7.85,5-15.36,10.94-15.36,21.55m-54.71,27.3c-2.76,4.31-3.76,5.42-3.76,7.63,0,1.77,1,3.65,3.87,3.65,3.32,0,4.09-3.21,6.85-9.4L805,922.66a57.07,57.07,0,0,1,5.42-9l-0.55-3a49.45,49.45,0,0,1-7.07.44H766.29l-3.21,15.92h3.21c2.54-7.18,4-7.07,11.38-7.07h16.8c2.21,0,5.08-.22,7.18-0.44l-8.07,17.8c-10.39,22.88-15.81,31.17-18.9,35.92m-53.06-8.84c15.14,0,23-13.26,23-25.53,0-11.94-5.86-22.77-18.68-22.77a19.94,19.94,0,0,0-10.28,2.76l0.77,3.54c13.26-5,18.57,8.73,18.57,19.9,0,8.84-4.09,18.35-11.83,18.35-9.17,0-14.92-14.26-14.92-29.62,0-17.91,8.51-37.8,30.06-39.13l-0.66-3.87c-26.75,0-39.46,22.77-39.46,44.21,0,17.13,7.74,32.16,23.43,32.16M640.4,980.58l0.66,3.87s1.44,0.11,3.21.11c16.58,0,31.94-10.94,31.94-25,0-21.33-30.4-24.87-30.4-24.87L646.7,919h25.42l1.55-8.51a45.31,45.31,0,0,1-7.74.66H642.61L641,942.56s25.75,1.88,25.75,18.68c0,11.05-11.16,19.34-26.31,19.34m-61.79-27.74,22-29.51c-0.22,2.1-.44,5-0.44,7.18v22.33H578.62Zm-7.18,6.52h28.74v18.79a26.41,26.41,0,0,1-.55,6.08l0.44,0.33,8.51-.88a23.1,23.1,0,0,0,.55-6.08V959.36H620l1.33-6.52H609.12V922a64.86,64.86,0,0,1,.88-12l-0.22-.33-5.86,1.77L570.66,956Zm-55.6,21.22,0.66,3.87s1.55,0.11,2.32.11c13.82,0,32.83-7.41,32.83-25.75,0-8.51-7.3-14.81-19.23-16,7-2.87,16.8-10.5,16.8-19.23,0-8.51-6.85-13.71-15.81-13.71-11.27,0-18.13,9.28-18.13,9.28l2.1,2.43s6.08-5.42,12.6-5.42c6.08,0,9.17,4.31,9.17,9.73,0,9.17-9.28,16-17.24,16.8v5.19a21.56,21.56,0,0,1,3.21-.22c7.52,0,16.36,2.65,16.36,12.82,0,15.58-14.81,20.12-25.64,20.12m-59.47-17.46h37.25L497,945.87h-3.21c-1.66,4.75-3.54,9.4-11.16,9.4h-16C480,944,489.86,932.94,489.86,923.66s-8.07-13.82-15.58-13.82c-12,0-18.9,9.28-18.9,9.28l2.1,2.43c3.54-2.65,8.4-4.64,12.71-4.64,5.08,0,9.62,2.65,9.62,9.62,0,12.6-15.92,25.64-24.32,33.16Zm-51.95.55,28.52-.55,0.44-3.32L422,958.7a30.58,30.58,0,0,0,.55-5.86V915.92l9.84-1.22,0.44-3.54h-29v3.76c7.85,0,9.84,1.44,9.84,6.52v31.39c0,5.08-2.21,7.07-9.28,7.07v3.76Z"/><path class="cls-2" d="M2511.57,794.75a49.44,49.44,0,0,1,7.07-.44h48.19l4.53-20.23h-3.76c-5.53,12.49-7.29,15.92-16.8,15.92H2523a52.16,52.16,0,0,0,4.42-5.42L2564,732c4-5.64,5.53-7.85,5.53-7.85l-0.44-4a49.45,49.45,0,0,1-7.07.44h-45.32l-2.76,18h3.76c4.2-11.38,7.18-13.71,16.25-13.71h24.32c-1.44,1.66-3.09,3.76-4.31,5.42L2517,782.92a71.49,71.49,0,0,1-6.08,7.85Zm-61.56-.11,26.64-.66,0.44-3.09-9.95-1a28.17,28.17,0,0,0,.55-5.64V761.48l20.23-32.61a16.12,16.12,0,0,1,7.63-6.74l-0.44-1.55h-18v2.76c5.64,0.88,6.19,4,4.42,6.85L2465,756.84a65.53,65.53,0,0,0-3.21-6.19l-13.71-22.11c-2.32-3.76-.22-8-0.22-8l-0.44-.44s-4.31.44-11.27,0.44h-5.31v2.76s3.21,0.66,5.86,4.86L2458,761.7v22.55c0,3.76-3.09,6.3-8,6.85v3.54Zm-100.14-.33h22.66l0.44-3.43-10.17-1.33,18.9-27,16.14,24.21c1.88,2.87,1.11,3.87-3.43,4.42v3.54s12.6-.44,17.57-0.44h5l0.44-3.09-5.64-.88L2388,755.4l18.57-26.53c4.2-5.64,8.18-6.52,8.18-6.52l-0.55-1.77h-18.79v2.76c5.53,0.88,6.3,3.76,4.31,6.63l-14.48,21.11-15-22.55c-2.43-3.65-.77-8-0.77-8l-0.44-.44a107.29,107.29,0,0,1-10.94.44h-6.85v2.76a12.19,12.19,0,0,1,7.41,4.86l20.23,30-19.9,28.41c-1.44,2-4.2,4.09-9.06,4.53v3.21Zm-47-.33,4.31,1.33L2326.66,734c3.32-9.84,7.18-11.83,7.18-11.83l-0.44-1.55h-16.8v2.76c5.75,1.66,7,4.42,5.31,9.62l-15,47.42c-0.55-2.1-1.33-4.75-2-6.74l-15.58-42.89c-1.22-3.21-.55-7.52.66-10.17l-0.44-.44s-4.42.44-11.38,0.44h-6.74v2.76a10.8,10.8,0,0,1,6.52,6.08l1.88,5.08-14.59,46c-0.55-2.1-1.33-5-2.1-7.07l-15.92-42.67c-1.22-3.21-.55-7.52.66-10.17l-0.44-.44s-4.42.44-11.38,0.44h-6.74v2.76a10.8,10.8,0,0,1,6.52,6.08L2261.22,794l4.31,1.33,17-53.83Zm-122,0,3.65,1.33L2209.94,734c4-9.62,7.18-11.83,7.18-11.83l-0.44-1.55h-16.91v2.76c5.86,1.66,7.41,4.53,5.31,9.62l-19.9,48.3c-0.55-2.1-1.44-4.86-2.1-6.85l-16.25-43.66c-1.22-3.21-.55-7.52.66-10.17l-0.44-.44s-4.42.44-11.38,0.44h-6.74v2.76a10.8,10.8,0,0,1,6.52,6.08Zm-114.51-25.64c0,20.23,14.7,27.3,29.29,27.3,16.58,0,30.51-9.73,30.51-27.74V733.4c0-9.17,7.63-11.27,7.63-11.27l-0.55-1.55h-21.44v3.09c8.84,0.88,9,3.43,9,8.29v36.25c0,14.92-11.61,22.44-22.66,22.44s-22-7.07-22-23.21V734c0-9.17,3.65-13.37,3.65-13.37l-0.55-.44s-2.43.44-12.38,0.44h-8.62v2.76c8.18,1.66,8.18,2.76,8.18,8.07v36.92ZM1994,794.64l27.74-.66,0.44-3.09-11.05-1a32.57,32.57,0,0,0,.55-6V726l1.11-1.11h10.94c8.62,0,12.27,2.32,11.72,13.71h3.76l3.43-18.68a46.43,46.43,0,0,1-8,.66h-51.73a36.26,36.26,0,0,1-7.41-.66l-3.43,18.68h3.76c4.2-11.38,7.52-13.71,15.14-13.71h10.94v59c0,4-3,6.63-8,7.18v3.54Zm-86.32-10.39c0,8.07,11.72,11.38,21.33,11.38,13.26,0,24.65-6.19,24.65-19.45,0-23.76-34.6-21.89-34.6-41.23,0-8.07,6.3-11.5,13.71-11.5,9.28,0,13.48,6.85,12.38,15.14h3.76l3.43-17.24c-2.43-.33-10.39-2.1-18.24-2.1-16.36,0-24.65,8.29-24.65,19.23,0,22.44,34.6,22.11,34.6,41.34,0,8.51-6.85,11.61-14,11.61-7.52,0-16-3.54-16-17h-3.76c-2.1,6.63-2.54,8.18-2.54,9.84m-63.33-27V726l1.11-1.11h4.09c13.6,0,18.35,8,18.35,16.36,0,10.72-7.63,16-14.26,16h-9.28Zm-17.69,37.36,26.64-.66,0.44-3.09-9.95-1a28.17,28.17,0,0,0,.55-5.64V762.69l1.11-1.11h8.07l13.71,20.23A76.72,76.72,0,0,1,1874,794l0.44,0.33h16l0.44-3.54-1.22-.11c-2.87-.22-5.08-0.44-9.84-7.3L1864,760V758.6c5.31-2.76,14.59-9.84,14.59-20.23,0-9.62-7.52-17.8-27.41-17.8h-25.64v2.76c8.51,1.66,9.06,2.76,9.06,8.07v52.83c0,3.76-3.09,6.3-8,6.85v3.54Zm-89.86-39.13c0-16.25,10.06-31.83,27.3-31.83,18.35,0,28.74,17.35,28.74,33.93,0,16.14-10.06,33.6-27.41,33.6-18.24,0-28.63-19.23-28.63-35.7m18.13,39.24c7,1.33,8.73,0,15,7.41,4.31,5,12.82,17.35,25.53,17.35a27.32,27.32,0,0,0,11.94-3.21v-2.87a20.87,20.87,0,0,1-4.2.44c-13.48,0-20.78-13.82-28.19-19.9,17.8-5.31,28.74-21.77,28.74-39.13,0-20-14.7-35.59-37.8-35.59-25.86,0-40.12,19.23-40.12,39.13,0,17.57,11.16,32.83,29.07,36.36m-102.9-.11,27.19-.66,0.44-3.09-10.5-1a28.17,28.17,0,0,0,.55-5.64V726l1.11-1.11h1.66c11.72,0,22.11,5.08,22.11,18.35,0,8.73-5,16.69-17.8,17v3.09c11.94,1.22,28.63-4.64,28.63-22.44,0-16.25-14.37-20.34-27.08-20.34h-27.41v2.76c8.51,1.66,9.06,2.76,9.06,8.07v52.83c0,3.76-3.09,6.3-8,6.85v3.54Zm-100.81-36.25c0,20.12,14.7,37.25,37.36,37.25,24.43,0,40.57-19.67,40.57-40.79,0-20-14.7-35.59-37.8-35.59-25.86,0-40.12,19.23-40.12,39.13m10.94-2.87c0-16.25,10.06-31.83,27.3-31.83,18.35,0,28.74,17.35,28.74,33.93,0,16.14-10.06,33.6-27.41,33.6-18.24,0-28.63-19.23-28.63-35.7m-106.77,39.13,21.77-.66,0.44-3.09-9.95-.66a32.57,32.57,0,0,0,.55-6V734.07a60.32,60.32,0,0,0,4,5.31l47,55.49H1522V733.4c0-9.17,7.63-11.27,7.63-11.27l-0.55-1.55h-21v3.09c9,0.88,9.06,3.43,9.06,8.29v46c-1.22-1.77-3-4.09-4.42-5.86l-40-46.2a33.83,33.83,0,0,1-4.09-5.75s-5.64.44-11.05,0.44h-3.32v2.76c7.3,1.33,9.06,3.54,9.06,11.16v49.74c0,4-3,6.3-8,6.85v3.54Zm-113.41,0,21.77-.66,0.44-3.09-10.17-.66a35.78,35.78,0,0,0,.77-6l2-49.74c0.11-2.1.33-4.31,0.33-4.31L1382.61,793l3.43,1.33,26.53-64.22,2.43,54.49c0.11,3.76-3.09,6-8,6.52v3.54l26.42-.66,0.44-3.09-9.73-.66a27.19,27.19,0,0,0,.33-5.64l-2.1-50.07c-0.33-9.4,3.54-13.93,3.54-13.93l-0.55-.44s-2.21.44-11.94,0.44h-2.87s-1.55,5.31-2.43,7.63l-21.44,52.17a60.14,60.14,0,0,0-2.1-6.3l-16.91-43.33a94.26,94.26,0,0,1-3.21-10.17l-0.44-.44a108.11,108.11,0,0,1-12.16.44H1343v2.76c8.51,1.66,9.17,2.76,9,8.07l-2.1,52.83c-0.22,4.09-3,6.3-8,6.85v3.54Zm-73.72,0s9.95-.33,15.47-0.33h35.59l4.53-20.23h-3.76c-5.53,12.49-7.3,15.92-16.8,15.92h-18.46a34.64,34.64,0,0,0,.55-6.08V734c0-9.17,3.65-13.37,3.65-13.37l-0.55-.44s-2.43.44-12.38,0.44h-8.62v2.76c8.18,1.66,8.18,2.76,8.18,8.07v52.83c0,4-2.43,6.3-7.41,6.85v3.54Zm-84.11,0,26.64-.66,0.44-3.09-9.95-1a28.18,28.18,0,0,0,.55-5.64v-26h1.77l20.67,24c7.18,8.4,8.29,11.72,8.29,11.72l0.33,0.33h16.25l0.44-3.54-1.22-.11c-3.54-.33-4.42-0.55-9.4-6.3l-26.75-30.73v-1.11l20.89-20.78c8.29-8.29,14.26-9.62,14.26-9.62l-0.55-1.55H1226.1v2.76c5.31,0.66,5.19,3.54,3.09,5.64l-21.55,21.44a22.93,22.93,0,0,1-3.76,3h-2.1V734c0-9.17,3.65-13.37,3.65-13.37l-0.55-.44s-2.43.44-12.38,0.44h-8.62v2.76c8.18,1.66,8.18,2.76,8.18,8.07v52.83c0,3.76-3.09,6.3-8,6.85v3.54Zm-39.24-5.86c0,11.27-5.75,20-11.72,20.89l1.33,2.65c12.38,0,20.12-10.83,20.12-29.29V734c0-9.17,3.65-13.37,3.65-13.37l-0.55-.44s-2.43.44-12.38,0.44h-8.62v2.76c8.18,1.66,8.18,2.76,8.18,8.07v57.37ZM1089,794.64l27.19-.66,0.44-3.09-10.5-1a28.18,28.18,0,0,0,.55-5.64V734c0-9.17,3.65-13.37,3.65-13.37l-0.55-.44s-2.43.44-12.38,0.44h-8.62v2.76c8.18,1.66,8.18,2.76,8.18,8.07v52.83c0,3.76-3.09,6.3-8,6.85v3.54Zm-101.25,0,26.64-.66,0.44-3.09-9.95-1a32.57,32.57,0,0,0,.55-6V760.26l1.11-1.11h41.12v25.09c0,3.76-3.09,6.3-8,6.85v3.54l26.64-.66,0.44-3.09-9.95-1a32.57,32.57,0,0,0,.55-6V734c0-9.17,3.65-13.26,3.65-13.26l-0.55-.44a122.43,122.43,0,0,1-12.38.33h-8.62v2.76c8.18,1.66,8.18,2.76,8.18,8.07v22l-1.11,1.11h-41.12V734c0-9.17,3.65-13.37,3.65-13.37l-0.55-.44s-2.43.44-12.38,0.44h-8.62v2.76c8.18,1.66,8.18,2.76,8.18,8.07v52.5c0,4-3,6.63-8,7.18v3.54Zm-92.18-35.7c0,23.76,18.24,36.7,40.34,36.7,8.07,0,17.91-1.77,25.09-2.87v-18c0-8.51,4.31-10.5,4.31-10.5l-0.55-1.55H941.26v2.76c9.73,1.44,10.17,2.76,10.17,8.07v16a50.14,50.14,0,0,1-11.05,1.33c-20.34,0-33.93-14.48-33.93-34.49,0-17.46,10.06-32.94,29.4-32.94,8.73,0,18.35,3,18.46,15.14h3.76l3.32-16.91c-3.65-.33-15.36-2.43-24.76-2.43-28.3,0-41,19.9-41,39.68m-70.52,35.7,28.85-.66,0.44-3.09-12.16-1a32.57,32.57,0,0,0,.55-6V760.7l1.11-1.11h18.35v8.18h5.19V748.32l-4.09.66-0.88,6.3H842.78V726l1.11-1.11h13.37c8.84,0,12.49,2.32,11.94,13.71H873l3.43-18.46a69,69,0,0,1-8,.44H824v2.76c8.51,1.66,9.06,2.76,9.06,8.07v52.5c0,4-3,6.63-8,7.18v3.54Zm-77.37,0s10.5-.33,16-0.33h34.49l4.09-18h-3.76C793,787.9,791.72,790,782.21,790H764.86a36.79,36.79,0,0,0,.55-6.19V760.15l1.11-1.11h19.12v8.18h5.19V747.77l-4.09.66-0.88,6.3H765.41V726l1.11-1.11H781c8.84,0,12.49,2.32,11.94,13.71h3.76l3.43-18.46a69,69,0,0,1-8,.44H746.62v2.76c8.51,1.66,9.06,2.76,9.06,8.07v52.83c0,4-3,6.3-8,6.85v3.54ZM670.58,790a36.79,36.79,0,0,0,.55-6.19V726l1.11-1.11h9.95c20.67,0,31.61,12.82,31.61,32.39,0,18.35-9.51,32.72-35.37,32.72h-7.85Zm-17.13,4.64s10.5-.33,16-0.33h9c27.63,0,46.31-14.59,46.31-39.57,0-26.09-20.67-34.15-42.11-34.15H652.34v2.76c8.51,1.66,9.06,2.76,9.06,8.07v52.83c0,4-3,6.3-8,6.85v3.54Zm-88.75-36.36c0,23.87,18.79,37.36,38.46,37.36,19.23,0,27.52-12.82,27.52-12.82l-1.55-2.32a34.51,34.51,0,0,1-22.22,7.85c-18,0-31.94-13.37-31.94-33.27,0-17.91,11.27-31.61,28.3-31.61,9,0,18.68,3.65,18.68,15.14h3.76L629,721.8c-5.75-.55-15.58-2.54-23.87-2.54-23.76,0-40.45,16.47-40.45,39M504,754.18V726l1.11-1.11h5.19c11.38,0,15.7,7.41,15.7,13.93,0,7.07-5.08,15-10.61,15.36H504ZM503.45,790a34.64,34.64,0,0,0,.55-6.08V759.6l1.11-1.11h3c4.42,0,23-.55,23,16.58,0,7.52-3.65,14.92-20.56,14.92h-7.07Zm-17.13,4.64s10.5-.33,16-0.33h9.95c19.9,0,30-9.17,30-20.89,0-13.48-13.37-17.46-18.57-18.57,6.74-3.76,13.15-9.84,13.15-18.13,0-8.73-7.18-16.14-25.75-16.14H485.22v2.76c8.51,1.66,9.06,2.76,9.06,8.07v52.83c0,4-3,6.3-8,6.85v3.54ZM433,739l9.51,25.2h-24l12.27-31.94A67.4,67.4,0,0,0,433,739m-35.7,55.27h20.45l0.44-3.09-9.4-1.33,7.63-19.9,1.44-1.11h26.42l6.74,17.69c1.22,3.32-1.55,4.2-4.64,4.31v3.76s12.71-.33,16.8-0.33H468l0.44-3c-3.43-.55-5.42-1.11-8.4-8.62l-24.54-62.78-4.53,1-26.2,65.21c-0.88,2.21-2.76,4.53-7.41,5v3.21Z"/><path class="cls-2" d="M1994.62,625.94a52.66,52.66,0,0,1,7.52-.44h30.06l3-14.81H2032s-2.43,11.05-13.15,11.05h-13.48a64.77,64.77,0,0,0,4.09-5.53l20.89-32.72c3.32-5.08,3.76-5.31,3.76-5.31l-0.88-2.87a52.67,52.67,0,0,1-7.52.44h-29.07l-2,13h3.21c0.88-3.09,3.87-9.4,10.61-9.4h14.7c-1.33,1.66-3,3.76-4,5.31l-21.44,33a32.24,32.24,0,0,1-4,5.31ZM1936,642.52c-4,0-5.42,2.32-5.42,4.53a4.53,4.53,0,0,0,4.86,4.64c10.61,0,16.91-18.24,19.9-24.87l19.12-43.44c2-4.75,4-5.86,4-5.86l-0.55-1.77h-15.36v2.76c4.09,1.11,8,3.54,6.08,8L1956.16,615c-0.55-2-1.44-4.75-2.1-6.63l-9-22.44c-1.22-3-1.22-7.52.11-10.17l-0.44-.44s-4.31.44-11.27,0.44h-5.2v2.76s3.87,0.88,6.19,6.41l14.15,33.82c1.22,3.09,2.1,5.64,2.65,7.18l-3.54,8.29c-2,4.53-5.86,8.29-11.72,8.29m-41.67-16.69,21.33-.66,0.44-2.65-5-.44-16.8-23.87,12-15.14c3.87-4.86,7.63-5.53,7.63-5.53l-0.55-1.77h-17.35v2.76c5.31,0.77,6.3,2.76,4.53,5.2L1892,594.66l-7.41-10.94a9.37,9.37,0,0,1-1.55-8l-0.44-.44s-4,.44-11.38.44H1866v2.76s4.53,0.44,8.29,5.86l11.83,16.8-13.6,17a10.85,10.85,0,0,1-7.63,4.42v3.21l18.35-.66,0.44-2.76-8.4-1,13.15-16.69,9.4,13.6c1.88,2.76,1.44,4.09-3.43,4.09v3.43Zm-100.92-.33,4.09,1.44L1812,593l12.71,32.5,4.09,1.44,18.57-43.55c2.1-5,4-5.86,4-5.86l-0.55-1.77H1836v2.76c4.2,1,7.41,3.54,5.53,8l-12,28.63c-0.55-2-1.22-4.42-1.88-6.3l-8.51-22.88a14.69,14.69,0,0,1,.11-10.17l-0.44-.44a106.09,106.09,0,0,1-10.83.44h-5.08v2.76s4,0.77,6.08,6.41l0.22,0.77a8.7,8.7,0,0,1-.66,5.08l-10.28,24.43-1.77-6-8.62-23.32a14.69,14.69,0,0,1,.11-10.17l-0.44-.44a106.09,106.09,0,0,1-10.83.44h-5.08v2.76s3.87,0.77,6.08,6.41Zm-61.56,0,4.64,1.44,19.34-43.66c2.32-5.08,4-5.75,4-5.75l-0.55-1.77h-14.92v2.76c4.2,1,7.63,3.21,5.53,8.07l-13,29.51c-0.55-2.1-1.33-4.86-2-6.85l-8.4-23.32a14,14,0,0,1,.11-10.17l-0.44-.44s-4.09.44-11.05,0.44H1710v2.76s3.87,0.77,6.08,6.41ZM1646.45,612c0,10.61,4.75,14.81,12.49,14.81,9.28,0,16.58-6.52,20.56-12.38v5.75a23.91,23.91,0,0,1-1,6l0.44,0.33s6.08-1,18.13-2.21l0.33-3h-3.09c-3.65,0-6.19,0-6.19-6.3V585.81c0-8.51,1-11.61,1-11.61l-0.44-.33a105.56,105.56,0,0,1-16.58,4.09v3.09h3.65c3.21,0,3.32,2.76,3.32,7.52v23.65c-4.75,4.86-10.94,7.85-16,7.85-4.53,0-7.52-2.21-7.52-10.61V585.81c0-8.51,1-11.61,1-11.61l-0.44-.33a109.41,109.41,0,0,1-16.8,4.09v3.09h3.87c3.21,0,3.32,2.76,3.32,7.52V612Zm-49.3.33c0,10.06,4.42,14.48,12.27,14.48,9.62,0,15.92-6.85,15.92-6.85l-1.44-2.1a27.16,27.16,0,0,1-9.95,2.32c-5.86,0-7.74-3.54-7.74-9.95V582.17l1.11-1.11h15.25l0.77-5.31h-17.24V574.1c0-7.85,1-11.05,1-11.05l-0.33-.33-5-.11-4.09,12c-2.65,2.43-7.52,3.43-7.52,3.43v3.32h7.3s-0.33,4-.33,7.18v23.76Zm-59,7c0,6.3,11.5,7.52,16.58,7.52,10.5,0,17.69-5.31,17.69-14.48,0-17.46-25.2-15.36-25.2-27.08,0-3.43,2.32-7.07,8.29-7.07,2.32,0,9.95.55,9.95,9.62h3.43l2.21-11.38a60.39,60.39,0,0,0-13.82-2c-11.72,0-18,5.86-18,14,0,16,25.31,15.25,25.31,27.08,0,4.64-3.76,7.52-9.17,7.52s-11.83-2.76-12.49-12.16h-3.32a62.65,62.65,0,0,0-1.44,8.4m-52.61,6.52,25.42-.66,0.44-2.76-10.5-1a32.57,32.57,0,0,0,.55-6v-26c2.43-2.76,6.08-6.41,9.84-6.41,2.54,0,2.87,1.88,5.42,1.88a5.11,5.11,0,0,0,5.2-5.42c0-3.76-3.32-5.08-6-5.08-5.75,0-11.61,6.63-14.92,12.82,0.33-10.39,1.33-14,1.33-14l-0.33-.33a104.27,104.27,0,0,1-17.91,5.2v3h5c3.21,0,3.32,2.76,3.32,7.52v26.86c0,4-1.88,6.63-6.85,7.18v3.21Zm-58.91-26.09c0-12.82,8.18-21.11,18.35-21.11a22.23,22.23,0,0,1,8.07,1.55v36.14a19.48,19.48,0,0,1-11.27,4.09c-9.73,0-15.14-10.17-15.14-20.67m-9.62,3.09c0,12,7.52,24,20.78,24,8.18,0,12.93-4.53,15.7-8.18,0,0.88-.44,3.09-0.44,8.18V639c0,5.08-1.88,7.85-6.85,10.61v3.21a150.72,150.72,0,0,1,23.21-4.64l0.44-2.65h-8.29a38.52,38.52,0,0,0,.55-6.19V587.14a51.51,51.51,0,0,1,1-11.05l-0.33-.33c-5-.11-11.16-1.33-16.69-1.33-18.9,0-29.07,14.15-29.07,28.41m-47.2,19.79c-3.65,0-8-.77-8-6V585.48c3.43-2.65,7.41-4.64,11.72-4.64,9.84,0,14.48,10.28,14.48,20.89,0,12.6-6.74,20.89-18.24,20.89m-22.77,30c8-2.65,25.42-4.75,25.42-4.75l0.44-2.65h-11.61a39,39,0,0,0,.55-6.3V626.16a44.79,44.79,0,0,0,7.41.66c19.45,0,28.41-14.26,28.41-28.3,0-12.16-6.63-24.1-20.12-24.1-8.73,0-12.93,4.86-15.92,8.62a66.51,66.51,0,0,1,1.11-9.84l-0.33-.33a87.92,87.92,0,0,1-17.35,5.2v3h4.42c3.21,0,3.32,2.76,3.32,7.52V639c0,5.08-.77,7.63-5.75,10.39v3.21Zm-59.69-53.39c0-10.61,4.31-21,14.48-21,11.16,0,15.58,12.6,15.58,23.54,0,11.83-5.08,21.33-14.48,21.33-11.05,0-15.58-12.82-15.58-23.87m-10.17,2.54c0,14.15,8.62,25.09,24.21,25.09,17.69,0,26.2-14.48,26.2-28.19s-8.29-24.21-24.43-24.21c-18.79,0-26,14.37-26,27.3m-74.28,24.1,23.76-.66,0.44-2.76-8.84-1.11a30.58,30.58,0,0,0,.55-5.86V588.91c4.64-4.75,11.38-7.74,16.47-7.74,4.42,0,7.63,2.21,7.63,10.61v23.65c0,4-1.33,6.63-6.3,7.18v3.21l23.76-.66,0.44-2.76-9.4-1.11a30.58,30.58,0,0,0,.55-5.86V589.35c0-10.72-5-14.92-12.6-14.92-9.28,0-17,6.3-21,12.27,0.11-9.84,1.11-13.48,1.11-13.48l-0.33-.33a97.37,97.37,0,0,1-17.69,5.2v3h5c3.21,0,3.32,2.76,3.32,7.52v26.86c0,4-1.88,6.63-6.85,7.18v3.21Zm-104.45,0,23.76-.66,0.44-2.76-8.84-1a32.57,32.57,0,0,0,.55-6V588.91c4.75-4.75,10.94-7.74,15.92-7.74,4.2,0,6.52,2.21,6.52,10.61v23.65c0,4-1.33,6.63-6.3,7.18v3.21l23.21-.66,0.44-2.76-8.84-1a32.57,32.57,0,0,0,.55-6V592.11c0-6.41,11.27-10.94,16.25-10.94,4.09,0,6.41,2.21,6.41,10.61v23.65c0,4-1.33,6.63-6.3,7.18v3.21l23.76-.66,0.44-2.76-9.4-1a32.57,32.57,0,0,0,.55-6V589.35c0-11.05-4.64-14.92-11.83-14.92-8.73,0-16,6.08-20.23,12.71,0-8.73-4.53-12.71-11.61-12.71-9,0-16,6.41-20,12.16,0.33-9.84,1.33-13.37,1.33-13.37l-0.33-.33a97.37,97.37,0,0,1-17.69,5.2v3H1102c3.21,0,3.32,2.76,3.32,7.52v26.86c0,4-1.88,6.63-6.85,7.18v3.21Zm-41.56,0,24.32-.66,0.44-2.76-9.4-1a32.57,32.57,0,0,0,.55-6V556.74c0-8.51,1.11-12.6,1.11-12.6l-0.33-.33s-5.08,2.21-17.8,5v3h4.64c3.21,0,3.32,2.76,3.32,7.52v56.15c0,4-1.88,6.63-6.85,7.18v3.21Zm-68.2,0,23.76-.66,0.44-2.76-8.84-1a32.57,32.57,0,0,0,.55-6V599.63h1.33l16.47,18.57a27.88,27.88,0,0,1,4.53,7.63l15.92-.33,0.44-3.32-1.22-.11c-4.09-.33-5.08-1.22-9.95-6.52l-16.36-17.69a20.3,20.3,0,0,1-1.77-2.21v-1.11l12.82-10.94a32.86,32.86,0,0,1,11.61-6.08l-0.55-1.77h-20.23v2.76c2.43,0.66,3.65,1.44,3.65,2.76,0,2-2.43,3.76-4.2,5.31l-11.16,9.4h-1.33V556.74c0-8.51,1.11-12.6,1.11-12.6l-0.33-.33s-5.08,2.21-17.8,5v3h4.64c3.21,0,3.32,2.76,3.32,7.52v56.15c0,4-1.88,6.63-6.85,7.18v3.21Zm-27.85-62.67a6,6,0,1,0-6-6,6.09,6.09,0,0,0,6,6m-3.54,65c0,11.27-5.75,20-11.72,20.89l1.33,2.65c12.38,0,19.45-10.83,19.45-29.29v-37c0-9,1.22-12.16,1.22-12.16l-0.11-.33s-2.43,1.44-18.46,5.2v3h5c3.21,0,3.32,2.76,3.32,7.52v39.57Zm-37.25-65a6,6,0,1,0-6-6,6.09,6.09,0,0,0,6,6m-10.39,62.67,24.32-.66,0.44-2.76-9.4-1a32.57,32.57,0,0,0,.55-6V585.81c0-9,1.22-12.6,1.22-12.6l-0.11-.33s-2.32,1.44-18.46,5.2v3h5c3.21,0,3.32,2.76,3.32,7.52v26.86c0,4-1.88,6.63-6.85,7.18v3.21Zm-74.28,0,23.76-.66,0.44-2.76-8.84-1a32.57,32.57,0,0,0,.55-6V588.69c4.64-4.42,11.38-7.52,16.47-7.52,4.42,0,7.63,2.21,7.63,10.61v23.65c0,4-1.77,6.63-6.3,7.18v3.21l23.76-.66,0.44-2.76-9.4-1a32.57,32.57,0,0,0,.55-6V589.35c0-10.72-5-14.92-12.6-14.92-9.28,0-17,6.19-21,11.94,0-.88.44-3.09,0.44-8.18V556.74c0-8.51,1.11-12.6,1.11-12.6l-0.33-.33s-5.08,2.21-17.8,5v3h4.64c3.21,0,3.32,2.76,3.32,7.52v56.15c0,4-1.88,6.63-6.85,7.18v3.21Zm-42-20.23c-8.18,0-11.38-6.74-11.38-13.6s3.09-13.71,10.83-13.71c8,0,11.61,7.52,11.61,14.59,0,6.52-3.09,12.71-11.05,12.71m3,21.33c7.3,1.55,13.82,3.76,13.82,9.4,0,6.74-9,11.16-17,11.16-7.3,0-13.93-3.65-13.93-10.5,0-6.08,5.19-10.17,7.85-11.94,3,0.66,6.19,1.22,9.28,1.88m-21.11-9.51c0,3.76,4,5.75,9.17,7.07-5.08,2-13.93,5.31-13.93,13.82,0,9.28,10.83,13.37,20.78,13.37,13.6,0,28.08-7.74,28.08-18.57,0-9-9.95-12-19.23-13.93-8.62-1.77-15.25-2.54-15.25-5.53,0-1.55,2-3.76,2.76-4.64a29,29,0,0,0,5.42.44c11.05,0,21-6.19,21-16.58a14.92,14.92,0,0,0-4.53-10.83,19,19,0,0,0,3.87.33h5.86l1-7.18a23.82,23.82,0,0,1-7.3,1.44h-5.31c-5.53,0-8.18-2.21-14.59-2.21-10.94,0-20.67,6.3-20.67,17.8,0,8.84,5.86,14.15,13.26,16.25-4,2.1-10.39,4.31-10.39,9m-50.51,8.4,26.53-.66,0.44-2.76-11.61-1a32.57,32.57,0,0,0,.55-6V582.17l1.11-1.11h13.6l0.88-5.31H740.65v-6.08c0-14.26,2.65-19.56,8.29-19.56,6,0,8.4,5.64,12.38,5.64a4.31,4.31,0,0,0,4.64-4.2c0-4.64-6.52-6.52-11.83-6.52-14.37,0-22.55,11.16-22.55,27.63v3l-7,2.43v3.32h7v34c0,4-1.88,6.63-6.85,7.18v3.21Zm-40.12-47.2c9.73,0,10.61,12.6,10.61,12.6l-23.21,3c1-8.29,5.19-15.58,12.6-15.58m-21.66,23c0,12.93,7.74,25.2,23.43,25.2a22.16,22.16,0,0,0,18.9-10.39l-1.22-2.32a21.42,21.42,0,0,1-14.37,5.31c-12.38,0-17.46-9.84-17.91-19.9l1.11-1.33,27.52-4a29.78,29.78,0,0,0,5.08-1.44c-0.33-12.16-9.73-18.35-19.23-18.35-13.37,0-23.32,12.16-23.32,27.19m-46.09,18.79c-9.95,0-15-10.28-15-20.89,0-12.82,7.3-20.89,18.57-20.89,3.54,0,8,.77,8,5.86v31.06a17.19,17.19,0,0,1-11.5,4.86m-24.65-17.57c0,12,7.18,24,20.78,24,8.29,0,12.82-4.53,15.81-9v2.32a48.53,48.53,0,0,1-.44,5.86l0.33,0.33s5.64-.88,17.69-2.1l0.33-3h-3.09c-3.65,0-6.19,0-6.19-6.3V556.74c0-8.51,1.11-12.6,1.11-12.6l-0.33-.33s-5.08,2.21-17.8,5v3H625c3.21,0,3.32,2.76,3.32,7.52v15.81a53,53,0,0,0-7.85-.66c-18.9,0-28.3,14.48-28.3,28.41m-59.69-1.22c0,12.71,8,25.2,23.43,25.2,12.82,0,17.91-9.62,17.91-9.62l-1.22-2.32s-4.53,4.53-12.82,4.53c-13,0-18.24-10.39-18.24-21s5-20.23,13.82-20.23c7.74,0,8.4,8.62,14,8.62a4,4,0,0,0,4.2-4c0-5.75-10.72-8.4-17.46-8.4-15.25,0-23.65,13.82-23.65,27.19m-65.21,23.54,0.33,0.33c3.87,0,10.94,1.33,16.91,1.33,19.34,0,28.52-14.37,28.52-28.3,0-12.16-7-24.1-20.45-24.1-8.29,0-12.71,4.53-15.7,8.18,0-.88.44-3.09,0.44-8.18V556.74c0-8.51,1.11-12.6,1.11-12.6l-0.33-.33s-5.08,2.21-17.8,5v3H465c3.21,0,3.32,2.76,3.32,7.52v54.82a61.3,61.3,0,0,1-1,11.05m10.06-4.09V584.93a18.12,18.12,0,0,1,11.05-4.09c9.95,0,15,10.28,15,20.89,0,12.6-7.3,20.89-18,20.89a21.51,21.51,0,0,1-8.07-1.55M417,620.52c-3.32,0-6.19-2.43-6.19-6.85,0-8,9-11.27,15.25-12.27l3.43-.55v13c-2.87,2.43-8.18,6.63-12.49,6.63m-15.92-4.86c0,6,4.2,11.16,11.5,11.16,11.38,0,17.24-10.5,17.24-10.5V619c0,5.42,3.32,7.85,7.52,7.85,6.52,0,11.72-5.86,11.72-5.86l-1.44-2.32s-3.09,2.21-6.08,2.21c-2.54,0-3-1.66-3-5.2V590.23c0-11.61-2.76-15.81-13.15-15.81A36,36,0,0,0,405,580.62l1.88,8.29h3.54s4.2-10.61,11.72-10.61c4.09,0,6.19,3,7,7.07a73.59,73.59,0,0,1,.44,11.83l-3.76.55c-11.5,1.77-24.65,7.3-24.65,17.91"/><path class="cls-2" d="M1180.12,457l25.42-.66,0.44-2.76-10.5-1a32.57,32.57,0,0,0,.55-6v-26c2.43-2.76,6.08-6.41,9.84-6.41,2.54,0,2.87,1.88,5.42,1.88a5.11,5.11,0,0,0,5.2-5.42c0-3.76-3.32-5.08-6-5.08-5.75,0-11.61,6.63-14.92,12.82,0.33-10.39,1.33-14,1.33-14l-0.33-.33a104.25,104.25,0,0,1-17.91,5.2v3h5c3.21,0,3.32,2.76,3.32,7.52v26.86c0,4-1.88,6.63-6.85,7.18V457Zm-41.56-5.31c-3.32,0-6.19-2.43-6.19-6.85,0-8,9-11.27,15.25-12.27l3.43-.55v13c-2.87,2.43-8.18,6.63-12.49,6.63m-15.92-4.86c0,6,4.2,11.16,11.5,11.16,11.38,0,17.24-10.5,17.24-10.5v2.65c0,5.42,3.32,7.85,7.52,7.85,6.52,0,11.72-5.86,11.72-5.86l-1.44-2.32s-3.09,2.21-6.08,2.21c-2.54,0-3-1.66-3-5.2V421.42c0-11.61-2.76-15.81-13.15-15.81a36,36,0,0,0-20.45,6.19l1.88,8.29h3.54s4.2-10.61,11.72-10.61c4.09,0,6.19,3,7,7.07a73.59,73.59,0,0,1,.44,11.83l-3.76.55c-11.5,1.77-24.65,7.3-24.65,17.91m-35,10.17,24.32-.66,0.44-2.76-9.4-1a32.57,32.57,0,0,0,.55-6V387.93c0-8.51,1.11-12.6,1.11-12.6l-0.33-.33s-5.08,2.21-17.8,5v3h4.64c3.21,0,3.32,2.76,3.32,7.52v56.15c0,4-1.88,6.63-6.85,7.18V457Zm-60.9-13.82c0,10.61,4.75,14.81,12.49,14.81,9.28,0,16.58-6.52,20.56-12.38v5.75a23.91,23.91,0,0,1-1,6l0.44,0.33s6.08-1,18.13-2.21l0.33-3h-3.09c-3.65,0-6.19,0-6.19-6.3V417c0-8.51,1-11.61,1-11.61l-0.44-.33a105.57,105.57,0,0,1-16.58,4.09v3.09H1056c3.21,0,3.32,2.76,3.32,7.52v23.65c-4.75,4.86-10.94,7.85-16,7.85-4.53,0-7.52-2.21-7.52-10.61V417c0-8.51,1-11.61,1-11.61l-0.44-.33a109.41,109.41,0,0,1-16.8,4.09v3.09h3.87c3.21,0,3.32,2.76,3.32,7.52V443.2Zm-42.88-6.41c-8.18,0-11.38-6.74-11.38-13.6s3.09-13.71,10.83-13.71c8,0,11.61,7.52,11.61,14.59,0,6.52-3.09,12.71-11.05,12.71m3,21.33c7.3,1.55,13.82,3.76,13.82,9.4,0,6.74-9,11.16-17,11.16-7.3,0-13.93-3.65-13.93-10.5,0-6.08,5.19-10.17,7.85-11.94,3,0.66,6.19,1.22,9.28,1.88m-21.11-9.51c0,3.76,4,5.75,9.17,7.07-5.08,2-13.93,5.31-13.93,13.82,0,9.28,10.83,13.37,20.78,13.37,13.6,0,28.08-7.74,28.08-18.57,0-9-9.95-12-19.23-13.93-8.62-1.77-15.25-2.54-15.25-5.53,0-1.55,2-3.76,2.76-4.64a29.07,29.07,0,0,0,5.42.44c11.05,0,21-6.19,21-16.58a14.92,14.92,0,0,0-4.53-10.83,19,19,0,0,0,3.87.33h5.86l1-7.18a23.82,23.82,0,0,1-7.3,1.44h-5.31c-5.53,0-8.18-2.21-14.59-2.21-10.94,0-20.67,6.3-20.67,17.8,0,8.84,5.86,14.15,13.26,16.25-4,2.1-10.39,4.31-10.39,9m-37.91-38.8c9.73,0,10.61,12.6,10.61,12.6l-23.21,3c1-8.29,5.19-15.58,12.6-15.58m-21.66,23c0,12.93,7.74,25.2,23.43,25.2a22.15,22.15,0,0,0,18.9-10.39l-1.22-2.32a21.42,21.42,0,0,1-14.37,5.31c-12.38,0-17.46-9.84-17.91-19.9l1.11-1.33,27.52-4a29.79,29.79,0,0,0,5.08-1.44c-0.33-12.16-9.73-18.35-19.23-18.35-13.37,0-23.32,12.16-23.32,27.19m-54.93-13.15V388.37l1.11-1.11h4.09c13.6,0,18.35,8,18.35,16.36,0,10.72-7.63,16-14.26,16h-9.28ZM833.5,457l26.64-.66,0.44-3.09-9.95-1a28.18,28.18,0,0,0,.55-5.64V425.07l1.11-1.11h8.07l13.71,20.23a76.71,76.71,0,0,1,6.85,12.16l0.44,0.33h16l0.44-3.54-1.22-.11c-2.87-.22-5.08-0.44-9.84-7.3l-15.92-23.32V421c5.31-2.76,14.59-9.84,14.59-20.23,0-9.62-7.52-17.8-27.41-17.8H832.39v2.76c8.51,1.66,9.06,2.76,9.06,8.07v52.83c0,3.76-3.09,6.3-8,6.85V457Zm-73.72-5.31c-3.32,0-6.19-2.43-6.19-6.85,0-8,9-11.27,15.25-12.27l3.43-.55v13c-2.87,2.43-8.18,6.63-12.49,6.63m-15.92-4.86c0,6,4.2,11.16,11.5,11.16,11.38,0,17.24-10.5,17.24-10.5v2.65c0,5.42,3.32,7.85,7.52,7.85,6.52,0,11.72-5.86,11.72-5.86l-1.44-2.32S787.3,452,784.31,452c-2.54,0-3-1.66-3-5.2V421.42c0-11.61-2.76-15.81-13.15-15.81a36,36,0,0,0-20.45,6.19l1.88,8.29h3.54s4.2-10.61,11.72-10.61c4.09,0,6.19,3,7,7.07a73.6,73.6,0,0,1,.44,11.83l-3.76.55c-11.5,1.77-24.65,7.3-24.65,17.91M676.22,457l23.76-.66,0.44-2.76-8.84-1.11a30.58,30.58,0,0,0,.55-5.86V420.1c4.64-4.75,11.38-7.74,16.47-7.74,4.42,0,7.63,2.21,7.63,10.61v23.65c0,4-1.33,6.63-6.3,7.18V457l23.76-.66,0.44-2.76-9.4-1.11a30.58,30.58,0,0,0,.55-5.86V420.54c0-10.72-5-14.92-12.6-14.92-9.28,0-17,6.3-21,12.27,0.11-9.84,1.11-13.48,1.11-13.48l-0.33-.33a97.36,97.36,0,0,1-17.69,5.2v3h5c3.21,0,3.32,2.76,3.32,7.52v26.86c0,4-1.88,6.63-6.85,7.18V457Zm-62-13.82c0,10.61,4.75,14.81,12.49,14.81,9.28,0,16.58-6.52,20.56-12.38v5.75a23.91,23.91,0,0,1-1,6l0.44,0.33s6.08-1,18.13-2.21l0.33-3h-3.09c-3.65,0-6.19,0-6.19-6.3V417c0-8.51,1-11.61,1-11.61l-0.44-.33a105.57,105.57,0,0,1-16.58,4.09v3.09h3.65c3.21,0,3.32,2.76,3.32,7.52v23.65c-4.75,4.86-10.94,7.85-16,7.85-4.53,0-7.52-2.21-7.52-10.61V417c0-8.51,1-11.61,1-11.61l-0.44-.33a109.41,109.41,0,0,1-16.8,4.09v3.09h3.87c3.21,0,3.32,2.76,3.32,7.52V443.2ZM573.09,457l24.32-.66,0.44-2.76-9.4-1a32.57,32.57,0,0,0,.55-6V387.93c0-8.51,1.11-12.6,1.11-12.6l-0.33-.33s-5.08,2.21-17.8,5v3h4.64c3.21,0,3.32,2.76,3.32,7.52v56.15c0,4-1.88,6.63-6.85,7.18V457Zm-35,0,24.32-.66,0.44-2.76-9.4-1a32.57,32.57,0,0,0,.55-6V387.93c0-8.51,1.11-12.6,1.11-12.6l-0.33-.33s-5.08,2.21-17.8,5v3h4.64c3.21,0,3.32,2.76,3.32,7.52v56.15c0,4-1.88,6.63-6.85,7.18V457Zm-40.45-5.31c-3.32,0-6.19-2.43-6.19-6.85,0-8,9-11.27,15.25-12.27l3.43-.55v13c-2.87,2.43-8.18,6.63-12.49,6.63m-15.92-4.86c0,6,4.2,11.16,11.5,11.16,11.38,0,17.24-10.5,17.24-10.5v2.65c0,5.42,3.32,7.85,7.52,7.85,6.52,0,11.72-5.86,11.72-5.86l-1.44-2.32s-3.09,2.21-6.08,2.21c-2.54,0-3-1.66-3-5.2V421.42c0-11.61-2.76-15.81-13.15-15.81a36,36,0,0,0-20.45,6.19l1.88,8.29H491s4.2-10.61,11.72-10.61c4.09,0,6.19,3,7,7.07a73.6,73.6,0,0,1,.44,11.83l-3.76.55c-11.5,1.77-24.65,7.3-24.65,17.91M403,420.65c0,23.87,18.79,37.36,38.46,37.36,19.23,0,27.52-12.82,27.52-12.82l-1.55-2.32a34.51,34.51,0,0,1-22.22,7.85c-18,0-31.94-13.37-31.94-33.27,0-17.91,11.27-31.61,28.3-31.61,9,0,18.68,3.65,18.68,15.14H464l3.32-16.8c-5.75-.55-15.58-2.54-23.87-2.54-23.76,0-40.45,16.47-40.45,39"/></svg>