<svg id="Layer_1" data-name="Layer 1" xmlns="http://www.w3.org/2000/svg" xmlns:xlink="http://www.w3.org/1999/xlink" viewBox="0 0 1500 1500"><defs><style>.cls-1{fill:none;}.cls-2{fill:#fffef6;stroke:#000;stroke-miterlimit:10;}.cls-3{clip-path:url(#clip-path);}.cls-4{fill:#000511;}</style><clipPath id="clip-path"><rect class="cls-1" x="211.13" y="190.42" width="1127.74" height="1119.15"/></clipPath></defs><title>ss-design-</title><rect class="cls-2" x="-2.5" y="-2.5" width="1505" height="1505"/><g class="cls-3"><path class="cls-4" d="M1181.41,1256.53l-20.8,48.1,3.55,1.6,20.85-48.1Zm-53.4,0,20.2,43.4h4.2l-20.2-43.4H1128Zm-13.5,4.9-5.5,13.75,2.8,1.15,6.65-13.35Zm-8.3,0-5.5,13.75,2.8,1.15,6.65-13.35Zm-18.65,0-5.5,13.75,2.8,1.15,6.65-13.35Zm-8.3,0-5.5,13.75,2.8,1.15,6.65-13.35Zm-18.65,0-5.5,13.75,2.8,1.15,6.65-13.35Zm-13.3,0-5.5,13.75,2.8,1.15,6.65-13.35Zm-28.5,12.9V1285h-10.65v4.3h10.65v10.65h4.3v-10.65h10.65V1285h-10.65v-10.65h-4.3Zm-44.55,19.25h25.6v-4.3h-25.6v4.3Zm0-8.6h25.6v-4.3h-25.6v4.3Zm-6.65,18.7h-25v2.5h25v-2.5Zm-43.75-17.9h11V1282h-11v3.75Zm-19.6-23.55c3.15,6.6,4.3,15,4.3,22.3s-1.15,15.7-4.3,22.3l3.7,2.75c3.7-7.25,5.2-17,5.2-25s-1.5-17.85-5.2-25Zm-14.4-2.75c-3.7,7.2-5.2,16.95-5.2,25s1.5,17.8,5.2,25l3.7-2.75c-3.15-6.6-4.3-15-4.3-22.3s1.15-15.7,4.3-22.3Zm-25.45,2.75v4.9l-4.45-2.45-1.55,2.85,4.2,2.5-4.25,2.45,1.7,2.85,4.35-2.45v4.85h3.45v-4.8l4,2.5,1.75-2.9-4.25-2.5,4.25-2.5-1.75-2.95-4,2.4v-4.75h-3.45Zm-19.2,37.7H851l-6.75-8.35,4.6-5.4-3-3.1-4.4,5.1-7.85-9.5c3.15-2.3,6.85-5.15,6.85-9.4,0-4.95-4.1-7.85-8.7-7.85-5,0-8.7,3.05-8.7,8.25,0,3.2,2,6,4.15,8.25l-2.35,1.7c-3.6,2.6-6.6,5.2-6.6,10,0,6.5,5.25,11.1,11.55,11.1,4.45,0,8.45-2.55,11.3-5.9ZM831,1275.43l-1.25-1.6c-1.1-1.4-2.25-2.8-2.25-4.7a4,4,0,0,1,4.2-4c2.5,0,4.4,1.45,4.4,4.1s-2.6,4.3-4.5,5.8Zm-1,5.9,8.35,10.2c-2.35,2.35-5.15,5-8.65,5a7.33,7.33,0,0,1-7-7c0-3.6,4.25-6.15,6.85-7.95Zm-46.6,3.2H788l8.15-18.1,8.1,18.1H809l-10-22.3h-5.6Zm-16.25-1a8.58,8.58,0,1,0,8.8,8.6,8.74,8.74,0,0,0-8.8-8.6M751,1261.43a8.58,8.58,0,1,0,8.8,8.6,8.74,8.74,0,0,0-8.8-8.6m16.15,25.15a5.58,5.58,0,1,1-5.8,5.6,5.76,5.76,0,0,1,5.8-5.6m1.8-25.15-22,38.05,2.3,1.25,22-38Zm-18,3a5.58,5.58,0,1,1-5.8,5.6,5.76,5.76,0,0,1,5.8-5.6m-29.4,11.9c-2.5-1-4.65-2.45-4.65-5.4a5.31,5.31,0,0,1,4.65-5.15v10.55Zm0-14.9a10,10,0,0,0-9,9.85c0,4.9,3.25,7.15,7.2,9.15l1.8,0.9v15c-4.4-.55-6.3-2.8-7.15-7l-4.5,1a12.28,12.28,0,0,0,11.65,10.5v4.75h2.5v-4.75c5.4-.75,9.75-6.3,9.75-11.7,0-6.15-4.7-9.3-9.75-11.5v-11.75a7,7,0,0,1,4.6,3.7l4-2.25a10.62,10.62,0,0,0-8.55-5.8v-4.5h-2.5v4.5Zm2.5,21.05c2.75,1.45,5.25,3.35,5.25,6.75a7,7,0,0,1-5.25,6.8v-13.55Zm-38.3-4.75h6.15l-1.35,7.7h-6.15Zm-1.4-13.7-1.8,9.7h-5.95v4h5.25l-1.35,7.7h-5.75v4h5l-1.85,10.5h3.75l2-10.5h6.15l-1.85,10.5h3.8l1.9-10.5h5.85v-4h-5.05l1.35-7.7h5.35v-4h-4.6l1.75-9.7h-3.95l-1.75,9.7h-6.2l1.8-9.7h-3.85Zm-29.45,10.6c-2-2.6-4.1-3.55-6.65-3.55-6.2,0-10.2,5.85-10.2,11.9,0,5.15,4,9.25,8.4,9.25a9.3,9.3,0,0,0,6.8-3.1c0.3,1.9,1.3,3,2.7,3.1,2.4,0.1,5.3-1.2,7.7-4.35a17.64,17.64,0,0,0,3.1-10.6,15.06,15.06,0,0,0-5.6-11.5,17,17,0,0,0-11.75-4.35c-10.65,0-19.1,8.45-19.1,19.65a19.19,19.19,0,0,0,19.4,19.65,25,25,0,0,0,13.45-3.4l-3.75-3c-1.9,1.6-5.15,2.4-9.3,2.4a15.52,15.52,0,0,1-15.8-15.65c0-8.65,6.55-15.65,15-15.65,7.65,0,13.5,5.25,13.5,13.65,0,4.95-3.1,9.6-5.4,9.6-1.7,0-1.05-2.6-.7-4.3l2.5-12.85h-3.55Zm-1.25,6.7c-0.45,3.6-2.25,7-6.7,7-3.1,0-5-2.75-5-5.7,0-3.65,2.55-7.65,6.6-7.65,3.45,0,5.6,2.3,5.1,6.35m-44.35-15.9,8.2,7.45,2.2-1.35-6.25-8.3Zm-13.8,17.8c-1.5,2.5-2.4,4.3-4.3,4.3-1.2,0-2.55-1.3-4.2-2.55a10.23,10.23,0,0,0-6.1-2.55c-3.6,0-5.85,3.55-7.65,6.15l3.15,2.25c1.6-2.6,2.9-4.1,4.6-4.1,1.05,0,2.65,1.3,4.5,2.55s3.9,2.55,5.75,2.55c3.6,0,6.1-3.35,7.6-6.1Zm-39.15,8h4.5v-29h-4.5v29Zm2.25,3.7a2.93,2.93,0,0,0-2.9,2.9,2.9,2.9,0,1,0,5.8,0,2.93,2.93,0,0,0-2.9-2.9m-27.5-29.5c6.75,0,8.65,10.4,8.65,15.6s-1.9,15.5-8.65,15.5-8.65-10.3-8.65-15.5,1.9-15.6,8.65-15.6m0,35.3c9.7,0,13.15-12,13.15-19.65s-3.4-19.65-13.15-19.65S518,1273.33,518,1281.08s3.45,19.65,13.15,19.65m-33.25-19.3a7.91,7.91,0,1,1,.3-15.8c4.1,0,7.7,3.9,7.7,7.9a7.87,7.87,0,0,1-8,7.9m-4.45,19.3,12.85-17.3c2.2-2.95,4.1-6.2,4.1-9.95,0-6.65-6-12.05-12.55-12.05a12.41,12.41,0,0,0-12.45,12.4c0,6,4.7,11.6,11,11.6a8.07,8.07,0,0,0,3.65-.7l0.1,0.1L490,1298.38Zm-30.1-35.3a6.53,6.53,0,0,1,6.4,6.5c0,3-3.25,6.4-6.4,6.4s-6.4-3.4-6.4-6.4a6.53,6.53,0,0,1,6.4-6.5m-11.8,24c0,7,5.4,11.3,11.8,11.3s11.8-4.3,11.8-11.3c0-4-2-7.7-6-9a9.42,9.42,0,0,0,5-8.45c0-6.15-4.8-10.5-10.8-10.5s-10.8,4.35-10.8,10.5a9.42,9.42,0,0,0,4.95,8.45c-3.9,1.35-5.95,5-5.95,9m11.8-7.1a7.3,7.3,0,0,1,7.3,7.1,7.3,7.3,0,0,1-14.6,0,7.3,7.3,0,0,1,7.3-7.1m-26.5-15.8-19.5,32,3.65,2.25,23.5-38.5H417.33v4.3h19.5Zm-41.25,30a8.08,8.08,0,0,1-8-8,8.31,8.31,0,0,1,8-7.85,8.17,8.17,0,0,1,8,8.1,8,8,0,0,1-8,7.7m4.45-35.1-12.85,17.3c-2.2,2.95-4.1,6.15-4.1,9.95,0,6.65,6.05,12.05,12.55,12.05a12.41,12.41,0,0,0,12.45-12.4c0-6-4.7-11.8-10.9-11.8a8.25,8.25,0,0,0-3.7.9l-0.1-.1,10.05-13.6Zm-26.45,5.1v-4.3h-15.1l-5.8,19.35h0.9a9.07,9.07,0,1,1,6.95,14.85c-3.35,0-7.2-2.4-8.35-5.6l-3.5,3.3a13.06,13.06,0,0,0,11.5,6.6c7.75,0,14-5.45,14-13.4,0-6.95-4.8-13.2-12.1-13.2l-2.65.15,2.35-7.75h11.85Zm-41.35,23.8h-10.7l10.6-15.55h0.1v15.55Zm4.5,0v-29.7l-23.1,33.8h18.6v5.5h4.5v-5.5H341v-4.1h-4.3Zm-43.6-8.4c4.65-.35,8,2.5,8,7.3a7.15,7.15,0,0,1-7.2,7.4c-3.6,0-6.85-2.3-7.3-6H282c0.3,6.2,5.6,10.1,11.5,10.1,6.75,0,12.05-4.25,12.05-11.3,0-4-1.65-7.6-5.35-9.35a9.23,9.23,0,0,0,4.8-8.5c0-6.3-4.9-10.15-10.9-10.15-6.2,0-10.15,3.3-11,9.5h4.65a6,6,0,0,1,6.25-5.4,6.28,6.28,0,0,1,6.55,6.45c0,4.55-3.35,6-7.4,6v3.9Zm-36.25,13.7,12.4-15.15a12.47,12.47,0,0,0,2.8-7.75c0-6.55-5.5-11.3-11.9-11.3-6.85,0-11.2,4.5-11.95,11.2h4.7a7.36,7.36,0,0,1,7.25-6.9,7.44,7.44,0,0,1,7.4,7.2c0,2.5-1.8,4.85-3.35,6.75l-16.5,20.25h24.35v-4.3h-15.2Zm-32.6-29.1v33.4h4.5v-37.7h-8.45l-2.6,4.3h6.55Z"/><path class="cls-4" d="M1114.62,1211.63l19.1-33.4h-24.05v4.3h16.4l-19.1,33.4h26.75v-4.3h-19.1Zm-29.75-12.1v16.4h4.7v-16.4l12.3-21.3h-5.4l-9.25,16.1-9.25-16.1h-5.4Zm-33.85-3.35-11.85,19.75h5.25l9.25-15.45,8.9,15.45h5.25l-11.45-19.75,10.85-17.95h-5.35l-8.2,13.75-7.7-13.75h-5.35Zm-63.7-17.95h-5.1l15.65,39.2,10.65-27.65,10.65,27.65,15.65-39.2h-5.1l-10.55,27-10.65-27.8-10.65,27.8Zm-36.7,0h-5.15l16.4,39.7,16.35-39.7h-5.15l-11.2,27.9Zm-40.3,0v23.85c0,8.3,5.15,14.65,13.8,14.65s13.8-6.35,13.8-14.65v-23.85h-4.7v22.25c0,6.15-1.85,11.85-9.1,11.85s-9.1-5.7-9.1-11.85v-22.25h-4.7Zm-17,4.3h9v-4.3h-22.6v4.3h9v33.4h4.7v-33.4Zm-21.5.6a10.75,10.75,0,0,0-9.7-5.7c-5.7,0-11.1,3.65-11.1,9.75,0,5.25,3.9,7.7,8.2,9.55l2.6,1.1c3.25,1.35,6.5,3.1,6.5,7.15a7.13,7.13,0,1,1-14.25.2l-4.75,1A11.75,11.75,0,0,0,861,1216.73c6.75,0,12-4.9,12-11.75,0-6.3-4-9.25-9.35-11.35l-2.7-1c-2.35-.9-5.25-2.45-5.25-5.4,0-3.3,3.3-5.35,6.3-5.35a6.46,6.46,0,0,1,6.05,3.55Zm-48-.7h1.25c4.65,0,10.25.85,10.25,6.75s-5.2,6.9-10,6.9h-1.5v-13.65Zm6.85,17.1a10.26,10.26,0,0,0,9-10.55,10.44,10.44,0,0,0-4.95-9c-3-1.7-6.6-1.75-10-1.75h-5.7v37.7h4.7v-16h2l11.1,16h5.7Zm-36.15,2.2h-5.85l8.65,8.45a14.8,14.8,0,0,1-7.5,2.15,15.14,15.14,0,0,1-15-15.25,15.05,15.05,0,1,1,25.7,10.55Zm15,15-5.85-5.75a19.18,19.18,0,0,0,5.9-13.9,19.75,19.75,0,0,0-39.5,0,19.55,19.55,0,0,0,30.5,16.3l3.25,3.35h5.7Zm-61.85-34.3H749c4.65,0,10.25.7,10.25,6.6s-5.2,6.9-10,6.9h-1.5v-13.5Zm0,17.7h2.7c7.15,0,13.2-3,13.2-11,0-6.9-3.6-10.9-15.2-10.9H743v37.7h4.7v-15.8Zm-34,12.2a15.14,15.14,0,0,1-15-15.25,15.05,15.05,0,1,1,30.1,0,15.14,15.14,0,0,1-15.05,15.25m0-34.9A19.8,19.8,0,0,0,694,1197.08a19.75,19.75,0,0,0,39.5,0,19.8,19.8,0,0,0-19.75-19.65m-61.8,38.5h4.7v-28.1l28.3,29.65v-39.25h-4.7v27.85l-28.3-29.65v39.5Zm-29.4.8,11.3-25.7h0.1l4.4,24.9h4.85l-7.7-39.3-12.95,29.7-13-29.7-7.7,39.3h4.85l4.4-24.9h0.1Zm-37.25-38.5h-4.7v37.7h16.15v-4.3H585.28v-33.4Zm-35,16.35v-16.35h-4.7v37.7h4.7v-15.75l1.9-1.8,14.2,17.55h6.35l-17.25-20.75,16.95-16.95h-6.15Zm-20.95-16.35v23.95c0,3.85.1,10.15-5.3,10.15a6.26,6.26,0,0,1-3.75-1.25l-2.35,4a11.06,11.06,0,0,0,5.9,1.65c8.8,0,10.2-7.3,10.2-14.55v-23.95h-4.7Zm-18.9,0h-4.7v37.7h4.7v-37.7Zm-39,15.2v-15.2h-4.7v37.7h4.7v-18.1h17.95v18.1h4.7v-37.7h-4.7v15.2H471.43Zm-28.9,3.5v4.3h9.75c-0.2,6.15-6.5,11.2-12.35,11.2-8.15,0-14.65-7.5-14.65-15.4a14.86,14.86,0,0,1,26.9-9.15l3.3-3.15a19.63,19.63,0,0,0-34.9,12.45c0,10.45,8.5,19.55,19.05,19.55s17.85-7.95,17.85-18.3v-1.5H442.53Zm-29.9-14.4v-4.3H394.38v37.7h4.7v-18.5h13.1v-4.3h-13.1v-10.6h13.55Zm-49.25,33.4h20.25v-4.3H368.08v-14.25h15.1v-4.3h-15.1v-10.55h15.55v-4.3H363.38v37.7Zm-33.95-33.4h1.65c9.6,0,17.9,3.55,17.9,14.55s-8.3,14.55-17.9,14.55h-1.65v-29.1Zm-4.7,33.4h7.65c11.9,0,21.3-6.2,21.3-19.05,0-12.55-9.6-18.65-21.15-18.65h-7.8v37.7ZM314.53,1180a18.19,18.19,0,0,0-9.5-2.55,19.82,19.82,0,0,0-20,19.85,19.51,19.51,0,0,0,19.65,19.45,20.38,20.38,0,0,0,9.9-2.65v-5.55a15.08,15.08,0,0,1-10,3.9c-8.4,0-14.8-7.05-14.8-15.3a15,15,0,0,1,24.85-11.7V1180Zm-59.6,35.95h8.8c6.65,0,13.1-3,13.1-10.55,0-4.4-3.1-8.75-7.55-9.55v-0.1c2.55-1.2,4.05-4.4,4.05-7.15,0-8.5-6.7-10.35-13.8-10.35h-4.6v37.7Zm4.7-17.25h2.9c4.2,0,9.6,1.1,9.6,6.4s-4.55,6.65-8.9,6.65h-3.6v-13Zm0-16.25h1.3c4.4,0,8,.9,8,6.2s-3.65,6.3-8.1,6.3h-1.2v-12.5Zm-23.75,19.75h-13.4l6.7-15.25Zm2,4.3,4.3,9.45h5l-18-39.3-18,39.3h5l4.3-9.45h17.3Z"/><path class="cls-4" d="M930.77,1127.73l15.85-19.2h-21.9v4.2h13.15L922,1131.93h24v-4.2h-15.2Zm-28,.2-9.2,17.4h5.1l19-36.8h-5.05l-7.35,14.85-7.9-14.85h-5.25Zm-29.75-8.7-10.45,12.7H868l7.45-9.5,7.7,9.5h5.25l-10-12.7,8.6-10.7h-5.45l-6.05,7.55-5.55-7.55h-5.3Zm-46.35-10.7h-5.1l11.9,24.2,6.9-15.65,6.85,15.65,11.9-24.2H854l-6.8,14.9-6.85-16.2-6.9,16.2Zm-27.15,0h-5l11.75,24.2,11.8-24.2h-5l-6.75,14.6Zm-32.1,0V1122c0,6.4,3,10.75,9.9,10.75s9.9-4.35,9.9-10.75v-13.45h-4.5v12.95c0,3.75-1,7.05-5.4,7.05s-5.4-3.3-5.4-7.05v-12.95h-4.5Zm-11.65,4.2h4.4v-4.2h-4.4v-8.95h-4.5v8.95h-2.45v4.2h2.45v19.2h4.5v-19.2Zm-16.3-.8a7,7,0,0,0-6.4-4.1,6.83,6.83,0,0,0-6.9,6.8c0,3.2,1.9,4.5,4.5,5.9l4.4,2.35a2.82,2.82,0,0,1,1.65,2.55,3.36,3.36,0,0,1-3.55,3.3c-2.15,0-3.3-1.25-4.25-3l-3.85,1.75a8.62,8.62,0,0,0,8.1,5.25,7.86,7.86,0,0,0,8-7.75c0-3.7-2.65-5.4-5.4-6.65s-5.45-2.15-5.45-4.2a2.43,2.43,0,0,1,2.45-2.3,3.46,3.46,0,0,1,3,2.05Zm-30.8-3.4h-4.5v23.4h4.5v-11.5c0-3.8.6-8.3,5.45-8.3a3.94,3.94,0,0,1,2.75.95l2-4.1a7,7,0,0,0-3.7-1.15,6.73,6.73,0,0,0-6.4,4.5h-0.15v-3.8Zm-15.65,0h-4.5v3.9h-0.1a9.59,9.59,0,0,0-8.15-4.6c-6.75,0-11,5.85-11,12.25,0,6.7,4,12.65,11.2,12.65a9.66,9.66,0,0,0,7.95-4.45h0.1v17.05H693v-36.8Zm-11.85,20.2c-4.75,0-7.4-4.1-7.4-8.5s2.75-8.4,7.4-8.4c4.85,0,7.6,3.85,7.6,8.4s-2.7,8.5-7.6,8.5m-38.75-20.2h-4.5v36.8h4.5v-17.05h0.1a9.66,9.66,0,0,0,8,4.45c7.2,0,11.2-5.95,11.2-12.65,0-6.4-4.25-12.25-11-12.25a9.59,9.59,0,0,0-8.15,4.6h-0.1v-3.9Zm7.15,20.2c-4.75,0-7.4-4.1-7.4-8.5s2.75-8.4,7.4-8.4c4.85,0,7.6,3.85,7.6,8.4s-2.7,8.5-7.6,8.5m-32.9-16.6a8.15,8.15,0,1,1-8,8.15,8.09,8.09,0,0,1,8-8.15m0-4.3a12.45,12.45,0,1,0,12.5,12.45,12.31,12.31,0,0,0-12.5-12.45m-37.05.7h-4.5v23.4h4.5v-10.75c0-4.25,0-9.35,5.8-9.35,4.6,0,5.15,2.7,5.15,6.7v13.4h4.5v-14c0-5.7-1.7-10.15-8.3-10.15a8,8,0,0,0-7.05,3.85h-0.1v-3.15Zm-43.5,0h-4.5v23.4h4.5v-11.5c0-3.65.4-8.6,5.2-8.6,4.15,0,4.3,4.65,4.3,7.7v12.4h4.5v-11.5c0-3.6.35-8.6,5.15-8.6,3.95,0,4.35,3.85,4.35,6.85v13.25h4.5v-14c0-5.3-1.6-10.1-7.75-10.1a8.44,8.44,0,0,0-7.2,4.15,7.48,7.48,0,0,0-6.75-4.15,7.64,7.64,0,0,0-6.2,3.65h-0.1v-2.95Zm-15.75-20h-4.5v43.4h4.5v-43.4Zm-28,0h-4.5v43.4h4.5v-9.1l1.55-1.55,8.35,10.65h5.85l-11-13.7,10-9.7h-5.95l-8.8,8.8v-28.8Zm-19.25,6.15a3.13,3.13,0,0,0-3.1,3.15,3.1,3.1,0,0,0,6.2,0,3.13,3.13,0,0,0-3.1-3.15m2.25,13.85h-4.5v36.8h4.5v-36.8Zm-20-13.85a3.13,3.13,0,0,0-3.1,3.15,3.1,3.1,0,0,0,6.2,0,3.13,3.13,0,0,0-3.1-3.15m2.25,13.85h-4.5v23.4h4.5v-23.4Zm-36.65-20v43.4h4.5v-10.75c0-4.25,0-9.35,5.8-9.35,4.6,0,5.15,2.7,5.15,6.7v13.4H441v-14c0-5.7-1.7-10.15-8.3-10.15a8,8,0,0,0-7.05,3.85h-0.1v-23.15H421Zm-10.85,20h-4.5v4h-0.1a9.47,9.47,0,0,0-8.15-4.7c-6.75,0-11,5.85-11,12.25,0,6.7,4,12.65,11.2,12.65a9.66,9.66,0,0,0,7.95-4.45h0.1v4.45c0,4.8-1.15,8.6-6.7,8.6-4.1,0-7-2.4-7-6.6h-4.5c0.1,6.6,4.8,10.6,11.3,10.6,9.1,0,11.4-5.8,11.4-13.85v-22.95Zm-11.85,20.2c-4.75,0-7.4-4.1-7.4-8.5s2.75-8.4,7.4-8.4c4.85,0,7.6,3.85,7.6,8.4s-2.7,8.5-7.6,8.5m-17.2-40.2a8.4,8.4,0,0,0-3.15-.6c-5.8,0-7.55,4.1-7.55,9.2v11.4h-2.05v4.2h2.05v19.2h4.5v-19.2h6.2v-4.2h-6.2v-10.05c0-2.3,0-6.35,3.2-6.35a8.4,8.4,0,0,1,3,.95v-4.55Zm-38,29.05a6.69,6.69,0,0,1,6.65-5.85c3.6,0,5.9,2.35,6.45,5.85h-13.1Zm17.6,3.4v-0.7c0-6.95-3.5-12.45-10.95-12.45s-11.4,5.4-11.4,12.6c0,6.9,4.35,12.3,11.5,12.3a12.17,12.17,0,0,0,10.85-6.4l-3.8-2.15c-1.7,2.8-3.55,4.55-7,4.55-4.3,0-7-3.75-7.05-7.75h17.85Zm-35.9,11h4.5v-43.4h-4.5v23.9h-0.1a9.59,9.59,0,0,0-8.15-4.6c-6.75,0-11,5.85-11,12.25,0,6.7,4,12.65,11.2,12.65a9.66,9.66,0,0,0,8-4.45h0.1v3.65Zm-7.35-3.2c-4.75,0-7.4-4.1-7.4-8.5s2.75-8.4,7.4-8.4c4.85,0,7.6,3.85,7.6,8.4s-2.7,8.5-7.6,8.5m-20-19.35a12.68,12.68,0,0,0-6.2-1.55,12.44,12.44,0,0,0-12.8,12.6,12.32,12.32,0,0,0,12.55,12.3,13.08,13.08,0,0,0,6.45-1.55v-5.75a8.41,8.41,0,0,1-6.4,3.1,7.91,7.91,0,0,1-8.1-8.3,8.09,8.09,0,0,1,7.8-8.2,8.58,8.58,0,0,1,6.7,3.15v-5.8Zm-50.35,22.55h4.5v-3.65h0.1a9.66,9.66,0,0,0,8,4.45c7.2,0,11.2-5.95,11.2-12.65,0-6.4-4.25-12.25-11-12.25a9.59,9.59,0,0,0-8.15,4.6h-0.1v-23.9h-4.5v43.4Zm11.65-3.2c-4.75,0-7.4-4.1-7.4-8.5s2.75-8.4,7.4-8.4c4.85,0,7.6,3.85,7.6,8.4s-2.7,8.5-7.6,8.5m-22.15-20.2h-4.5v3.9H232a9.57,9.57,0,0,0-8.1-4.6c-6.8,0-11,5.85-11,12.25,0,6.7,4,12.65,11.2,12.65a9.59,9.59,0,0,0,8-4.45h0.1v3.65h4.5v-23.4Zm-11.85,20.2c-4.75,0-7.4-4.1-7.4-8.5s2.75-8.4,7.4-8.4c4.85,0,7.6,3.85,7.6,8.4s-2.7,8.5-7.6,8.5"/><path class="cls-4" d="M558.78,1024.53h-4.5v23.4h4.5v-11.5c0-3.65.4-8.6,5.2-8.6,4.15,0,4.3,4.65,4.3,7.7v12.4h4.5v-11.5c0-3.6.35-8.6,5.15-8.6,4,0,4.35,3.85,4.35,6.85v13.25h4.5v-14c0-5.3-1.6-10.1-7.75-10.1a8.44,8.44,0,0,0-7.2,4.15,7.48,7.48,0,0,0-6.75-4.15,7.64,7.64,0,0,0-6.2,3.65h-0.1v-3Zm-35.15,0V1038c0,6.4,3,10.75,9.9,10.75s9.9-4.35,9.9-10.75v-13.45h-4.5v13c0,3.75-1,7-5.4,7s-5.4-3.3-5.4-7v-13h-4.5Zm-14.25-13.85a3.13,3.13,0,0,0-3.1,3.15,3.1,3.1,0,0,0,6.2,0,3.13,3.13,0,0,0-3.1-3.15m2.25,13.85h-4.5v23.4h4.5v-23.4Zm-20.85,23.4h4.5v-43.4h-4.5v23.9h-0.1a9.59,9.59,0,0,0-8.15-4.6c-6.75,0-11,5.85-11,12.25,0,6.7,4,12.65,11.2,12.65a9.66,9.66,0,0,0,8-4.45h0.1v3.65Zm-7.35-3.2c-4.75,0-7.4-4.1-7.4-8.5s2.75-8.4,7.4-8.4c4.85,0,7.6,3.85,7.6,8.4s-2.7,8.5-7.6,8.5m-36.55-11.15a6.69,6.69,0,0,1,6.65-5.85c3.6,0,5.9,2.35,6.45,5.85h-13.1Zm17.6,3.4v-0.7c0-6.95-3.5-12.45-11-12.45s-11.4,5.4-11.4,12.6c0,6.9,4.35,12.3,11.5,12.3a12.17,12.17,0,0,0,10.85-6.4l-3.8-2.15c-1.7,2.8-3.55,4.55-7,4.55-4.3,0-7-3.75-7.05-7.75h17.85Zm-49.9,11.75,11.3-25.7H426l4.4,24.9h4.85l-7.7-39.3-12.95,29.7-12.95-29.7-7.7,39.3h4.85l4.4-24.9h0.1Zm-48.5-24.2h-4.5v3.9h-0.1a9.57,9.57,0,0,0-8.1-4.6c-6.8,0-11.05,5.85-11.05,12.25,0,6.7,4.05,12.65,11.2,12.65a9.59,9.59,0,0,0,7.95-4.45h0.1v3.65h4.5v-23.4Zm-11.85,20.2c-4.75,0-7.4-4.1-7.4-8.5s2.75-8.4,7.4-8.4c4.85,0,7.6,3.85,7.6,8.4s-2.7,8.5-7.6,8.5m-27.85-20.2h-4.5v23.4h4.5v-11.5c0-3.8.6-8.3,5.45-8.3a3.94,3.94,0,0,1,2.75,1l2.05-4.1a7,7,0,0,0-3.7-1.15,6.73,6.73,0,0,0-6.4,4.5h-0.15v-3.8Zm-35.6,0V1038c0,6.4,3,10.75,9.9,10.75s9.9-4.35,9.9-10.75v-13.45h-4.5v13c0,3.75-.95,7-5.4,7s-5.4-3.3-5.4-7v-13h-4.5Zm-11.65,4.2h4.4v-4.2h-4.4v-8.95h-4.5v8.95h-2.45v4.2h2.45v19.2h4.5v-19.2Zm-36-4.2V1038c0,6.4,3,10.75,9.9,10.75s9.9-4.35,9.9-10.75v-13.45h-4.5v13c0,3.75-1,7-5.4,7s-5.4-3.3-5.4-7v-13h-4.5Zm-9.8-10v-4.3H215.13v37.7h4.7v-18.5h13.1v-4.3h-13.1v-10.6h13.55Z"/><path class="cls-4" d="M1196.46,849.53l-18.4,48.75,4.85,1.75,18.4-48.75Zm-50.7,0,18.4,42.4h5.6l-18.4-42.4h-5.6Zm-14.4,3.7-5.45,15.2,4.65,0.55,7.2-15Zm-9.55,0-5.45,15.2L1121,869l7.2-15Zm-19.85,0-5.45,15.2,4.65,0.55,7.2-15Zm-9.55,0-5.45,15.2,4.65,0.55,7.2-15Zm-19.8,0-5.45,15.2,4.65,0.55,7.2-15Zm-14.55,0-5.45,15.2,4.65,0.55,7.2-15Zm-29.35,13.1v9.85h-9.85v5.9h9.85v9.85h5.9v-9.85h9.85v-5.9h-9.85v-9.85h-5.9ZM985,888h25.6v-5.9H985V888Zm0-11.8h25.6v-5.9H985v5.9Zm-6.65,19.5h-25v2.5h25v-2.5ZM934,878.78h12.2V873H934v5.75Zm-20.2-25.55c3,6.8,4.1,15.1,4.1,22.5,0,7.15-1.1,15.9-4.1,22.45l4.3,2.95c3.75-7.4,5-17.45,5-25.7s-1.45-17.8-5-25.1Zm-10.3-2.9c-3.6,7.3-5.05,17-5.05,25.1s1.3,18.3,5.05,25.7l4.3-2.95c-3-6.55-4.1-15.3-4.1-22.45,0-7.4,1.1-15.7,4.1-22.5Zm-26.3,3.9,0.15,5.05-4-2.6L871.57,860l4,2.5-4,2.5,1.8,3.35,3.9-2.6-0.15,4.95h4.3l-0.1-4.95,3.85,2.6L887,865l-4-2.5,4-2.5-1.8-3.35-3.85,2.6,0.1-5.05h-4.3Zm-21.85,37.7h9l-6.5-8.6,4-5.45-4.65-4.35-3.8,4.85-5.25-6.75c3.2-2.1,6.2-4.95,6.2-9.1,0-5.65-4.2-9.3-9.65-9.3s-9.6,3.75-9.6,9.35c0,3,1.3,5.55,3.05,8l-2.25,1.55a11.49,11.49,0,0,0-5.45,9.8,10.71,10.71,0,0,0,11,11c4.25,0,7.7-2.1,10.8-4.8Zm-12.4-27.15a4.79,4.79,0,0,1-.9-2.8,3.21,3.21,0,0,1,3.1-3.5c1.95,0,2.95,2,2.95,3.7a5.07,5.07,0,0,1-2.1,4.1l-1.25,1Zm5,18.3c-1.55,1.5-3.3,3.25-5.6,3.25-2.5,0-4.5-2.65-4.5-5,0-2.75,2.25-4.55,4.25-6.05Zm-51.4-7.6H803l6.35-14.15,6.35,14.15h6.45l-9.75-21.25h-6.2Zm-17.6-22.55-20.25,38.8,3.45,1.75,20.2-38.85Zm1.7,26.2c2.5,0,4,2.6,4,4.9s-1.5,4.85-4,4.85-4-2.55-4-4.85,1.5-4.9,4-4.9m0-4a8.93,8.93,0,1,0,9,9,8.7,8.7,0,0,0-9-9m-20.15-17.8c2.5,0,4,2.6,4,4.9s-1.5,4.85-4,4.85-4-2.55-4-4.85,1.5-4.9,4-4.9m0-4.05a8.93,8.93,0,1,0,9,9,8.7,8.7,0,0,0-9-9m-29.7,43.7h3.65v-5c5.75-1.15,9.1-6.05,9.1-11.75,0-6-3.55-8.4-7.15-10.15s-7.15-2.8-7.15-5.85a4.12,4.12,0,0,1,4.25-4,7.16,7.16,0,0,1,5.55,3.05l3.35-4.75a11.16,11.16,0,0,0-8-4.3v-4.7h-3.65v4.65c-5.4,1-8.6,5.1-8.6,10.65,0,5.75,3.55,8,7.1,9.65s7.1,2.8,7.1,6.3a4.81,4.81,0,0,1-4.85,5c-3.35,0-5.6-2.6-7-5.35l-4.45,4.3c2.5,4.6,5.45,6.8,10.7,7.4v4.75Zm-34.45-25.5h5.2l-1.3,6.2h-5.1Zm-2.3-15.8-2,10.15h-5.85v5.65H691l-1.2,6.2h-5.65v5.65h4.55l-1.65,8.65h5.3l1.65-8.65h5l-1.65,8.65h5.3l1.65-8.65h5.9v-5.65h-4.7l1.2-6.2h4.9v-5.65h-4l2-10.15h-5.25l-2,10.15h-5l1.95-10.15H694Zm-33.55,11c-2-2.65-4.1-3.6-6.65-3.6-6.2,0-10.2,5.9-10.2,12,0,5.2,4,9.35,8.4,9.35a9.3,9.3,0,0,0,6.8-3.1c0.3,1.9,1.3,3.05,2.7,3.1,2.4,0.1,5.3-1.2,7.7-4.4,2-2.6,3.1-6.5,3.1-10.7a15.18,15.18,0,0,0-5.6-11.6,16.79,16.79,0,0,0-11.75-4.4c-10.65,0-19.1,8.55-19.1,19.85,0,11.45,8.65,19.85,19.4,19.85a24.49,24.49,0,0,0,13.45-3.45l-3.75-3c-1.85,1.35-4.85,2.15-9,2.15-8.55,0-15.8-6.3-15.8-15.55,0-8.75,6.25-15.55,14.65-15.55,7.65,0,13.2,5,13.2,13.5,0,5-2.8,9.7-5.1,9.7-1.7,0-1.05-2.6-.7-4.3l2.5-13h-3.55Zm-1.25,6.75c-0.45,3.65-2.25,6.7-6.7,6.7-3.1,0-4.6-2.4-4.6-5.4,0-3.7,2.15-7.35,6.2-7.35,3.45,0,5.6,1.95,5.1,6m-49.55-17,7.55,7.5,3.55-2.2-6-8.4Zm-15.55,17.45c-0.45,1.25-1.55,3.9-2.7,3.9-1.35,0-3.35-1.2-4.7-2.35-1.65-1.3-3.75-2.55-5.6-2.55-3.55,0-5.8,4.85-7.65,7.25l5,4.4c0.6-1.45,1.7-3.85,2.8-3.85,1.35,0,3,1.45,4.9,2.65,1.55,1,3.2,2.2,5.35,2.2,3.6,0,6-4.45,7.6-7.15Zm-39,7.3h7.1V854.23h-7.1v26.85Zm3.55,3a4.42,4.42,0,0,0-4.45,4.4,4.45,4.45,0,1,0,8.9,0,4.42,4.42,0,0,0-4.45-4.4m-27.55-24.4c5.25,0,6.3,9.6,6.3,13.4s-1.05,13.5-6.3,13.5-6.3-9.75-6.3-13.5,1.1-13.4,6.3-13.4m0-6.4c-10.1,0-13.5,11.8-13.5,19.9s3.5,19.8,13.5,19.8,13.5-11.75,13.5-19.8-3.4-19.9-13.5-19.9m-33.7,6c3.7,0,6,3.65,6,7.05s-2.3,7-6,7-5.95-3.65-5.95-7,2.25-7.05,5.95-7.05M496,893.53l10-14.85c2.45-3.65,4.6-8.1,4.6-12.6,0-7.6-5.75-12.85-13.2-12.85-7.75,0-13.3,5.55-13.3,13.35,0,6.5,4.3,12.5,11.2,12.5a8,8,0,0,0,3-.55l0.1,0.1-7.75,11Zm-32.65-34.8c2.75,0,4.35,2.8,4.35,5.25s-1.6,5.3-4.35,5.3S459,866.48,459,864s1.6-5.25,4.35-5.25m-6.1,13.55c-4.1,1.55-6.1,5.25-6.1,9.6,0,6.8,5.85,11.05,12.2,11.05s12.2-4.25,12.2-11.05c0-4.35-2-8-6.1-9.6a9.24,9.24,0,0,0,5-8.3c0-6.45-4.85-10.75-11-10.75s-11.05,4.3-11.05,10.75a9.24,9.24,0,0,0,4.95,8.3m6.1,3c3,0,4.8,3,4.8,5.8s-1.75,5.75-4.8,5.75-4.8-3-4.8-5.75,1.75-5.8,4.8-5.8m-30.4-14.65-15.55,28.85,6.05,3.45,20.65-38.7h-27v6.4h15.8Zm-37.65,26.3c-3.7,0-6-3.65-6-7s2.3-7.05,6-7.05,6,3.65,6,7.05-2.25,7-6,7m1.45-34.25-10,14.85c-2.45,3.65-4.6,8.1-4.6,12.6,0,7.55,5.75,12.8,13.2,12.8,7.75,0,13.3-5.55,13.3-13.3,0-6.5-4.3-12.5-11.2-12.5a8,8,0,0,0-2.95.5l-0.1-.1,7.75-11Zm-24.6,7.95v-6.4h-16.4l-4,19.8h1.15a9.34,9.34,0,0,1,6.05-2.45,7.39,7.39,0,0,1,7.35,7.5c0,3.9-2.65,7.45-6.75,7.45a10.7,10.7,0,0,1-8.5-4.9l-2.2,6.3a14.35,14.35,0,0,0,11.2,5c8.05,0,13.7-5.45,13.7-13.55,0-7-4.8-13.1-12.15-13.1l-1.9.1,1.3-5.75h11.2ZM330,879.38H322l8-15H330v15Zm6.9,0V853.53h-6.7L313.43,882v3.3H330v6.65h6.9v-6.65h4v-5.9h-4Zm-47.6-15.3c0.1-2.3,1.5-4.75,4.1-4.75,2.75,0,4.3,2.3,4.3,4.8,0,3.15-1.65,5.2-4.8,5.2h-0.8v5.25l1.35-.1c3.3-.25,5.3,3,5.3,6s-1.75,6.05-5.05,6.05-5.25-2.5-5.4-5.5h-7.4a12.35,12.35,0,0,0,12.5,11.9c7.2,0,12.55-4.6,12.55-12,0-3.45-1.4-7.7-4.85-9.2,2.55-1.7,3.6-4.95,3.6-7.85,0-6.5-4.35-10.65-10.85-10.65-6.75,0-10.9,4.35-11.55,10.85h7Zm-29.4,21.45,5.55-6.45c3.45-4,6.55-8.15,6.55-13.7a12,12,0,0,0-12.25-12.15c-7.75,0-11.9,5.6-12.4,12.85h7.8c-0.15-2.85,1.35-6.45,4.65-6.45,3.1,0,4.85,3.4,4.85,6.1,0,4.25-5.55,10.8-8.2,14.1l-9.6,12.1h25.4v-6.4H259.93Zm-36.15-24.9v31.3h7.35v-37.7h-12.3v6.4h4.95Z"/><path class="cls-4" d="M1109.17,801.53l16.55-31.3H1100v6.4h14l-16.6,31.3h27.35v-6.4h-15.65Zm-35.4-10.9v17.3h7.35v-17.3l11.9-20.4h-8.6l-7.2,13.1-6.6-13.1h-8.55Zm-35.4-2.65-12.05,19.95h8.6l7.2-13.8,7.6,13.8h8.55L1046.67,788l10.45-17.75h-8.7l-5.5,11.7-6-11.7h-8.7Zm-58.5-17.75h-7.7l12,38.45h5.4l7.1-24.65h0.1l7.5,24.65h5.4l12.75-38.45h-7.7l-7.4,25.7h-0.1l-7.8-26.2h-4.35l-7.5,26.2h-0.1Zm-36.75,0h-7.9l14.4,38.7h4.3l14.65-38.7h-7.9l-8.4,25.4h-0.1Zm-42.7,22.55c0,9.2,3.9,16.15,14,16.15s14-7,14-16.15V770.23h-7.35v21.1c0,4.65-.4,11.2-6.65,11.2s-6.65-6.55-6.65-11.2v-21.1h-7.35v22.55Zm-15.1-16.15h7.6v-6.4H870.37v6.4H878v31.3h7.35v-31.3ZM863,773.43c-2.3-2.55-7-4.2-10.3-4.2a11,11,0,0,0-11,11.3c0,5.85,3.55,8.3,8.4,10.3,3,1.15,6.55,2.25,6.55,6.15,0,2.9-1.85,5.45-4.85,5.45s-5.8-2.6-6.8-5.5l-4.75,4.65c2.6,4.35,6.4,7.35,11.6,7.35,7.7,0,12.4-5.35,12.4-12.9,0-12.65-15-10-15-16.35a4.49,4.49,0,0,1,4.6-4.25,6.78,6.78,0,0,1,5.65,3.1Zm-46.75,2.8h1c3.9,0,6.85.9,6.85,5.55s-2.85,5.8-6.9,5.8h-1V776.23Zm7.5,15.8c5-.85,7.7-5.65,7.7-10.45,0-8-5.15-11.35-12.6-11.35h-9.95v37.7h7.35v-15.2h0.1l9.15,15.2h8.9Zm-36.75.8-7.6.6,6.2,7.15a8,8,0,0,1-3.95,1.25c-7.2,0-11.05-6.1-11.05-12.35,0-6.5,3.9-13.25,11.05-13.25,6.6,0,11,6.5,11,12.6a13,13,0,0,1-2.35,7.8Zm14,16-5.15-6.1A22.22,22.22,0,0,0,800.28,789c0-10.55-7.65-19.8-18.65-19.8S763,778.48,763,789c0,10.8,7.65,19.9,18.65,19.9a17,17,0,0,0,9.35-2.55l2.6,3.15Zm-60.25-32.45H742c4.1,0,6.9.7,6.9,5.55s-2.35,5.85-6.7,5.85h-1.5v-11.4Zm0,17.5h3.65c7.7,0,12-3.9,12-11.9,0-8.55-5.15-11.7-13-11.7h-10v37.7h7.35v-14.1Zm-23.55-5.1c0,5.8-2.9,12.95-11.05,12.95s-11-7.15-11-12.95c0-6.1,4.1-12.25,11-12.25s11.05,6.15,11.05,12.25m7.6,0.3c0-11.2-7.4-19.8-18.65-19.8s-18.65,8.6-18.65,19.8,7.15,19.9,18.65,19.9,18.65-8.8,18.65-19.9m-78.45,18.9h7.35v-25.6h0.1l19.85,26.35h5.3V770.23h-7.35v25.35h-0.1l-19.85-26.35h-5.3v38.7Zm-15.65,0h7.4l-5.65-38.7h-5.3l-8.9,24.85-9.3-24.85h-5.2l-6.35,38.7h7.4l3.35-23.4h0.1l8.25,23.9H619l8.55-23.9h0.1Zm-48.9-37.7h-7.35v37.7h17.75v-6.4h-10.4v-31.3Zm-35.9,15.9h-0.1v-15.9h-7.35v37.7h7.35V791h0.1l12,16.95h9.45l-15.1-20.3,14.3-17.4h-9Zm-17.65-15.9h-7.35v23.65c0,2.45.45,8.55-3.15,8.55a3.65,3.65,0,0,1-2.85-2.45l-4.7,5.4a10.86,10.86,0,0,0,7.4,3.55,9.93,9.93,0,0,0,8.45-4.25c2.1-3,2.2-6,2.2-9.55v-24.9Zm-24.6,0h-7.35v37.7h7.35v-37.7Zm-38.7,14.85V770.23h-7.35v37.7h7.35V791.08h13.6v16.85h7.35v-37.7h-7.35v14.85h-13.6Zm-32.25,2.8v6h8a8.9,8.9,0,0,1-8.6,8.55c-7.1,0-10.65-6.95-10.65-13.2s3.5-13.5,10.6-13.5a9.59,9.59,0,0,1,8.6,6l6.5-3.5a16.27,16.27,0,0,0-14.9-9c-11.25,0-18.4,9.25-18.4,20,0,10.4,7,19.7,18,19.7,11.7,0,17.15-9.45,17.15-20.1v-0.95H432.68Zm-26.5-11.25v-6.4h-18.7v37.7h7.35v-16.6h10.65v-6.4H394.83v-8.3h11.35Zm-28.6,0v-6.4h-19.5v37.7h19.5v-6.4H365.43v-10.2h11.7v-6.4h-11.7v-8.3h12.15Zm-49.45,0h1.2c8.35,0,12.55,4.25,12.55,12.45,0,7.45-3.5,12.45-12.55,12.45h-1.2v-24.9Zm-7.35,31.3h10.45c10.75,0,18.25-8.2,18.25-18.8,0-10.75-7.3-18.9-18.2-18.9h-10.5v37.7Zm-9.85-36.5a17.54,17.54,0,0,0-8.4-2.2c-11,0-18.6,9.45-18.6,20.15,0,10.4,7.85,19.55,18.45,19.55a19.79,19.79,0,0,0,8.55-2.25v-8.75a11.5,11.5,0,0,1-8.35,4c-6.85,0-11-6.35-11-12.7,0-6.5,4-13,11.1-13a10.88,10.88,0,0,1,8.3,4v-8.8Zm-50.5,4.7h1c3.1,0,5.3,1,5.3,4.85s-1.75,5-5.35,5h-0.9v-9.8Zm-7.35,31.8h11.55c6.85,0,12-3.3,12-10.7,0-4.15-2-8.65-6.45-9.45,2.35-1.5,3.3-4.6,3.3-7.3,0-7.5-4.3-10.25-11.3-10.25h-9.15v37.7Zm7.35-16.4h1.2c3.7,0,7.7.2,7.7,5.1s-3.4,5.4-7.35,5.4h-1.55v-10.5ZM233,794h-8.95l4.15-13.7h0.1Zm2.05,6,2.9,8h7.85l-14.3-38.7h-5.7l-14.7,38.7h7.75l3.1-8h13.1Z"/><path class="cls-4" d="M960.12,718l12.45-18.65H950.42v5.9H961l-12.55,18.65h23.3V718H960.12Zm-33,2.15L919,737h7.7l17.85-37.65h-7.8l-6.3,14-5.85-14h-8Zm-32.4-9.6-10.5,13.35h8.7l5.65-8.55,6.3,8.55h8.6l-10.35-13.35,8.7-11.2h-8.6l-3.9,6.35-4.55-6.35h-8.5Zm-47-11.2H840l11.3,25.05h3.6l5.85-15,5.25,15h3.55L881,699.38h-7.6l-5.2,14.35-6-15.15h-3.35l-6,15Zm-29.35,0h-7.7l11.25,25.05h3.6l11.3-25.05h-7.65l-5,13.85Zm-36.2,0v14.45c0,7.15,3.7,10.9,11,10.9s11-3.75,11-10.9V699.38h-7v13.3c0,2.8-.45,6.15-4,6.15s-4-3.35-4-6.15v-13.3h-7Zm-10.7,5.9h4.3v-5.9h-4.3v-8.3h-7v8.3H762v5.9h2.4v18.65h7V705.28Zm-17.75-4.15c-2-1.75-5.3-2.55-7.9-2.55a7.58,7.58,0,0,0-7.8,8c0,4,2.45,5.4,4.9,6.45s4.9,1.55,4.9,3.7a2.64,2.64,0,0,1-2.8,2.65c-2.05,0-3.85-1.35-5.2-2.85l-3.2,4.15a11.28,11.28,0,0,0,8.65,4.1c5.15,0,9.55-3.25,9.55-8.7,0-4.25-2.5-6-5.05-7s-5-1.6-5-3.4a2.26,2.26,0,0,1,2.3-2.1,5.56,5.56,0,0,1,3.7,1.7Zm-31.95-1.75h-7v24.55h7V712.88c0-3.8.5-8.1,5.35-8.1a5,5,0,0,1,2.9.9l0.85-6.5a8.12,8.12,0,0,0-2.9-.6,7,7,0,0,0-6.1,3.35h-0.1v-2.55Zm-17,0h-7v2.25h-0.1a8.66,8.66,0,0,0-6.7-3c-7,0-11.2,6.45-11.2,13,0,6.65,4.1,13.2,11.3,13.2a8.21,8.21,0,0,0,6.6-3.1h0.1V737h7V699.38Zm-12.1,19.15c-3.6,0-5.8-3.6-5.8-6.9s2.2-6.85,5.8-6.85,5.8,3.55,5.8,6.85-2.2,6.9-5.8,6.9m-32.3,0c-3.6,0-5.8-3.6-5.8-6.9s2.2-6.85,5.8-6.85,5.8,3.55,5.8,6.85-2.2,6.9-5.8,6.9m-5.1-19.15h-7V737h7v-15.4h0.1a8.11,8.11,0,0,0,6.55,3.1c7.25,0,11.35-6.5,11.35-13.2,0-6.45-4.25-13-11.2-13a9,9,0,0,0-6.8,3v-2.25Zm-28.2,5.4c3.6,0,5.8,3.5,5.8,6.9s-2.2,6.85-5.8,6.85-5.8-3.55-5.8-6.85,2.2-6.9,5.8-6.9m0-6.2c-7.65,0-12.9,5.45-12.9,13.1s5.2,13,12.9,13,12.9-5.45,12.9-13-5.25-13.1-12.9-13.1m-36.2.8h-7v24.55h7V711.78c0-3,0-7.6,4.2-7.6,4,0,3.8,3.8,3.8,6.75v13h7v-15c0-5.7-1.9-10.35-8.5-10.35a7.33,7.33,0,0,0-6.4,3h-0.1v-2.25Zm-45.1,0h-7v24.55h7V711.88c0-2.6-.2-7.7,3.7-7.7,3.65,0,3.35,4.9,3.35,7.3v12.45h7V711.88c0-2.55,0-7.7,3.75-7.7,3.45,0,3.3,4.45,3.3,6.85v12.9h7v-15.3c0-5.35-1.55-10-7.8-10a8.5,8.5,0,0,0-7.15,3.85,7.78,7.78,0,0,0-7-3.85,7.39,7.39,0,0,0-6,3h-0.1v-2.2Zm-17-17.85h-7v42.4h7v-42.4Zm-31.3,0h-7v42.4h7V713.48h0.1l8,10.45h9.2l-11.15-13.75L514,699.38h-9.1l-7.35,9h-0.1V681.53Zm-20.8,3.4a4.15,4.15,0,1,0,4.15,4.15,4.17,4.17,0,0,0-4.15-4.15m3.5,14.45h-7V737h7V699.38ZM459,684.93a4.15,4.15,0,1,0,4.15,4.15,4.17,4.17,0,0,0-4.15-4.15m3.5,14.45h-7v24.55h7V699.38Zm-39.35-17.85v42.4h7V711.78c0-3,.05-7.6,4.2-7.6,3.95,0,3.8,3.8,3.8,6.75v13h7v-15c0-5.7-1.9-10.35-8.5-10.35a7.68,7.68,0,0,0-6.4,2.85h-0.1v-19.9h-7Zm-21.95,37c-3.6,0-5.8-3.55-5.8-6.85s2.2-6.9,5.8-6.9,5.8,3.6,5.8,6.9-2.2,6.85-5.8,6.85m11.95-19.15h-7v2.35h-0.1a8.13,8.13,0,0,0-6.35-3.15c-7.3,0-11.4,6.5-11.4,13.25s3.85,12.9,11.05,12.9a8.54,8.54,0,0,0,6.7-3.25h0.1v1.6c0,3.7-.1,8-5.05,8a4.69,4.69,0,0,1-4.85-4.3h-7.4c0.35,6.55,6.4,10.2,12.4,10.2,9.2,0,11.9-6.6,11.9-14.6V699.38Zm-36,5.9h5.6v-5.9h-5.6v-6.2c0-2-.35-6.05,2.75-6.05a6.31,6.31,0,0,1,2.85.85v-6.25a7.19,7.19,0,0,0-3.35-.8c-6.75,0-9.25,5.25-9.25,11.25v7.2h-2.35v5.9h2.35v18.65h7V705.28Zm-31.45,3.15c0.35-2.55,1.9-5,4.7-5s4.3,2.45,4.65,5h-9.35Zm16,4.35v-0.85c0-7.4-3.6-13.35-11.65-13.35s-11.9,5.85-11.9,13.3,4.65,12.85,12.25,12.85a11.29,11.29,0,0,0,11.15-7.65l-6.45-1c-0.95,2-2.4,3.35-4.7,3.35-3.65,0-4.85-3.5-4.85-6.6h16.15Zm-43.9,5.75c-3.6,0-5.8-3.6-5.8-6.9s2.2-6.85,5.8-6.85,5.8,3.55,5.8,6.85-2.2,6.9-5.8,6.9m5.1,5.4h7v-42.4h-7v20.1h-0.1a8.66,8.66,0,0,0-6.7-3c-7,0-11.2,6.45-11.2,13,0,6.65,4.1,13.2,11.3,13.2a8.21,8.21,0,0,0,6.6-3.1h0.1v2.3Zm-25.6-23.8a11,11,0,0,0-5.7-1.55c-7.4,0-12.75,5.85-12.75,13.15,0,7,5.15,13,12.4,13a12.2,12.2,0,0,0,6-1.5v-6.75a6.67,6.67,0,0,1-4.9,2.35c-4,0-6.45-3.2-6.45-7,0-3.6,2.25-7.3,6.2-7.3a6.89,6.89,0,0,1,5.15,2.4v-6.75Zm-37.85,18.4c-3.6,0-5.8-3.6-5.8-6.9s2.2-6.85,5.8-6.85,5.8,3.55,5.8,6.85-2.2,6.9-5.8,6.9m-12.1,5.4h7v-2.3h0.1a8.11,8.11,0,0,0,6.55,3.1c7.25,0,11.35-6.5,11.35-13.2,0-6.45-4.25-13-11.2-13a9,9,0,0,0-6.8,3v-20.1h-7v42.4Zm-22.1-5.4c-3.6,0-5.8-3.6-5.8-6.9s2.2-6.85,5.8-6.85,5.85,3.55,5.85,6.85-2.25,6.9-5.85,6.9m12.05-19.15h-6.9v2.3a9.08,9.08,0,0,0-6.85-3.1c-7,0-11.2,6.45-11.2,13,0,6.65,4.1,13.2,11.3,13.2a8.49,8.49,0,0,0,6.65-3h0.1v2.25h6.9V699.38Z"/><path class="cls-4" d="M538.92,636.18L530.82,653h7.7l17.85-37.65h-7.8l-6.3,14-5.85-14h-7.95Zm-32.15-20.8h-7.7l11.25,25.05h3.6l11.3-25.05h-7.65l-5,13.85Zm-26.4,19.15c-3.6,0-5.8-3.6-5.8-6.9s2.2-6.85,5.8-6.85,5.85,3.55,5.85,6.85-2.25,6.9-5.85,6.9m12.05-19.15h-6.9v2.3a9.08,9.08,0,0,0-6.85-3.1c-7.05,0-11.2,6.45-11.2,13,0,6.65,4.1,13.2,11.3,13.2a8.49,8.49,0,0,0,6.65-3h0.1v2.25h6.9V615.38ZM445,624.43c0.35-2.55,1.9-5,4.7-5s4.3,2.45,4.65,5H445ZM461,628.78v-0.85c0-7.4-3.6-13.35-11.65-13.35s-11.9,5.85-11.9,13.3,4.65,12.85,12.25,12.85a11.29,11.29,0,0,0,11.15-7.65l-6.45-1c-0.95,2-2.4,3.35-4.7,3.35-3.65,0-4.85-3.5-4.85-6.6H461ZM408,617.08V602.23h-7.35v37.7H408V623.08h13.6v16.85H429v-37.7h-7.35v14.85H408Zm-49.1,17.45c-3.6,0-5.8-3.6-5.8-6.9s2.2-6.85,5.8-6.85,5.85,3.55,5.85,6.85-2.25,6.9-5.85,6.9M371,615.38h-6.9v2.3a9.08,9.08,0,0,0-6.85-3.1c-7.05,0-11.2,6.45-11.2,13,0,6.65,4.1,13.2,11.3,13.2a8.49,8.49,0,0,0,6.65-3h0.1v2.25H371V615.38Zm-39.55,0h-7v24.55h7V628.88c0-3.8.5-8.1,5.35-8.1a5,5,0,0,1,2.9.9l0.85-6.5a8.12,8.12,0,0,0-2.9-.6,7,7,0,0,0-6.1,3.35h-0.1v-2.55Zm-38.9,0v14.45c0,7.15,3.7,10.9,11,10.9s11-3.75,11-10.9V615.38h-7v13.3c0,2.8-.45,6.15-4,6.15s-4-3.35-4-6.15v-13.3h-7Zm-10.7,5.9h4.3v-5.9h-4.3v-8.3h-7v8.3h-2.4v5.9h2.4v18.65h7V621.28Zm-39.75-5.9v14.45c0,7.15,3.7,10.9,11,10.9s11-3.75,11-10.9V615.38h-7v13.3c0,2.8-.45,6.15-4,6.15s-4-3.35-4-6.15v-13.3h-7Zm-9.1-6.75v-6.4h-18.7v37.7h7.35v-16.6h10.65v-6.4H221.63v-8.3H233Z"/><path class="cls-4" d="M1331.72,442.43l-19.1,46.15h7.15l19.1-46.15h-7.15Zm-53,0,19.15,41.5h7.1l-19-41.5h-7.2Zm-15.72,3.8-6.5,16.55h5.8l9.2-16.55H1263Zm-12.8,0-6.5,16.55h5.8l9.2-16.55h-8.5Zm-23.52,0-6.5,16.55h5.8l9.2-16.55h-8.5Zm-12.8,0-6.5,16.55h5.8l9.2-16.55h-8.5Zm-23.52,0-6.5,16.55h5.8l9.2-16.55h-8.5Zm-21.52,0-6.5,16.55h5.8l9.2-16.55h-8.5Zm-35,21.1h-9.05v7.5h9.05v9.1h7.5v-9.1h9v-7.5h-9v-9.05h-7.5v9.05Zm-48.27,13.5h25.6v-7.5h-25.6v7.5Zm0-12h25.6v-7.5h-25.6v7.5Zm-9.27,18.85h-25v2.5h25v-2.5Zm-46.87-16h14.3v-7.5h-14.3v7.5Zm-22.72-24.1c4.1,6.6,5.75,15,5.75,22.7,0,7.15-1.75,16.55-5.75,22.6l5.45,3.1c5.25-6.85,7.25-17.85,7.25-26.3,0-8.25-2.35-18.45-7.25-25.2Zm-15.27-3.1c-4.9,6.75-7.25,17-7.25,25.2,0,8.45,2,19.45,7.25,26.3l5.45-3.1c-4-6.05-5.75-15.45-5.75-22.6,0-7.7,1.65-16.1,5.75-22.7Zm-29,1.8,0.25,5.2-4.35-2.75-2.3,3.8,4.65,2.55-4.5,2.5,2.25,3.8,4.25-2.7-0.3,5H967l-0.2-5,4.4,2.85,2.25-3.75-4.7-2.6,4.75-2.5-2.25-3.8-4.45,2.8,0.25-5.35h-4.5Zm-27,37.7H947.8l-8.45-8.9,0.45-.45,4.75-5.1-5.55-5.3a31.28,31.28,0,0,1-5,5.35l-4.75-5c3.9-1.95,7-4.35,7-9,0-6.45-5.8-10.25-11.8-10.25s-11.7,3.85-11.7,10.35c0,3.1,1.5,4.9,2.7,6.55l0.8,1.1-0.9.4c-4.75,2.1-8.1,4.85-8.1,10.5,0,6.9,5.6,10.8,12.1,10.8,4.55,0,9.15-2,12.9-4.5Zm-10.5-24c-1.2-1.35-3-3.15-3-5a3,3,0,0,1,3.15-3.1,3.31,3.31,0,0,1,3.3,3.5c0,2-1.8,3.65-3.5,4.6m1.9,14.6a10.71,10.71,0,0,1-5.25,1.55c-2,0-4.25-1.2-4.25-3.45,0-2.1,1.95-3.5,3.55-4.5ZM877,466.93l6.3-13.45,6.3,13.45,5.7-3.35-9-18.85h-6l-9,18.85Zm-31.67-20.7-21.9,37.7h4.9l21.9-37.7h-4.9ZM850,471a4.25,4.25,0,0,1,4.25,4.25,4.25,4.25,0,0,1-8.5,0A4.25,4.25,0,0,1,850,471m0-5c-5.6,0-10.3,3.15-10.3,9.15s4.55,9.3,10.3,9.3,10.3-3.2,10.3-9.3S855.61,466,850,466m-26.25-15.25A4.25,4.25,0,0,1,828,455a4.25,4.25,0,0,1-8.5,0,4.25,4.25,0,0,1,4.25-4.25m0-5c-5.6,0-10.3,3.15-10.3,9.15s4.55,9.3,10.3,9.3,10.3-3.2,10.3-9.3-4.7-9.15-10.3-9.15m-47.07,33.85a17.59,17.59,0,0,0,5.9,3.3,18,18,0,0,0,6.45,1.25v6h4.65v-6.25c6.5-1.6,10.5-5.2,10.5-12.2s-5.15-9-10.85-11c-1.75-.6-4.9-1.6-4.9-3.9,0-2,2-2.8,4.25-2.8a10.39,10.39,0,0,1,6.4,2.45l3.7-7.25a20.31,20.31,0,0,0-9.1-2.9v-6H789v6c-6.1.4-10.2,5.85-10.2,11.75,0,6.1,3.95,8.35,7.85,9.8s7.85,1.95,7.85,4.75c0,2.45-2.6,3.65-4.7,3.65-3.2,0-6.75-2-9.05-4.2Zm-27.07-16.15h5.2l-1.3,6.2h-5.1Zm-2.3-15.8-2,10.15h-5.85v5.65h4.8l-1.2,6.2h-5.65v5.65H742l-1.65,8.65h5.3l1.65-8.65h5l-1.65,8.65H756l1.65-8.65h5.9v-5.65h-4.7l1.2-6.2H765v-5.65h-4l2-10.15h-5.25l-2,10.15h-5l2-10.15h-5.3Zm-25.57,7.8H717l-0.5,2.65a7.06,7.06,0,0,0-6.15-3.1c-6.2,0-10.2,5.9-10.2,12,0,5.15,4,9.3,8.4,9.3a8.27,8.27,0,0,0,6.4-2.9,3.64,3.64,0,0,0,3.1,2.9c2.4,0.1,5.3-1.2,7.7-4.4a17.91,17.91,0,0,0,3.1-10.65,15.39,15.39,0,0,0-5.6-11.7,17,17,0,0,0-11.75-4.35c-10.65,0-19.1,8.55-19.1,19.85s8.65,19.85,19.4,19.85a29.44,29.44,0,0,0,13.45-3.4l-4.1-3.3a18,18,0,0,1-9,2c-8.55,0-15.1-5.9-15.1-15.15,0-8.75,5.85-15.15,14.25-15.15,7.65,0,13.85,4.65,13.4,13.1-0.25,4.35-3.1,8.5-4.9,8.7-1.45.15-.85-2-0.6-3.3Zm-15.6,10.8c0-2.75,2-5.75,4.9-5.75,2.45,0,3.95,2,3.6,4.85-0.3,2.5-1.6,5.5-4.7,5.5-2.45,0-3.8-2.15-3.8-4.6m-35.27-19.3,8.55,7.55,4-3-7-8.6Zm-16.82,18.35c-0.5,1.35-1.75,4.2-3.1,4.2s-3.8-1.25-5.4-2.5c-1.9-1.45-4.35-2.8-6.4-2.8-4.1,0-6.7,5.25-8.8,7.85l5.65,4.8c0.7-1.6,1.95-4.2,3.25-4.2,1.5,0,3.35,1.6,5.6,2.9,1.75,1,3.7,2.4,6.15,2.4,4.15,0,7-4.85,8.75-7.8Zm-45.37,5.85h9.45v-24.9h-9.45v24.9Zm4.7,2.1a5.85,5.85,0,1,0,5.85,5.85,5.83,5.83,0,0,0-5.85-5.85m-31.67-19.85c5,0,6.25,8,6.25,11.65s-1.2,11.75-6.25,11.75-6.25-8.1-6.25-11.75,1.2-11.65,6.25-11.65m0-8.65c-11.2,0-16,10.55-16,20.35s4.75,20.35,16,20.35,16-10.55,16-20.35-4.8-20.35-16-20.35m-39,7.75a6.2,6.2,0,1,1,0,12.4,6.2,6.2,0,0,1,0-12.4m1.65,31.45,8.05-10.55c3.25-4.3,6-9.55,6-15a13.75,13.75,0,0,0-5-10.4c-2.9-2.35-7.1-3.25-10.75-3.25-8.6,0-16.2,5-16.2,14.25,0,7,4.7,13.3,12.1,13.3a12.45,12.45,0,0,0,5.3-1.15l0.1,0.1-10.75,12.7h11.15Zm-41.12-39.2c-6.45,0-12.85,3.55-12.85,10.75a8.94,8.94,0,0,0,5.95,8.55v0.1c-4.5,1.5-7.5,5-7.5,9.9,0,7.8,7.9,11.4,14.4,11.4s14.4-3.6,14.4-11.4c0-4.95-3-8.4-7.5-9.9V464a8.94,8.94,0,0,0,5.95-8.55c0-7.2-6.4-10.75-12.85-10.75m0,23.35a4.59,4.59,0,0,1,4.5,4.7,4.5,4.5,0,1,1-9,0,4.59,4.59,0,0,1,4.5-4.7m0-16.55a4.25,4.25,0,1,1-4.15,4.25,4.19,4.19,0,0,1,4.15-4.25m-37.07,3L449,483.93h10.75l21.65-37.7H450.45v8.3H466.2Zm-41.62,23.2a6.2,6.2,0,1,1,0-12.4,6.2,6.2,0,0,1,0,12.4m-1.6-31.5-8.1,10.6c-3.25,4.25-6.05,9.55-6.05,15a14,14,0,0,0,5.05,10.35c2.9,2.3,7.1,3.25,10.75,3.25,8.6,0,16.2-5,16.2-14.25,0-6.9-4.7-13.25-12.1-13.25a12.39,12.39,0,0,0-5.25,1.15l-0.1-.1,10.7-12.75H423Zm-26.37,8.3v-8.3H377l-3.3,20.45a17,17,0,0,1,7.2-1.55c3.9,0,8.25,1.9,8.25,6.45a5.77,5.77,0,0,1-6,5.55,16,16,0,0,1-10.5-4.35L371.21,482a22.72,22.72,0,0,0,12.3,3.4c3.75,0,8-.75,11-3.15a13.14,13.14,0,0,0,4.85-10.2c0-7.8-5.65-14.1-13.35-13.5l-3.1.25,0.65-4.3h13.05Zm-48.27,14.1h-8.9l8.8-14.5h0.1v14.5Zm9.1,0v-22.4H344.59L330,469.88v6.25h18.3v7.8h9.1v-7.8H362v-7.5h-4.55Zm-54.67-11.55a4,4,0,0,1,4-4.35,3.66,3.66,0,0,1,3.85,3.8,4,4,0,0,1-4.3,4.15h-1v6.55a6.38,6.38,0,0,1,1.7-.3,5.16,5.16,0,0,1,5.2,5,4.94,4.94,0,0,1-5.25,5,5.15,5.15,0,0,1-5.25-5.35h-10c-0.1,3.3,2,7.2,4.3,9.5,3.05,3.1,7,4.25,11.25,4.25,7.5,0,14.65-4.25,14.65-12.5,0-3.85-2.15-8.45-6.15-9.5,2.75-1.55,4-4.75,4-7.75,0-7-5.3-11-12.05-11a14.12,14.12,0,0,0-9.6,3.25,13.63,13.63,0,0,0-4.4,9.1h9.1ZM270.4,475.63l5.85-5.45c3.85-3.5,6.1-6.65,6.1-12,0-8.2-6.65-13.4-14.55-13.4-8.9,0-14.4,5.85-14.7,14.5h10.8a9.08,9.08,0,0,1-.15-1.6c0-2.55,1.45-4.6,4.1-4.6s4.3,2.5,4.3,4.9c0,3.45-2.1,6.85-4.3,9.25l-15.4,16.75h30.3v-8.3H270.4ZM225,454.53v29.4h9.8v-37.7h-15.2v8.3H225Z"/><path class="cls-4" d="M1251.62,391.63l17.75-29.4h-31.2v8.3H1253l-17.85,29.4h32.3v-8.3h-15.8Zm-44.8-9.8v18.1h9.8v-18.1l13.9-19.6h-11.75l-7,10.25-7-10.25h-11.75Zm-43-2L1149,399.93h11.85l8.65-12.3,7.9,12.3h11.8l-13.95-20.15,12-17.55h-12l-5.75,9.75-5.75-9.75h-12.05ZM1098,362.23h-10.2l11.25,37.7h10l7.4-21.85h0.1l6.6,21.85h10l12-37.7H1135l-7.1,24.35h-0.1l-7.4-24.35h-7.8l-7.9,24.35h-0.1Zm-42.6,0h-10.65l15.85,37.7h7.6l16.1-37.7h-10.65l-9.15,22.9Zm-27.7,0v19.85c0,4.9-.35,10.25-6.65,10.25s-6.65-5.35-6.65-10.25V362.23h-9.8v21.2c0,4.85.2,9.65,4,13.3,3.15,3.1,8.1,4.2,12.5,4.2s9.35-1.1,12.5-4.2c3.75-3.65,4-8.45,4-13.3v-21.2h-9.8Zm-39.55,8.3h8.1v-8.3h-26v8.3h8.1v29.4h9.8v-29.4Zm-26.2-6.2a25.78,25.78,0,0,0-11.8-3.1c-7.55,0-13,5-13,12.65,0,7.3,4,8.9,10.2,10.65,2.1,0.6,5.95,1.55,5.95,4.3s-2.45,3.8-4.75,3.8c-3.35,0-6.25-1.75-8.7-3.9l-4.2,7.9a23.26,23.26,0,0,0,13.25,4.3,16.54,16.54,0,0,0,10.7-3.55c3-2.55,3.9-6.4,3.9-10.15,0-6.1-4-8.75-9.3-10.3l-2.5-.75c-1.7-.55-4.35-1.4-4.35-3.6s2.4-3.15,4.2-3.15a10.31,10.31,0,0,1,6.5,2.5Zm-53.8,5.4h1c3.2,0,6.8.6,6.8,4.7s-3.6,4.7-6.8,4.7h-1v-9.4Zm9.7,14.75c5.35-1,8.25-5.45,8.25-10.65,0-8-5.65-11.6-13.1-11.6H898.37v37.7h9.8v-14.5h0.1l9.25,14.5h12.2Zm-27.55,16.4L884,394.43a20.52,20.52,0,0,0,4.85-13.25c0-12.25-9.1-20.2-20.85-20.2-10.85,0-20.85,8-20.85,19.4,0,12.2,8.75,20.8,20.85,20.8a19.48,19.48,0,0,0,10.35-2.45l3,3.55ZM874.22,384L865,385.18l6,6a9,9,0,0,1-3,.5c-5.85,0-10.7-4.75-10.7-11.25,0-5.2,4.85-10,10.7-10a10.83,10.83,0,0,1,10.6,10.75,9.73,9.73,0,0,1-1.75,5.55Zm-53.45-13.9h1.65c3.8,0,7,.05,7,4.8,0,4.6-3.5,4.6-7,4.6h-1.65v-9.4Zm-9.8,29.8h9.8v-12.5h5.55c8.55,0,13.35-3.9,13.35-12.8,0-8.65-5.6-12.4-13.7-12.4H811v37.7Zm-30.4-29.45c5.85,0,10.65,4.75,10.65,10,0,6.5-4.8,11.25-10.65,11.25s-10.65-4.75-10.65-11.25c0-5.2,4.8-10,10.65-10m0-9.5c-10.85,0-20.85,8-20.85,19.4,0,12.2,8.75,20.8,20.85,20.8s20.85-8.6,20.85-20.8c0-11.4-10-19.4-20.85-19.4m-68,39h9.8v-23.1h0.1l17.95,23.1h9.8v-37.7h-9.8v23h-0.1l-18-23h-9.8v37.7Zm-56.4,0h9.75l3.15-21.7h0.1l8.65,21.7h3.9l9-21.7h0.1l2.75,21.7h9.8l-5.7-37.7H688l-8.1,20.15-7.65-20.15h-9.65Zm-17.7-37.7h-9.8v37.7h21.55v-8.3H638.48v-29.4Zm-42.8,15.55h-0.1V362.23h-9.8v37.7h9.8V383.58h0.1l12.65,16.35H621l-16.35-19.85,15-17.85H607.53Zm-30.9-15.55v24.85c0,2.1.1,5.55-2.8,5.55-1.3,0-2.85-1.7-4-3.2l-5.65,5.95a11.25,11.25,0,0,0,9.7,5.55c8.35,0,12.5-5.3,12.5-13.25V362.23h-9.8Zm-19.85,0h-9.8v37.7h9.8v-37.7Zm-45.15,14.55V362.23H490v37.7h9.8V384.48h14.15v15.45h9.8v-37.7h-9.8v14.55H499.78ZM461,378.88v7.7h8c-0.4,4.35-3.65,6.55-7.9,6.55-6.45,0-9.95-5.95-9.95-11.8s3.35-11.9,9.8-11.9c3.95,0,6.8,2.4,8.15,6l9.3-3.9c-3.25-7-9.25-10.55-17-10.55-12.15,0-20.45,8-20.45,20.3,0,11.85,8.25,19.9,20.1,19.9,6.3,0,11.85-2.25,15.55-7.4,3.35-4.7,3.75-9.4,3.85-14.9H461Zm-28.6-8.35v-8.3H410.78v37.7h9.8v-14.8h10.75v-8.3H420.58v-6.3h11.85Zm-32.7,0v-8.3H378.28v37.7h21.45v-8.3H388.08v-6.5h11.05v-8.3H388.08v-6.3h11.65Zm-54.25,0h2.3c6.3,0,10.75,3.8,10.75,10.55,0,7.35-5,10.55-10.85,10.55h-2.2v-21.1Zm-9.8,29.4h13.9a18.85,18.85,0,1,0,0-37.7h-13.9v37.7Zm-11-36.8a23,23,0,0,0-8.95-1.9,20.43,20.43,0,0,0-14.35,6.1,19.73,19.73,0,0,0-5.55,13.8,18.44,18.44,0,0,0,6.05,14.25A21,21,0,0,0,316,400.93c3.05,0,5.4-.75,8.65-1.75V387.43a11.27,11.27,0,0,1-8.45,4c-6.1,0-10.2-4.3-10.2-10.25S310,370.73,316,370.73a10.64,10.64,0,0,1,8.6,4.15V363.13Zm-56,6.6h0.7c2.65,0,5.7.2,5.7,3.65,0,3.2-2.7,3.65-5.3,3.65h-1.1v-7.3Zm5.3,30.2c6.9,0,13.65-2.6,13.65-10.5,0-5.25-2.3-8.9-7.7-9.6v-0.1c3-1.55,4.15-4.3,4.15-7.7,0-7.2-4.5-9.8-11.2-9.8h-14v37.7h15.1Zm-5.3-15.6h1c3.2,0,8-.45,8,4.1,0,4.15-4.9,4-7.8,4h-1.25v-8.1Zm-33.4,1.55h-8.15l4.05-12h0.1Zm2.65,7.5,2.45,6.55h10.45l-14.2-37.7h-10.7l-14.5,37.7h10.4l2.6-6.55h13.5Z"/><path class="cls-4" d="M1107.42,308.38l12-18.1h-25.6v7.55h10.45l-12,18.1h26v-7.55h-10.8Zm-41.65,4-8.75,16.3h10.2l20.55-38.45h-10.35l-6.7,13.15-6.85-13.15h-10.5Zm-40.2-10.4-12.8,13.9h11.95l6.6-7.6,6.6,7.6h12l-12.8-13.9,10.6-11.75h-11.75l-4.6,5.3-4.6-5.3h-11.55Zm-57.5-11.75H958l13.4,25.65h5.9l6.35-14,6.35,14h5.9l13.4-25.65H999.22l-6.45,13.9-6.45-13.9h-5.4l-6.45,13.9Zm-36,0h-10.2l13.45,25.65h5.8l13.4-25.65h-10.2l-6.1,13.15Zm-44.55,0v15.45c0,8.45,6,11,13.65,11s13.65-2.6,13.65-11V290.28h-9.1V304c0,3.25-.8,5.55-4.55,5.55s-4.55-2.3-4.55-5.55v-13.7h-9.1Zm-12.9,7.5h5.15v-7.5h-5.15v-7.7h-9.1v7.7h-3v7.5h3v18.15h9.1V297.78Zm-20.6-6.7a20.39,20.39,0,0,0-8.45-1.65c-5.6,0-11.3,2.8-11.3,9.1,0,4.6,2.85,6,5.7,6.75s5.7,0.85,5.7,2.85c0,1.4-1.7,1.95-2.85,1.95a14.63,14.63,0,0,1-7.2-2.6l-3.3,6.35a19.89,19.89,0,0,0,10.35,3c6,0,12.1-2.8,12.1-9.55,0-4.75-3.2-6.75-7.45-7.6-1.25-.25-4.1-0.5-4.1-2.25,0-1.3,1.8-1.75,2.85-1.75a11.3,11.3,0,0,1,4.9,1.25Zm-38.55-.8h-9.1v25.65h9.1V305.58c0-4.4,1.25-7.75,6.3-7.75a7.37,7.37,0,0,1,3.85.85v-8.75h-1.75c-3.55,0-6.55,1.4-8.3,4.55h-0.1v-4.2Zm-34.45,7a5.58,5.58,0,0,1,5.85,5.8,5.85,5.85,0,0,1-11.7,0,5.58,5.58,0,0,1,5.85-5.8m14.65-7h-9.1v2.9h-0.1c-1.6-2.55-4.75-3.75-7.75-3.75-7.6,0-13,6.45-13,13.75s5.2,13.6,12.85,13.6a10.42,10.42,0,0,0,8-3.3v15.25h9.1V290.28Zm-53.15,7a5.58,5.58,0,0,1,5.85,5.8,5.85,5.85,0,0,1-11.7,0,5.58,5.58,0,0,1,5.85-5.8m-5.55-7h-9.1v38.45h9.1V313.48a10.49,10.49,0,0,0,8,3.3c7.6,0,12.85-6.2,12.85-13.6s-5.3-13.75-13-13.75a9.11,9.11,0,0,0-7.75,3.75h-0.1v-2.9Zm-33.35,7a5.58,5.58,0,0,1,5.85,5.8,5.85,5.85,0,0,1-11.7,0,5.58,5.58,0,0,1,5.85-5.8m0-7.9c-8.25,0-15.45,5-15.45,13.7s7.25,13.65,15.45,13.65,15.45-5,15.45-13.65-7.2-13.7-15.45-13.7m-42.5.85H652v25.65h9.1v-13.3c0-3.2,1.05-6,4.75-6,4.5,0,4.1,4.3,4.1,6.75v12.5H679V300.08c0-6.3-2.75-10.65-9.65-10.65-3.55,0-6.1,1-8.2,4.15h-0.1v-3.3Zm-54.45,0h-9.1v25.65h9.1V303.68c0-2.85,0-7.2,4-7.2s4.05,4.35,4.05,7.2v12.25h9.1V303.68c0-3,.15-7,4.35-7,3.85,0,3.75,4.35,3.75,7v12.25H641V299.58c0-5.9-2.25-10.15-8.75-10.15a9.8,9.8,0,0,0-8.7,4.9,9.39,9.39,0,0,0-8.75-4.9,9.5,9.5,0,0,0-8.1,4h-0.1v-3.2Zm-20.1-15.85h-9.1v41.5h9.1v-41.5Zm-39.4,0H538v41.5h9.1V305.48l9.95,10.45h12.75l-13.65-13.8L569,290.28H556.57l-9.45,9.25v-25.1Zm-24.65.9a5.1,5.1,0,1,0,5.1,5.1,5.12,5.12,0,0,0-5.1-5.1m4.55,15h-9.1v38.45H527V290.28Zm-24.65-15a5.1,5.1,0,1,0,5.1,5.1,5.12,5.12,0,0,0-5.1-5.1m4.55,15h-9.1v25.65h9.1V290.28Zm-47.15-15.85v41.5h9.1V302.78c0-3,1.15-6.1,4.75-6.1s4.1,3.1,4.1,6.1v13.15h9.1v-15.7c0-6.5-3.15-10.8-9.65-10.8a9.48,9.48,0,0,0-8.2,4.1h-0.1v-19.1h-9.1Zm-25.35,22.7a5.58,5.58,0,0,1,5.85,5.8,5.85,5.85,0,0,1-11.7,0,5.58,5.58,0,0,1,5.85-5.8m14.65-6.85H440V293h-0.1a8.76,8.76,0,0,0-7.55-3.55c-7.85,0-13.15,6.4-13.15,13.9s5.15,13.1,12.65,13.1a10.67,10.67,0,0,0,8.15-3.5v1.2c0,4.15-.95,7.35-5.85,7.35a6,6,0,0,1-2.6-.6,3.14,3.14,0,0,1-1.7-2h-10.2c0.8,6.75,8.7,9.8,14.6,9.8,9.45,0,14.85-4.4,14.85-15.3V290.28Zm-42.55,7.5h6.35v-7.5h-6.35v-4.15c0-2.9.8-4.3,3.15-4.3a7.81,7.81,0,0,1,3.2.85v-7.85a8.13,8.13,0,0,0-3.9-.9A11.65,11.65,0,0,0,400,278c-2.5,2.85-2.6,5.45-2.6,9v3.25h-3.2v7.5h3.2v18.15h9.1V297.78Zm-19.15,5.9c0-8.75-5.15-14.25-14-14.25-8.35,0-14.2,5.15-14.2,13.7,0,8.85,6.35,13.65,14.85,13.65a15.69,15.69,0,0,0,8.2-2.15A10.47,10.47,0,0,0,387,308h-8.75a4.55,4.55,0,0,1-4.35,2.35c-3.75,0-5.7-2-5.7-5.7h19.15v-1Zm-19-4.3c0.55-2.65,2.75-4.05,5.4-4.05a5.12,5.12,0,0,1,5.15,4.05H368.38Zm-32.7-2.05a5.58,5.58,0,0,1,5.85,5.8,5.85,5.85,0,0,1-11.7,0,5.58,5.58,0,0,1,5.85-5.8m5.55,18.6h9.1v-41.5h-9.1v18.35a10.46,10.46,0,0,0-8-3.35c-7.6,0-12.85,6.3-12.85,13.65s5.35,13.7,13,13.7c3,0,6.15-1.15,7.75-3.7h0.1v2.85Zm-29.95-25a12.42,12.42,0,0,0-6-1.5c-8.05,0-14.35,5.7-14.35,14,0,7.75,6.35,13.4,14,13.4a14.27,14.27,0,0,0,6.4-1.45v-7.7a7,7,0,0,1-4.55,1.75,6.09,6.09,0,0,1-6.4-6.3,6.16,6.16,0,0,1,6.25-6.25,8,8,0,0,1,4.7,1.8v-7.7ZM268,297.33a5.58,5.58,0,0,1,5.85,5.8,5.85,5.85,0,0,1-11.7,0,5.58,5.58,0,0,1,5.85-5.8m-14.65,18.6h9.1v-2.85h0.1c1.65,2.55,4.75,3.7,7.75,3.7,7.65,0,12.95-6.3,12.95-13.7s-5.25-13.65-12.85-13.65a10.54,10.54,0,0,0-8,3.35V274.43h-9.1v41.5Zm-10.75-25.65h-9.1v2.5a10.46,10.46,0,0,0-7.95-3.35c-7.6,0-12.85,6.3-12.85,13.65s5.35,13.7,12.95,13.7c3,0,6.15-1.15,7.75-3.7h0.1v2.85h9.1V290.28Zm-14.65,7a5.58,5.58,0,0,1,5.85,5.8,5.85,5.85,0,0,1-11.7,0,5.58,5.58,0,0,1,5.85-5.8"/><path class="cls-4" d="M545.27,213.33a5.58,5.58,0,0,1,5.85,5.8,5.85,5.85,0,0,1-11.7,0,5.58,5.58,0,0,1,5.85-5.8m5.55,18.6h9.1v-41.5h-9.1v18.35a10.46,10.46,0,0,0-7.95-3.35c-7.6,0-12.85,6.3-12.85,13.65s5.35,13.7,13,13.7c3,0,6.15-1.15,7.75-3.7h0.1v2.85Zm-30.3-41.5h-9.1v41.5h9.1v-41.5Zm-33.65,22.9a5.58,5.58,0,0,1,5.85,5.8,5.85,5.85,0,0,1-11.7,0,5.58,5.58,0,0,1,5.85-5.8m0-7.9c-8.25,0-15.45,5-15.45,13.7s7.25,13.65,15.45,13.65,15.45-4.95,15.45-13.65-7.2-13.7-15.45-13.7m-42.4-3.7h0.7c2.65,0,5.7.2,5.7,3.65,0,3.2-2.7,3.65-5.3,3.65h-1.1v-7.3Zm5.3,30.2c6.9,0,13.65-2.6,13.65-10.5,0-5.25-2.3-8.9-7.7-9.6v-0.1c3.05-1.55,4.15-4.3,4.15-7.7,0-7.2-4.5-9.8-11.2-9.8h-14v37.7h15.1Zm-5.3-15.6h1c3.2,0,8.05-.45,8.05,4.1,0,4.15-4.9,4-7.8,4h-1.25v-8.1Zm-43.2-10.05h-9.1v2.5a10.46,10.46,0,0,0-7.95-3.35c-7.6,0-12.85,6.3-12.85,13.65s5.35,13.7,12.95,13.7c3,0,6.15-1.15,7.75-3.7h0.1v2.85h9.1V206.27Zm-14.65,7.05a5.58,5.58,0,0,1,5.85,5.8,5.85,5.85,0,0,1-11.7,0,5.58,5.58,0,0,1,5.85-5.8m-31.95-7.05h-9.1v25.65h9.1V221.58c0-4.4,1.25-7.75,6.3-7.75a7.37,7.37,0,0,1,3.85.85v-8.75h-1.75c-3.55,0-6.55,1.4-8.3,4.55h-0.1v-4.2Zm-47.2,0v15.45c0,8.45,5.95,11,13.65,11s13.65-2.6,13.65-11V206.27h-9.1V220c0,3.25-.8,5.55-4.55,5.55s-4.55-2.3-4.55-5.55v-13.7h-9.1Zm-12.9,7.5h5.15v-7.5h-5.15v-7.7h-9.1v7.7h-3v7.5h3v18.15h9.1V213.77Zm-48-7.5v15.45c0,8.45,6,11,13.65,11s13.65-2.6,13.65-11V206.27h-9.1V220c0,3.25-.8,5.55-4.55,5.55s-4.55-2.3-4.55-5.55v-13.7h-9.1Zm-10.1-3.75v-8.3H214.78v37.7h9.8v-14.8h10.75v-8.3H224.58v-6.3h11.85Z"/></g></svg>