<svg id="TX" xmlns="http://www.w3.org/2000/svg" viewBox="0 0 3000 3000"><defs><style>.cls-1,.cls-3{fill:#fff;}.cls-1{stroke:#141211;stroke-miterlimit:10;}.cls-2{fill:#1469b1;opacity:0.95;}.cls-4{opacity:0.89;}.cls-5{fill:#f0675a;}.cls-6{opacity:0.85;}.cls-7{fill:#6bb933;fill-rule:evenodd;opacity:0.9;}</style></defs><title>ss-design-4</title><rect class="cls-1" width="3000" height="3000"/><rect class="cls-2" x="250" y="250.14" width="2500" height="2500"/><g id="White_Solid" data-name="White Solid"><path class="cls-3" d="M1086.6,964.92c7.32-119.39,15.27-238.75,22.34-358.16,2.06-34.81,2-69.74,3-104.62,1.21-41.33,8.22-46.73,48.7-45.45,73.43,2.31,147,2.09,220.36,5.06,53.94,2.18,107.75,7.72,161.61,11.89,13.38,1,12.52,11,11.82,20.33-3,40.63-6.74,81.23-9.3,121.9-2.87,45.47-2.91,91.2-7.83,136.43-2.84,26.12,4.76,41.8,27.85,52.52,11.09,5.15,20.56,13.71,31.49,19.29,4.25,2.16,11.66,2.31,15.65,0,10.91-6.37,18.71-3.17,27.64,3.87,8.19,6.45,17.9,11,26.93,16.35,12.29,7.34,25.46,13.57,36.64,22.33,14.13,11.08,29.12,16.24,46.44,12.37,24-5.36,44.19-3.7,58,20.72,5.61,9.91,16.82,12.85,28.47,8.18,13.93-5.59,26.14-.47,40,3,31.55,7.82,63.7,24.9,96.93,1.9,15.88-11,42.49-4.09,52.46,12.54,5.9,9.85,13,11.86,22.68,10,5.78-1.1,11.74-2.16,17.1-4.44,25.17-10.71,51.23-14.29,78.56-13.73,12.48,0.26,25-5.48,37.65-7.67,13.66-2.37,27.46-4.15,41.27-5.48,15-1.43,28.61,1.4,39.67,13.06,3.94,4.16,9.46,7.2,14.78,9.61,33.4,15.14,66.77,30.33,100.54,44.62,8.1,3.43,11.67,7.11,12,16.14,2.89,68.67,6.33,137.31,9.55,206,0.66,14.12,3.11,26.16,15.19,36.92,9.83,8.76,15.51,22.73,21.5,35.13,8.55,17.73,14.31,36.89,23.76,54.07,15,27.29,27.75,53.56,18.17,86.65-4.47,15.45-1.71,33.05-1.82,49.68-0.21,31.11.56,62.24-.41,93.32-0.68,22.19-11.27,39-30.37,51.67-10,6.59-17.79,16.88-25.53,26.36-21,25.7-51.06,30-80.72,33.58-6.25.75-13.73-9.2-20.72-14.12s-13.85-13.18-20.73-13.15c-5.78,0-13.65,9-16.73,15.7-4.12,9-3.47,20.08-6.71,29.65-8.36,24.71-17.65,49.1-26.8,73.54a14.18,14.18,0,0,1-5.12,6.13c-30.23,20.84-58.89,45.11-98.9,44.44-10.18-.18-20.66-0.28-30.48,1.91-7.9,1.76-15.76,6.05-22.32,11a273.38,273.38,0,0,0-29.64,26.07c-13.4,13.52-27.56,26.73-38.46,42.15-8.48,12-16.36,21.35-31.62,24.43-27.68,5.57-39.92,22.26-41.23,49.76-1.19,25.13-6.8,49.08-27.76,66.2-18.21,14.88-29.15,32.53-23.87,57.4,1,4.94-1.17,10.56-1.76,15.88s-3.27,11.8-1.2,15.76c18,34.33,14.8,78.62,51.1,104.61,15,10.71,15.47,40.84,4.22,56.21-8.05,11-34.23,15.28-49,7-14-7.87-28.16-12.05-44.49-10.37-7,.72-14.92-1.43-21.6-4.24-38.41-16.11-76.2-33.77-115-48.87-16.58-6.46-33.89-10.28-44.34-26.2-7.33-11.17-14.17-22.67-20.94-34.19-18.31-31.17-31.93-63.77-38.5-99.91-5.18-28.48-23.5-51.42-43.51-72.08-21.75-22.44-39.78-46.87-53.56-75.48-19.24-40-42.46-78-63.78-117-7.44-13.6-15-27.2-21.35-41.3-15.34-34-49.45-49.85-72.81-76.08-10-11.2-21.58-20.92-31.84-31.88-12.65-13.5-28.32-19.15-46.23-18.84-29,.51-58,2.68-86.92,2.12-22.62-.44-36,11.5-46.63,28.7-14.89,24.2-29,48.9-43.9,73.06a43.35,43.35,0,0,1-13.38,13.49c-25.29,15.8-72,12.3-95.94-5.94-11.06-8.41-23.53-15-34.48-23.51-24.75-19.27-51-37.26-72.87-59.42-27.18-27.48-38.4-63.83-43.35-101.76-5.51-42.16-27.28-76.08-54-107.42a263.67,263.67,0,0,0-72.85-60c-8.63-4.8-15.25-13.29-22.61-20.27-32.55-30.86-66-60.89-97.07-93.13-11.88-12.31-19.21-29.36-27.17-45-6.93-13.6-1.71-20.47,13.52-19.34,25.69,1.91,51.31,5,77,6.27,64.24,3.28,128.52,5.94,192.79,8.67q89.18,3.8,178.37,7.15c11.22,0.42,22.49-.48,33.74-0.72,10.41-.22,12.2-7.21,11.79-15.44-0.77-15.55-1.88-31.08-2.85-46.62C1076.32,1165.75,1082.5,1031.82,1086.6,964.92Z"/></g><g id="Red_Outline" data-name="Red Outline" class="cls-4"><path class="cls-5" d="M1025.08,1022.3c7.68-125.39,16-250.74,23.47-376.14,2.16-36.56,2.06-73.25,3.13-109.87,1.27-43.4,8.64-49.08,51.14-47.73,77.12,2.43,154.34,2.19,231.43,5.31,56.64,2.3,113.16,8.11,169.72,12.49,14.06,1.09,13.15,11.59,12.42,21.35-3.21,42.68-7.07,85.31-9.77,128-3,47.75-3.05,95.78-8.22,143.28-3,27.44,5,43.9,29.25,55.16,11.64,5.4,21.58,14.4,33.06,20.26,4.47,2.28,12.26,2.43,16.44,0,11.46-6.69,19.64-3.33,29,4.07,8.6,6.77,18.79,11.51,28.28,17.17,12.91,7.71,26.74,14.25,38.49,23.45,14.83,11.64,30.58,17.06,48.77,13,25.15-5.63,46.4-3.89,60.93,21.76,5.89,10.41,17.67,13.5,29.9,8.59,14.63-5.87,27.45-.49,42,3.12,33.14,8.21,66.9,26.15,101.8,2,16.67-11.54,44.64-4.3,55.09,13.17,6.19,10.35,13.61,12.45,23.82,10.51,6.08-1.16,12.33-2.27,18-4.67,26.44-11.25,53.8-15,82.5-14.42,13.11,0.27,26.25-5.75,39.54-8.05,14.35-2.49,28.85-4.36,43.34-5.75,15.7-1.51,30.05,1.47,41.66,13.72,4.14,4.37,9.93,7.56,15.52,10.1,35.07,15.9,70.13,31.85,105.58,46.86,8.51,3.6,12.26,7.46,12.66,16.95,3,72.12,6.64,144.2,10,216.31,0.69,14.83,3.27,27.47,16,38.77,10.33,9.2,16.3,23.87,22.58,36.89,9,18.62,15,38.74,25,56.79,15.76,28.67,29.15,56.26,19.08,91-4.7,16.21-1.8,34.71-1.91,52.17-0.22,32.66.58,65.36-.43,98-0.72,23.3-11.84,41-31.9,54.26-10.48,6.92-18.68,17.73-26.81,27.69-22,27-53.63,31.52-84.78,35.26-6.57.79-14.43-9.66-21.77-14.83s-14.53-13.84-21.77-13.8c-6.08,0-14.34,9.4-17.57,16.48-4.33,9.47-3.65,21.09-7,31.15-8.78,26-18.54,51.56-28.15,77.22a14.77,14.77,0,0,1-5.37,6.44c-31.74,21.9-61.85,47.38-103.86,46.67-10.69-.18-21.7-0.29-32,2-8.3,1.85-16.55,6.35-23.44,11.53a286.48,286.48,0,0,0-31.13,27.38c-14.07,14.19-28.94,28.08-40.38,44.27-8.92,12.6-17.18,22.42-33.21,25.65-29.07,5.86-41.92,23.38-43.29,52.26-1.25,26.4-7.14,51.54-29.15,69.53-19.13,15.63-30.61,34.16-25.07,60.28,1.11,5.19-1.22,11.08-1.85,16.68s-3.43,12.39-1.25,16.55c18.86,36.06,15.53,82.57,53.66,109.86,15.71,11.24,16.25,42.89,4.43,59-8.47,11.55-35.94,16.05-51.49,7.32-14.71-8.28-29.58-12.67-46.73-10.9-7.37.76-15.67-1.51-22.69-4.45-40.33-16.93-80-35.47-120.77-51.33-17.41-6.78-35.59-10.79-46.56-27.52-7.7-11.72-14.88-23.81-22-35.9-19.23-32.74-33.53-67-40.43-104.93-5.44-29.91-24.68-54-45.71-75.7-22.83-23.57-41.77-49.23-56.24-79.27-20.21-42-44.59-81.92-67-122.84-7.81-14.28-15.74-28.55-22.42-43.37-16.11-35.74-51.94-52.35-76.47-79.9-10.47-11.76-22.66-22-33.44-33.48-13.28-14.18-29.73-20.11-48.55-19.77-30.44.53-60.89,2.81-91.29,2.22-23.76-.47-37.86,12.07-49,30.14-15.64,25.4-30.4,51.35-46.1,76.72a45.55,45.55,0,0,1-14.06,14.16c-26.56,16.59-75.57,12.91-100.76-6.24-11.62-8.82-24.71-15.73-36.21-24.69-26-20.24-53.51-39.13-76.53-62.41-28.55-28.85-40.33-67-45.53-106.87-5.78-44.28-28.64-79.9-56.74-112.82a276.91,276.91,0,0,0-76.51-63c-9.06-5-16-14-23.75-21.29-34.18-32.41-69.28-63.95-101.95-97.81-12.47-12.93-20.17-30.84-28.54-47.25-7.28-14.29-1.79-21.5,14.2-20.31,27,2,53.89,5.21,80.9,6.59,67.47,3.44,135,6.23,202.47,9.1q93.65,4,187.33,7.5c11.79,0.44,23.62-.51,35.43-0.76,10.94-.23,12.81-7.57,12.38-16.21-0.81-16.33-2-32.64-3-49C1014.29,1233.21,1020.78,1092.56,1025.08,1022.3Zm-513.84,275-3.36,6.12c20.44,22,32.68,50.85,61.38,66.1,10.59,5.62,20,14,28.76,22.4,16.65,15.89,30.12,36.45,49.16,48.15,26.61,16.38,50.86,34.36,73.43,55.93,37.37,35.7,66.78,76,71.2,128.35,5.28,62.42,41.34,104.61,85.86,141.65,21.86,18.18,46.76,32.81,70.7,48.4,28,18.24,61.4,17.49,78.49-3.27,14.93-18.14,26.58-38.95,41-57.56,13.94-18,29.08-35.18,44.73-51.73,4-4.25,11.91-6.38,18.16-6.71,32.53-1.68,65.1-2.72,97.67-3.46,23.88-.54,45.87,4.87,62.93,23.22,15.27,16.43,28.05,36.74,46.34,48.46,34.34,22,56.89,51.5,73.85,87.53,10,21.26,25.5,39.94,35.21,61.3,28.46,62.61,59.3,123.05,107.57,173.79a195.73,195.73,0,0,1,51,99.42c4.37,22.77,14.21,45,24.52,66,14.75,30.11,33,57.37,68.19,68.59,24.44,7.81,47.75,19.14,71.65,28.69,16.64,6.64,33,16.34,50.27,18.49,23.65,2.95,46.24,5.55,68.08,16.78,17.31,8.89,33.87-4.78,30.78-23.8-1-6-6.26-11.51-10.24-16.73-19.26-25.23-43.37-48.1-37.6-84.69,0.64-4.06-2.74-10-6.05-13.23-11.35-11-10.78-24-8-37.72,1.33-6.58,4.07-13.38,3.39-19.79-3-27.62,7.37-48.89,27.31-67.45,18.31-17,25.38-39.54,24.8-64.33-0.62-26.19,4.45-35.41,28.63-45.2,25.09-10.15,47.44-22.62,59.36-49,3-6.74,10.22-11.72,15.82-17.18,16.25-15.85,39.23-23.61,51.5-44.8,3.45-6,13.9-9.63,21.7-10.92a308.17,308.17,0,0,1,50.47-4.39c32.31,0,55.84-18.46,80.22-35.53a18.25,18.25,0,0,0,6.09-7.88c13.76-34.88,34.76-67.11,37.8-105.93,1.25-15.86,11.39-25.59,26.45-29.24,13.55-3.28,36,6.38,42.11,19.16,5.94,12.43,14.11,10.68,25.08,9.35,43.92-5.35,62.43-44.74,92.7-68.2,4.32-3.34,5.61-12.25,6-18.73,1.36-24.18,1.61-48.43,2.52-72.64,1.43-38.21,4.21-76.41,4-114.6a100.51,100.51,0,0,0-11-44.79c-15.19-28.78-30.47-57.12-38.48-89-2-8-7.62-18.38-14.33-21.29-13.65-5.92-16.42-15.57-17-28-3.22-73.19-6.74-146.37-9.39-219.58-0.4-10.87-2.45-16.41-14.11-18.37-8.49-1.42-16.6-6.07-24.44-10.15-12.38-6.46-24.2-14-36.58-20.44-17.36-9-35.5-16.68-52.4-26.47-15.63-9-31.21-12.23-48.53-7.05-28.66,8.58-57.31,16.14-87.9,14.25-9.57-.59-19.42,4.91-29.28,7-19.67,4.15-39.33,9.08-59.25,11-6.41.63-16-5.42-20.07-11.25-13.27-18.94-21.56-21-42.08-10.29-10.08,5.27-22.52,11.2-32.89,9.74-28.59-4-56.64-11.89-85-18-3.6-.77-8-0.9-11.29.45-25.89,10.64-46.16,1.78-63.09-18-8.53-10-17.59-12-31.12-10.75-17.31,1.59-36.93,1.08-52.43-5.69-27.93-12.21-53.53-29.74-80.1-45.05a5.59,5.59,0,0,1-1.32-1c-7-7.85-13.7-7.09-22.25-1.48-4,2.59-11.88,2.92-16.1.68-15.72-8.34-29.67-23.23-46.08-26.42-38.57-7.5-36-34.53-35.56-62q1.5-87.87,3.31-175.74c0.09-4.5.36-9,.66-13.5q2.8-42.78,5.64-85.56c0.61-9.23-3.81-13.25-13-13.45-57.84-1.27-115.68-2.84-173.52-4.11-66.44-1.45-132.89-2.56-199.32-4.1-26.33-.61-30.52,2.33-31.85,28.85-1,20.22,0,40.55-.84,60.79-2,45.62-4.21,91.24-7.09,136.81-4.59,72.58-9.69,145.12-14.75,217.67-4.47,64-10.66,128-13.27,192.06-1.83,45,1.23,90.1,1.85,135.17,0.48,35.22-1.34,36.52-35.76,34.75-13.47-.69-27,0.31-40.56.69-9.52.27-19.06,1.5-28.54,1.12-56.79-2.28-113.59-4.5-170.34-7.53-70.3-3.75-140.55-8.27-210.83-12.49C538.82,1299.24,525,1298.25,511.24,1297.34Z"/></g><g id="Green_Outline" data-name="Green Outline" class="cls-6"><path class="cls-7" d="M975,1034.73c8.61-140.49,18-280.94,26.29-421.45,2.42-41,2.31-82.07,3.51-123.1,1.42-48.63,9.68-55,57.3-53.48,86.41,2.72,172.93,2.46,259.3,6,63.47,2.57,126.79,9.08,190.16,14,15.75,1.22,14.74,13,13.91,23.92-3.59,47.82-7.93,95.58-11,143.44-3.38,53.5-3.42,107.32-9.21,160.54-3.34,30.74,5.59,49.19,32.77,61.8,13,6.06,24.18,16.14,37,22.7,5,2.55,13.72,2.72,18.42,0,12.84-7.49,22-3.73,32.53,4.56,9.64,7.59,21.06,12.9,31.68,19.24,14.47,8.64,30,16,43.12,26.28,16.63,13,34.27,19.11,54.66,14.55,28.18-6.31,52-4.36,68.26,24.39,6.6,11.66,19.79,15.12,33.5,9.62,16.38-6.58,30.75-.55,47.07,3.49,37.13,9.2,75,29.3,114.06,2.24,18.68-12.93,50-4.81,61.73,14.76,6.94,11.59,15.25,14,26.69,11.78,6.81-1.3,13.81-2.55,20.13-5.23,29.62-12.6,60.28-16.81,92.45-16.15,14.69,0.3,29.42-6.45,44.3-9,16.08-2.79,32.32-4.89,48.56-6.45,17.59-1.69,33.67,1.64,46.67,15.37,4.64,4.89,11.13,8.47,17.39,11.31,39.29,17.82,78.58,35.69,118.3,52.51,9.53,4,13.74,8.36,14.18,19,3.4,80.8,7.44,161.57,11.23,242.36,0.78,16.62,3.66,30.78,17.87,43.44,11.57,10.31,18.25,26.75,25.3,41.34,10.06,20.86,16.84,43.41,28,63.63,17.66,32.11,32.66,63,21.38,102-5.27,18.17-2,38.89-2.14,58.46-0.25,36.6.65,73.23-.48,109.8-0.81,26.11-13.26,45.95-35.74,60.8-11.74,7.75-20.93,19.87-30,31-24.69,30.23-60.09,35.32-95,39.51-7.35.89-16.16-10.83-24.39-16.62s-16.29-15.51-24.4-15.47c-6.81,0-16.06,10.53-19.69,18.47-4.85,10.61-4.09,23.64-7.89,34.9-9.83,29.08-20.77,57.78-31.54,86.53a16.63,16.63,0,0,1-6,7.21c-35.57,24.54-69.3,53.09-116.37,52.29-12-.2-24.31-0.33-35.87,2.25-9.31,2.08-18.55,7.13-26.27,12.93a320.34,320.34,0,0,0-34.88,30.67c-15.77,15.91-32.42,31.46-45.25,49.6-10,14.12-19.25,25.12-37.21,28.74-32.57,6.57-47,26.2-48.52,58.56-1.4,29.57-8,57.75-32.66,77.9-21.43,17.51-34.29,38.28-28.08,67.54,1.24,5.82-1.38,12.42-2.08,18.68s-3.85,13.88-1.4,18.54c21.13,40.4,17.4,92.51,60.13,123.09,17.6,12.6,18.21,48.07,5,66.15-9.48,12.94-40.28,18-57.69,8.2-16.48-9.26-33.14-14.19-52.36-12.2-8.25.85-17.55-1.69-25.41-5-45.2-19-89.67-39.74-135.32-57.51-19.51-7.58-39.88-12.09-52.16-30.82-8.63-13.15-16.68-26.68-24.64-40.24-21.54-36.68-37.57-75-45.3-117.57-6.09-33.52-27.66-60.5-51.21-84.82-25.59-26.41-46.81-55.15-63-88.82-22.64-47-50-91.78-75.05-137.63-8.76-16-17.64-32-25.13-48.6-18.06-40-58.2-58.66-85.68-89.52-11.72-13.18-25.39-24.62-37.47-37.51-14.88-15.89-33.32-22.53-54.39-22.16-34.1.6-68.22,3.16-102.28,2.5-26.63-.53-42.42,13.53-54.88,33.77-17.52,28.47-34.07,57.54-51.66,86a51,51,0,0,1-15.75,15.86c-29.76,18.59-84.67,14.48-112.9-7-13-9.89-27.69-17.63-40.58-27.67-29.12-22.67-60-43.84-85.75-69.91-32-32.33-45.19-75.11-51-119.74-6.48-49.62-32.1-89.53-63.57-126.41a310.24,310.24,0,0,0-85.72-70.62c-10.15-5.64-17.94-15.64-26.61-23.85-38.3-36.31-77.62-71.65-114.23-109.59-14-14.49-22.6-34.55-32-52.93-8.15-16-2-24.09,15.9-22.76,30.23,2.25,60.38,5.84,90.64,7.38,75.59,3.86,151.23,7,226.86,10.2Q808.35,1341,913.31,1345c13.21,0.49,26.47-.56,39.7-0.85,12.25-.26,14.35-8.48,13.87-18.16-0.91-18.3-2.22-36.57-3.36-54.86C962.88,1271,970.16,1113.46,975,1034.73ZM399.24,1342.9l-3.77,6.86c22.9,24.65,36.61,57,68.77,74.06,11.86,6.3,22.4,15.72,32.22,25.09,18.65,17.8,33.74,40.84,55.08,54,29.82,18.35,57,38.49,82.28,62.66,41.88,40,74.82,85.18,79.78,143.83,5.91,69.92,46.31,117.2,96.2,158.7,24.49,20.38,52.39,36.76,79.21,54.24,31.37,20.44,68.8,19.59,87.94-3.67,16.73-20.32,29.78-43.64,45.92-64.5,15.62-20.19,32.58-39.42,50.13-58,4.5-4.76,13.34-7.15,20.34-7.52,36.45-1.88,72.94-3,109.43-3.88,26.75-.61,51.39,5.46,70.5,26,17.11,18.41,31.43,41.17,51.92,54.3,38.48,24.68,63.75,57.71,82.75,98.09,11.2,23.81,28.58,44.75,39.45,68.68,31.89,70.15,66.44,137.87,120.53,194.71A219.28,219.28,0,0,1,1625.1,2338c4.9,25.52,15.93,50.41,27.47,74,16.53,33.74,37,64.28,76.4,76.86,27.39,8.74,53.5,21.44,80.29,32.14,18.65,7.44,37,18.31,56.33,20.72,26.49,3.3,51.8,6.22,76.27,18.79,19.4,10,37.95-5.35,34.49-26.66-1.09-6.71-7-12.9-11.48-18.75-21.58-28.27-48.58-53.88-42.12-94.89,0.72-4.55-3.07-11.21-6.79-14.83-12.71-12.36-12.07-26.87-9-42.26,1.5-7.38,4.56-15,3.79-22.17-3.34-30.95,8.26-54.78,30.6-75.58,20.51-19.09,28.44-44.3,27.79-72.07-0.69-29.35,5-39.67,32.08-50.65,28.12-11.38,53.16-25.35,66.51-54.87,3.41-7.54,11.45-13.12,17.73-19.24,18.21-17.77,44-26.46,57.71-50.2,3.87-6.67,15.57-10.79,24.32-12.23a345.57,345.57,0,0,1,56.54-4.92c36.2,0.06,62.57-20.68,89.88-39.81a20.43,20.43,0,0,0,6.82-8.83c15.42-39.08,38.95-75.19,42.36-118.69,1.39-17.77,12.77-28.67,29.64-32.76,15.19-3.68,40.34,7.15,47.18,21.47,6.65,13.93,15.8,12,28.1,10.47,49.21-6,69.95-50.13,103.87-76.41,4.84-3.74,6.29-13.73,6.7-21,1.51-27.1,1.81-54.26,2.82-81.39,1.6-42.81,4.72-85.62,4.47-128.41-0.11-16.87-4.43-35.32-12.28-50.18-17-32.25-34.14-64-43.12-99.76-2.26-9-8.53-20.6-16.06-23.86-15.3-6.63-18.39-17.45-19-31.36-3.61-82-7.55-164-10.53-246-0.45-12.18-2.74-18.38-15.81-20.58-9.51-1.6-18.61-6.8-27.38-11.38-13.87-7.23-27.12-15.67-41-22.9-19.44-10.13-39.77-18.69-58.71-29.66-17.51-10.14-35-13.71-54.37-7.9-32.11,9.61-64.22,18.08-98.5,16-10.73-.66-21.76,5.51-32.81,7.83-22,4.65-44.07,10.17-66.39,12.36-7.19.7-17.91-6.08-22.49-12.6-14.87-21.22-24.15-23.54-47.15-11.53-11.29,5.9-25.23,12.55-36.85,10.92-32-4.51-63.46-13.32-95.2-20.11-4-.86-9-1-12.64.5-29,11.93-51.73,2-70.69-20.14-9.57-11.17-19.71-13.44-34.87-12-19.39,1.78-41.38,1.21-58.74-6.38-31.3-13.68-60-33.32-89.76-50.48a5.94,5.94,0,0,1-1.48-1.17c-7.81-8.8-15.36-7.95-24.94-1.66-4.43,2.91-13.31,3.27-18,.76-17.61-9.35-33.24-26-51.62-29.61-43.22-8.4-40.36-38.68-39.84-69.47q1.68-98.45,3.72-196.9c0.1-5,.4-10.09.73-15.13q3.13-47.93,6.32-95.87c0.68-10.34-4.27-14.85-14.57-15.07-64.81-1.42-129.61-3.18-194.42-4.6-74.44-1.63-148.89-2.86-223.33-4.59-29.5-.68-34.2,2.61-35.69,32.33-1.14,22.66,0,45.43-.94,68.11-2.24,51.12-4.72,102.23-7.95,153.29-5.14,81.32-10.86,162.6-16.53,243.89-5,71.74-11.95,143.38-14.86,215.2-2,50.37,1.38,101,2.07,151.46,0.54,39.46-1.51,40.92-40.07,38.93-15.09-.77-30.3.35-45.45,0.78-10.66.31-21.35,1.68-32,1.25-63.63-2.56-127.27-5-190.86-8.44-78.76-4.21-157.48-9.26-236.22-14C430.15,1345,414.7,1343.93,399.24,1342.9Z"/></g></svg>