<svg id="Blue_Solid" data-name="Blue Solid" xmlns="http://www.w3.org/2000/svg" viewBox="0 0 3000 3000"><defs><style>.cls-1{fill:#fffff7;}.cls-2{fill:#1d1c1b;}.cls-3{fill:#6bb933;}.cls-4{fill:none;stroke:#141211;stroke-miterlimit:10;stroke-width:5px;}</style></defs><title>ss-design-10</title><rect class="cls-1" width="3000" height="3000"/><path class="cls-2" d="M1362.77,1138.88h18.3c14,0,22.6,5.5,22.6,20.5,0,5.4-1.9,11.6-6.6,14.6,8.9,1.6,12.9,10.6,12.9,18.9,0,14.8-10.4,21.4-24.1,21.4h-23.1v-75.4Zm14.7,31.4h1.8c7.2,0,10.7-2.1,10.7-9.9s-4.4-9.7-10.6-9.7h-1.9v19.6Zm0,32.2h3.1c7.9,0,14.7-1,14.7-10.8s-8-10.2-15.4-10.2h-2.4v21Z"/><path class="cls-2" d="M1442.77,1201.49h20.8v12.8h-35.5v-75.4h14.7v62.6Z"/><path class="cls-2" d="M1512,1216.29c-23,0-37.3-17.6-37.3-39.8,0-22.4,14.8-39.6,37.3-39.6s37.3,17.2,37.3,39.6C1549.27,1198.69,1535,1216.29,1512,1216.29Zm0-64.9c-13.9,0-22.1,12.3-22.1,24.5,0,11.6,5.8,25.9,22.1,25.9s22.1-14.3,22.1-25.9C1534.07,1163.69,1525.87,1151.39,1512,1151.39Z"/><path class="cls-2" d="M1633.07,1174.19v1.9c0,21.3-10.9,40.2-34.3,40.2-22,0-35.9-18.6-35.9-39.4,0-21.5,14.3-40,36.8-40,12.8,0,24,6.5,29.8,18l-13,7c-3-6.8-9.4-12-17.2-12-14.2,0-21.2,14.5-21.2,27s7.1,26.4,21.3,26.4c9.2,0,16.9-8,17.2-17.1h-16v-12h32.5Z"/><path class="cls-2" d="M693.71,1198.39l-6.2,15.9H672l29.4-77.4h11.4l28.6,77.4h-15.7l-5.8-15.9h-26.2Zm12.7-39.4h-0.2l-8.3,27.4h17.9Z"/><path class="cls-2" d="M755.91,1138.88h18.3c14,0,22.6,5.5,22.6,20.5,0,5.4-1.9,11.6-6.6,14.6,8.9,1.6,12.9,10.6,12.9,18.9,0,14.8-10.4,21.4-24.1,21.4h-23.1v-75.4Zm14.7,31.4h1.8c7.2,0,10.7-2.1,10.7-9.9s-4.4-9.7-10.6-9.7h-1.9v19.6Zm0,32.2h3.1c7.9,0,14.7-1,14.7-10.8s-8-10.2-15.4-10.2h-2.4v21Z"/><path class="cls-2" d="M854.91,1216.29c-23,0-37.3-17.6-37.3-39.8,0-22.4,14.8-39.6,37.3-39.6s37.3,17.2,37.3,39.6C892.22,1198.69,877.92,1216.29,854.91,1216.29Zm0-64.9c-13.9,0-22.1,12.3-22.1,24.5,0,11.6,5.8,25.9,22.1,25.9s22.1-14.3,22.1-25.9C877,1163.69,868.82,1151.39,854.91,1151.39Z"/><path class="cls-2" d="M909,1138.88h14.7v42.2c0,9.3.8,22.4,13.3,22.4s13.3-13.1,13.3-22.4v-42.2H965V1184c0,18.4-7.8,32.3-28,32.3s-28-13.9-28-32.3v-45.1Z"/><path class="cls-2" d="M1009.91,1214.29h-14.7v-62.6H980v-12.8h45.1v12.8h-15.2v62.6Z"/><path class="cls-2" d="M2047.35,1156.49c-2.8-3.8-6.4-6.2-11.3-6.2-4.7,0-9.2,3.6-9.2,8.5,0,12.7,29.9,7.4,29.9,32.7,0,15.1-9.4,25.8-24.8,25.8-10.4,0-18-6-23.2-14.7l9.5-9.3c2,5.8,7.3,11,13.6,11,6,0,9.7-5.1,9.7-10.9,0-7.8-7.2-10-13.1-12.3-9.7-4-16.8-8.9-16.8-20.6,0-12.5,9.3-22.6,22-22.6,6.7,0,16,3.3,20.6,8.4Z"/><path class="cls-2" d="M2116.35,1169.59v-29.7h14.7v75.4h-14.7v-33.7h-27.2v33.7h-14.7v-75.4h14.7v29.7h27.2Z"/><path class="cls-2" d="M2185.55,1217.29c-23,0-37.3-17.6-37.3-39.8,0-22.4,14.8-39.6,37.3-39.6s37.3,17.2,37.3,39.6C2222.85,1199.69,2208.55,1217.29,2185.55,1217.29Zm0-64.9c-13.9,0-22.1,12.3-22.1,24.5,0,11.6,5.8,25.9,22.1,25.9s22.1-14.3,22.1-25.9C2207.65,1164.69,2199.45,1152.39,2185.55,1152.39Z"/><path class="cls-2" d="M2254.75,1215.29H2240v-75.4h20c15.8,0,26.1,6.3,26.1,23.4,0,16-8.7,23.8-24.1,23.8h-7.3v28.2Zm0-40.4h3c8.7,0,13.4-1.9,13.4-11.7s-5.6-11.1-13.8-11.1h-2.6v22.8Z"/><path class="cls-2" d="M377.12,651.25v-29.1h19.6v75.4h-19.6v-30.9h-28.3v30.9h-19.6v-75.4h19.6v29.1h28.3Z"/><path class="cls-2" d="M499.12,658.45c0,24.4-17.5,41.6-41.7,41.6s-41.7-17.2-41.7-41.6c0-22.8,20-38.8,41.7-38.8S499.12,635.65,499.12,658.45Zm-63,.1c0,13,9.6,22.5,21.3,22.5s21.3-9.5,21.3-22.5c0-10.4-9.6-19.9-21.3-19.9S436.12,648.15,436.12,658.55Z"/><path class="cls-2" d="M526.52,622.15h19.3l15.3,40.3,16.2-40.3h19.5l11.4,75.4h-19.6l-5.5-43.4h-0.2l-18.1,43.4H557l-17.3-43.4h-0.2l-6.3,43.4h-19.5Z"/><path class="cls-2" d="M646.11,638.75v12.6h22.1V668h-22.1v13h23.3v16.6h-42.9v-75.4h42.9v16.6h-23.3Z"/><path class="cls-3" d="M2225.55,965.15H2234v3.37a13.81,13.81,0,0,1,10-4.38q6.37,0,9.93,4,3.07,3.41,3.07,11.12v22.36h-8.46V981.26q0-5.39-1.5-7.45t-5.32-2.1q-4.19,0-6,2.77T2234,984v17.6h-8.46V965.15Z"/><path class="cls-3" d="M2302.17,965.15h8.46v36.48h-8.46v-3.82q-5.21,4.87-11.2,4.87a16.13,16.13,0,0,1-12.51-5.47,20.34,20.34,0,0,1-4.91-13.93,19.71,19.71,0,0,1,4.91-13.67,15.82,15.82,0,0,1,12.28-5.47q6.37,0,11.42,5.24v-4.23Zm-20,18.13a12.71,12.71,0,0,0,2.81,8.54,9.2,9.2,0,0,0,7.27,3.33,9.67,9.67,0,0,0,7.57-3.22,13.86,13.86,0,0,0,0-16.93,9.53,9.53,0,0,0-7.49-3.26,9.32,9.32,0,0,0-7.27,3.3A12.15,12.15,0,0,0,2282.17,983.28Z"/><path class="cls-3" d="M2334.15,965.15l9.44,20.49,9.4-20.49h9.48l-19,39-18.8-39h9.44Z"/><path class="cls-3" d="M2407.17,965.15h8.43v3.37a17.62,17.62,0,0,1,4.16-3.45,10.09,10.09,0,0,1,4.61-.94,11.18,11.18,0,0,1,9.78,5.39,12.65,12.65,0,0,1,10.75-5.39q12.32,0,12.32,14.94v22.55h-8.46V981.37q0-5.24-1.27-7.42a4.62,4.62,0,0,0-4.31-2.21,5.49,5.49,0,0,0-5.07,2.62q-1.59,2.62-1.59,8.43v18.84H2428V981.48q0-9.74-5.62-9.74a5.63,5.63,0,0,0-5.19,2.66q-1.63,2.66-1.63,8.39v18.84h-8.43V965.15Z"/><path class="cls-3" d="M2508.73,985.38h-26.14a11.08,11.08,0,0,0,2.92,7.15,8.91,8.91,0,0,0,6.63,2.62,8.62,8.62,0,0,0,5.21-1.5,21.31,21.31,0,0,0,4.61-5.54l7.12,4a28.24,28.24,0,0,1-3.48,4.81,18.5,18.5,0,0,1-3.93,3.3,15.76,15.76,0,0,1-4.53,1.89,22.07,22.07,0,0,1-5.28.6q-8.16,0-13.11-5.24t-4.94-14q0-8.65,4.79-14t12.81-5.28q8.05,0,12.73,5.13t4.64,14.12Zm-8.65-6.89q-1.76-6.74-8.5-6.74a8.74,8.74,0,0,0-2.88.47,8.25,8.25,0,0,0-2.45,1.35,8.54,8.54,0,0,0-1.89,2.12,9.84,9.84,0,0,0-1.2,2.81h16.93Z"/><path class="cls-3" d="M2525.62,965.15h8.46v3.37a13.81,13.81,0,0,1,10-4.38q6.37,0,9.93,4,3.07,3.41,3.07,11.12v22.36h-8.46V981.26q0-5.39-1.5-7.45t-5.32-2.1q-4.19,0-6,2.77t-1.72,9.55v17.6h-8.46V965.15Z"/><path class="cls-3" d="M2583.78,965.15v20.94q0,9.06,7.15,9.06t7.15-9.06V965.15h8.43v21.12a23.49,23.49,0,0,1-1.09,7.57,12.7,12.7,0,0,1-3.63,5.13,17.71,17.71,0,0,1-21.69,0,12.92,12.92,0,0,1-3.71-5.13,20.87,20.87,0,0,1-1-7.57V965.15h8.43Z"/><path class="cls-3" d="M2232.51,1952.15v26.28h-7.78v-26.28H2222v-7.22h2.75V1932q0-6.33,2.2-8.94,3-3.65,8.81-3.65a15.14,15.14,0,0,1,5.19,1.2v7.91l-0.79-.41a9.72,9.72,0,0,0-4.13-1.27,2.8,2.8,0,0,0-2.79,1.48q-0.72,1.44-.72,5.57v11h8.43v7.22h-8.43Z"/><path class="cls-3" d="M2251.74,1961.44a16.65,16.65,0,0,1,5.19-12.35,18.33,18.33,0,0,1,25.39,0,17.94,17.94,0,0,1,0,25.22,17.75,17.75,0,0,1-12.83,5.06,17,17,0,0,1-12.63-5.16A17.36,17.36,0,0,1,2251.74,1961.44Zm7.91,0.14a11.3,11.3,0,0,0,2.68,7.95,10.43,10.43,0,0,0,14.52,0,12.58,12.58,0,0,0,0-15.62,10.3,10.3,0,0,0-14.45,0A10.77,10.77,0,0,0,2259.65,1961.58Z"/><path class="cls-3" d="M2301.14,1961.44a16.65,16.65,0,0,1,5.19-12.35,18.33,18.33,0,0,1,25.39,0,17.94,17.94,0,0,1,0,25.22,17.75,17.75,0,0,1-12.83,5.06,17,17,0,0,1-12.63-5.16A17.36,17.36,0,0,1,2301.14,1961.44Zm7.91,0.14a11.3,11.3,0,0,0,2.68,7.95,10.43,10.43,0,0,0,14.52,0,12.58,12.58,0,0,0,0-15.62,10.3,10.3,0,0,0-14.45,0A10.77,10.77,0,0,0,2309,1961.58Z"/><path class="cls-3" d="M2360.51,1952.15v26.28h-7.74v-26.28h-3.3v-7.22h3.3v-12.28h7.74v12.28h6v7.22h-6Z"/><path class="cls-3" d="M2410,1963.51h-24a10.18,10.18,0,0,0,2.68,6.57,8.18,8.18,0,0,0,6.09,2.41,7.92,7.92,0,0,0,4.78-1.38,19.58,19.58,0,0,0,4.23-5.09l6.54,3.65a25.94,25.94,0,0,1-3.2,4.42,17,17,0,0,1-3.61,3,14.49,14.49,0,0,1-4.16,1.74,20.27,20.27,0,0,1-4.85.55q-7.5,0-12-4.82t-4.54-12.87q0-7.95,4.4-12.87A15.18,15.18,0,0,1,2394,1944q7.4,0,11.7,4.71t4.27,13Zm-7.95-6.33q-1.62-6.19-7.81-6.19a8,8,0,0,0-2.65.43,7.57,7.57,0,0,0-2.25,1.24,7.84,7.84,0,0,0-1.74,1.94,9,9,0,0,0-1.1,2.58H2402Z"/><path class="cls-3" d="M2425.48,1944.93h7.74v3a14.78,14.78,0,0,1,3.78-3.06,8.68,8.68,0,0,1,4-.86,12.5,12.5,0,0,1,6.4,2l-3.54,7.09a7.39,7.39,0,0,0-4.3-1.58q-6.33,0-6.33,9.56v17.37h-7.74v-33.51Z"/><path class="cls-3" d="M2487.67,1944.93h7.74v3.1a16.18,16.18,0,0,1,3.82-3.17,9.27,9.27,0,0,1,4.23-.86,10.27,10.27,0,0,1,9,5,11.62,11.62,0,0,1,9.87-5q11.32,0,11.32,13.73v20.71h-7.78v-18.61q0-4.82-1.17-6.81a4.24,4.24,0,0,0-4-2,5,5,0,0,0-4.66,2.41q-1.46,2.41-1.46,7.74v17.31h-7.78v-18.51q0-8.95-5.16-8.94a5.17,5.17,0,0,0-4.76,2.44q-1.5,2.44-1.5,7.71v17.31h-7.74v-33.51Z"/><path class="cls-3" d="M2581,1963.51h-24a10.18,10.18,0,0,0,2.68,6.57,8.18,8.18,0,0,0,6.09,2.41,7.92,7.92,0,0,0,4.78-1.38,19.58,19.58,0,0,0,4.23-5.09l6.54,3.65a25.94,25.94,0,0,1-3.2,4.42,17,17,0,0,1-3.61,3,14.49,14.49,0,0,1-4.16,1.74,20.27,20.27,0,0,1-4.85.55q-7.5,0-12-4.82t-4.54-12.87q0-7.95,4.4-12.87A15.18,15.18,0,0,1,2565,1944q7.4,0,11.7,4.71t4.27,13Zm-7.95-6.33q-1.62-6.19-7.81-6.19a8,8,0,0,0-2.65.43,7.57,7.57,0,0,0-2.25,1.24,7.84,7.84,0,0,0-1.74,1.94,9,9,0,0,0-1.1,2.58H2573Z"/><path class="cls-3" d="M2596.48,1944.93h7.78v3.1a12.69,12.69,0,0,1,9.15-4q5.85,0,9.12,3.68,2.82,3.13,2.82,10.22v20.54h-7.78v-18.72q0-5-1.38-6.85t-4.89-1.93q-3.85,0-5.47,2.55t-1.58,8.77v16.17h-7.78v-33.51Z"/><path class="cls-3" d="M2649.9,1944.93v19.23q0,8.33,6.57,8.33t6.57-8.33v-19.23h7.74v19.4a21.58,21.58,0,0,1-1,6.95,11.67,11.67,0,0,1-3.34,4.71,16.27,16.27,0,0,1-19.92,0,11.87,11.87,0,0,1-3.41-4.71,19.17,19.17,0,0,1-1-6.95v-19.4h7.74Z"/><path class="cls-2" d="M717,2140.16a15.23,15.23,0,0,0-11.62-5.6c-9.87,0-15.54,9.1-15.54,18.2,0,8.89,5.88,17.78,15.47,17.78a16.1,16.1,0,0,0,11.69-5.6v12.25a27.72,27.72,0,0,1-12,3.15c-14.84,0-25.83-12.81-25.83-27.37,0-15,10.57-28.21,26-28.21a24.56,24.56,0,0,1,11.76,3.08v12.32Z"/><path class="cls-2" d="M754.36,2180.35c-16.1,0-26.11-12.32-26.11-27.86s10.36-27.72,26.11-27.72,26.11,12,26.11,27.72S770.46,2180.35,754.36,2180.35Zm0-45.43c-9.73,0-15.47,8.61-15.47,17.15,0,8.12,4.06,18.13,15.47,18.13s15.47-10,15.47-18.13C769.83,2143.52,764.09,2134.91,754.36,2134.91Z"/><path class="cls-2" d="M792.5,2124.76h7.42l27.79,36.89h0.14v-35.49h10.29V2180h-7.42l-27.79-36.89h-0.14v35.84H792.5v-54.19Z"/><path class="cls-2" d="M869.78,2178.95H859.49v-43.83H848.85v-9h31.57v9H869.78v43.83Z"/><path class="cls-2" d="M896.38,2167.82L892,2178.95H881.19l20.58-54.19h8l20,54.19h-11l-4.06-11.13H896.38Zm8.89-27.58h-0.14l-5.81,19.18h12.53Z"/><path class="cls-2" d="M975.21,2140.16a15.23,15.23,0,0,0-11.62-5.6c-9.87,0-15.54,9.1-15.54,18.2,0,8.89,5.88,17.78,15.47,17.78a16.1,16.1,0,0,0,11.69-5.6v12.25a27.72,27.72,0,0,1-12,3.15c-14.84,0-25.83-12.81-25.83-27.37,0-15,10.57-28.21,26-28.21a24.56,24.56,0,0,1,11.76,3.08v12.32Z"/><path class="cls-2" d="M1006.14,2178.95H995.85v-43.83H985.21v-9h31.57v9h-10.64v43.83Z"/><path class="cls-2" d="M1274,2124.76h7.42l27.79,36.89h0.14v-35.49h10.29V2180h-7.42l-27.79-36.89h-0.14v35.84H1274v-54.19Z"/><path class="cls-2" d="M1344.39,2135.12v11.62h16.38v9h-16.38V2170h17v9h-27.3v-52.79h27.3v9h-17Z"/><path class="cls-2" d="M1391.92,2162.14h0.14l10.5-36.68h6.09l10.92,36.68h0.14l10.36-36h10.78L1423,2180h-7.56l-10.5-34.51h-0.14l-9.94,34.51h-7.56l-16.8-53.84h10.78Z"/><path class="cls-2" d="M1475.5,2137.78c-2-2.66-4.48-4.34-7.91-4.34s-6.44,2.52-6.44,6c0,8.89,20.93,5.18,20.93,22.89,0,10.57-6.58,18.06-17.36,18.06-7.28,0-12.6-4.2-16.24-10.29l6.65-6.51c1.4,4.06,5.11,7.7,9.52,7.7,4.2,0,6.79-3.57,6.79-7.63,0-5.46-5-7-9.17-8.61-6.79-2.8-11.76-6.23-11.76-14.42,0-8.75,6.51-15.82,15.4-15.82,4.69,0,11.2,2.31,14.42,5.88Z"/><path class="cls-2" d="M1504.75,2170h14.56v9h-24.85v-52.79h10.29V2170Z"/><path class="cls-2" d="M1539.89,2135.12v11.62h16.38v9h-16.38V2170h17v9h-27.3v-52.79h27.3v9h-17Z"/><path class="cls-2" d="M1587.91,2178.95h-10.29v-43.83H1567v-9h31.57v9h-10.64v43.83Z"/><path class="cls-2" d="M1626.48,2178.95h-10.29v-43.83h-10.64v-9h31.57v9h-10.64v43.83Z"/><path class="cls-2" d="M1658.19,2135.12v11.62h16.38v9h-16.38V2170h17v9h-27.3v-52.79h27.3v9h-17Z"/><path class="cls-2" d="M1724.76,2178.95H1712.3l-12.81-21.28h-0.14v21.28h-10.29v-52.79H1703c10.43,0,17.64,4.62,17.64,15.89,0,6.72-3.71,13.44-10.78,14.63Zm-25.41-28.49h1.33c5.67,0,9.66-1.68,9.66-8.12s-4.13-7.77-9.59-7.77h-1.4v15.89Z"/><path class="cls-2" d="M1983.33,2137.78c-2-2.66-4.48-4.34-7.91-4.34s-6.44,2.52-6.44,6c0,8.89,20.93,5.18,20.93,22.89,0,10.57-6.58,18.06-17.36,18.06-7.28,0-12.6-4.2-16.24-10.29l6.65-6.51c1.4,4.06,5.11,7.7,9.52,7.7,4.2,0,6.79-3.57,6.79-7.63,0-5.46-5-7-9.17-8.61-6.79-2.8-11.76-6.23-11.76-14.42,0-8.75,6.51-15.82,15.4-15.82,4.69,0,11.2,2.31,14.42,5.88Z"/><path class="cls-2" d="M2019.45,2178.95h-10.29v-43.83h-10.64v-9h31.57v9h-10.64v43.83Z"/><path class="cls-2" d="M2064.46,2180.35c-16.1,0-26.11-12.32-26.11-27.86s10.36-27.72,26.11-27.72,26.11,12,26.11,27.72S2080.56,2180.35,2064.46,2180.35Zm0-45.43c-9.73,0-15.47,8.61-15.47,17.15,0,8.12,4.06,18.13,15.47,18.13s15.47-10,15.47-18.13C2079.93,2143.52,2074.19,2134.91,2064.46,2134.91Z"/><path class="cls-2" d="M2137.89,2140.16a15.23,15.23,0,0,0-11.62-5.6c-9.87,0-15.54,9.1-15.54,18.2,0,8.89,5.88,17.78,15.47,17.78a16.1,16.1,0,0,0,11.69-5.6v12.25a27.72,27.72,0,0,1-12,3.15c-14.84,0-25.83-12.81-25.83-27.37,0-15,10.57-28.21,26-28.21a24.55,24.55,0,0,1,11.76,3.08v12.32Z"/><path class="cls-2" d="M2178.42,2126.16h12.67l-20,24.36,21.14,28.42H2179l-16.87-23.73H2162v23.73h-10.29v-52.79H2162v22.26h0.14Z"/><path class="cls-2" d="M2212.36,2178.95h-10.29v-52.79h10.29v52.79Z"/><path class="cls-2" d="M2251.7,2137.78c-2-2.66-4.48-4.34-7.91-4.34s-6.44,2.52-6.44,6c0,8.89,20.93,5.18,20.93,22.89,0,10.57-6.58,18.06-17.36,18.06-7.28,0-12.6-4.2-16.24-10.29l6.65-6.51c1.4,4.06,5.11,7.7,9.52,7.7,4.2,0,6.79-3.57,6.79-7.63,0-5.46-5-7-9.17-8.61-6.79-2.8-11.76-6.23-11.76-14.42,0-8.75,6.51-15.82,15.4-15.82,4.69,0,11.2,2.31,14.42,5.88Z"/><path class="cls-2" d="M2287.82,2178.95h-10.29v-43.83h-10.64v-9h31.57v9h-10.64v43.83Z"/><path class="cls-2" d="M2334.09,2137.78c-2-2.66-4.48-4.34-7.91-4.34s-6.44,2.52-6.44,6c0,8.89,20.93,5.18,20.93,22.89,0,10.57-6.58,18.06-17.36,18.06-7.28,0-12.6-4.2-16.24-10.29l6.65-6.51c1.4,4.06,5.11,7.7,9.52,7.7,4.2,0,6.79-3.57,6.79-7.63,0-5.46-5-7-9.17-8.61-6.79-2.8-11.76-6.23-11.76-14.42,0-8.75,6.51-15.82,15.4-15.82,4.69,0,11.2,2.31,14.42,5.88Z"/><line class="cls-4" x1="499.32" y1="761.45" x2="499.32" y2="1959.15"/><line class="cls-4" x1="503.49" y1="984.48" x2="2151.49" y2="984.48"/><line class="cls-4" x1="503.49" y1="1959.15" x2="2151.49" y2="1959.15"/><line class="cls-4" x1="848.85" y1="1093.5" x2="848.85" y2="984.37"/><line class="cls-4" x1="1498.85" y1="1093.5" x2="1498.85" y2="984.37"/><line class="cls-4" x1="2148.85" y1="1093.5" x2="2148.85" y2="984.37"/><line class="cls-4" x1="848.85" y1="2068.67" x2="848.85" y2="1959.54"/><line class="cls-4" x1="1498.85" y1="2068.67" x2="1498.85" y2="1959.54"/><line class="cls-4" x1="2148.85" y1="2068.67" x2="2148.85" y2="1959.54"/></svg>